<mxfile host="app.diagrams.net" modified="2021-03-15T04:47:43.137Z" agent="5.0 (X11)" etag="B8OCYD4l36GWAQ7F4n3k" version="14.4.8" type="github">
  <diagram id="6a731a19-8d31-9384-78a2-239565b7b9f0" name="Page-1">
    <mxGraphModel dx="1422" dy="804" grid="1" gridSize="10" guides="1" tooltips="1" connect="1" arrows="1" fold="1" page="1" pageScale="1" pageWidth="1100" pageHeight="850" background="#003469" math="1" shadow="0">
      <root>
        <mxCell id="0" />
        <mxCell id="1" parent="0" />
        <mxCell id="2022" value="" style="whiteSpace=wrap;html=1;dashed=1;strokeColor=none;strokeWidth=2;fillColor=#E6E6E6;fontFamily=Verdana;fontSize=12;fontColor=#00BEF2;rounded=1;" parent="1" vertex="1">
          <mxGeometry x="581.5" y="120" width="165" height="670" as="geometry" />
        </mxCell>
        <mxCell id="2020" value="" style="whiteSpace=wrap;html=1;dashed=1;strokeColor=none;strokeWidth=2;fillColor=#E6E6E6;fontFamily=Verdana;fontSize=12;fontColor=#00BEF2;rounded=1;" parent="1" vertex="1">
          <mxGeometry x="220.75" y="180" width="165" height="610" as="geometry" />
        </mxCell>
        <mxCell id="2036" value="" style="verticalLabelPosition=bottom;html=1;verticalAlign=top;strokeColor=none;fillColor=#003366;shape=mxgraph.azure.cloud_service;dashed=1;fontFamily=Helvetica;fontSize=18;fontColor=#FFFFFF;opacity=25;rounded=1;" parent="1" vertex="1">
          <mxGeometry x="96" y="170" width="970" height="600" as="geometry" />
        </mxCell>
        <mxCell id="2019" value="" style="whiteSpace=wrap;html=1;dashed=1;strokeColor=none;strokeWidth=2;fillColor=#E6E6E6;fontFamily=Verdana;fontSize=12;fontColor=#00BEF2;rounded=1;" parent="1" vertex="1">
          <mxGeometry x="37.5" y="190" width="165" height="610" as="geometry" />
        </mxCell>
        <mxCell id="2021" value="" style="whiteSpace=wrap;html=1;dashed=1;strokeColor=none;strokeWidth=2;fillColor=#E6E6E6;fontFamily=Verdana;fontSize=12;fontColor=#00BEF2;rounded=1;" parent="1" vertex="1">
          <mxGeometry x="400" y="120" width="165" height="670" as="geometry" />
        </mxCell>
        <mxCell id="2023" value="" style="whiteSpace=wrap;html=1;dashed=1;strokeColor=none;strokeWidth=2;fillColor=#E6E6E6;fontFamily=Verdana;fontSize=12;fontColor=#00BEF2;rounded=1;" parent="1" vertex="1">
          <mxGeometry x="760" y="120" width="165" height="670" as="geometry" />
        </mxCell>
        <mxCell id="2024" value="" style="whiteSpace=wrap;html=1;dashed=1;strokeColor=none;strokeWidth=2;fillColor=#E6E6E6;fontFamily=Verdana;fontSize=12;fontColor=#00BEF2;rounded=1;" parent="1" vertex="1">
          <mxGeometry x="940" y="190" width="165" height="600" as="geometry" />
        </mxCell>
        <mxCell id="2025" value="Event" style="whiteSpace=wrap;html=1;dashed=1;strokeColor=none;strokeWidth=2;fillColor=#3399FF;fontFamily=Helvetica;fontSize=18;fontColor=#FFFFFF;fontStyle=1;rounded=1;" parent="1" vertex="1">
          <mxGeometry x="40" y="120.5" width="165" height="60" as="geometry" />
        </mxCell>
        <mxCell id="2026" value="&lt;div&gt;Access Portal and Settlements&lt;br&gt;&lt;/div&gt;" style="whiteSpace=wrap;html=1;dashed=1;strokeColor=none;strokeWidth=2;fillColor=#3399FF;fontFamily=Helvetica;fontSize=18;fontColor=#FFFFFF;fontStyle=1;rounded=1;" parent="1" vertex="1">
          <mxGeometry x="220" y="120" width="165" height="60" as="geometry" />
        </mxCell>
        <mxCell id="2027" value="Data&lt;div&gt;Services&lt;/div&gt;" style="whiteSpace=wrap;html=1;dashed=1;strokeColor=none;strokeWidth=2;fillColor=#3399FF;fontFamily=Helvetica;fontSize=18;fontColor=#FFFFFF;fontStyle=1;rounded=1;" parent="1" vertex="1">
          <mxGeometry x="400" y="120" width="165" height="60" as="geometry" />
        </mxCell>
        <mxCell id="2028" value="Data&lt;div&gt;Storage&lt;/div&gt;" style="whiteSpace=wrap;html=1;dashed=1;strokeColor=none;strokeWidth=2;fillColor=#3399FF;fontFamily=Helvetica;fontSize=18;fontColor=#FFFFFF;fontStyle=1;rounded=1;" parent="1" vertex="1">
          <mxGeometry x="580" y="120" width="165" height="60" as="geometry" />
        </mxCell>
        <mxCell id="2029" value="App&lt;div&gt;Services&lt;/div&gt;" style="whiteSpace=wrap;html=1;dashed=1;strokeColor=none;strokeWidth=2;fillColor=#3399FF;fontFamily=Helvetica;fontSize=18;fontColor=#FFFFFF;fontStyle=1;rounded=1;" parent="1" vertex="1">
          <mxGeometry x="760" y="120" width="165" height="60" as="geometry" />
        </mxCell>
        <mxCell id="2030" value="&amp;nbsp; &amp;nbsp;Presentation" style="whiteSpace=wrap;html=1;dashed=1;strokeColor=none;strokeWidth=2;fillColor=#3399FF;fontFamily=Helvetica;fontSize=18;fontColor=#FFFFFF;fontStyle=1;rounded=1;" parent="1" vertex="1">
          <mxGeometry x="940" y="120" width="165" height="60" as="geometry" />
        </mxCell>
        <mxCell id="2031" value="" style="shape=mxgraph.arrows.two_way_arrow_horizontal;html=1;verticalLabelPosition=bottom;verticalAlign=top;strokeWidth=2;strokeColor=none;dashed=1;fillColor=#FFFFFF;fontFamily=Verdana;fontSize=12;fontColor=#00BEF2;rounded=1;" parent="1" vertex="1">
          <mxGeometry x="180" y="131" width="67" height="39" as="geometry" />
        </mxCell>
        <mxCell id="2032" value="" style="shape=mxgraph.arrows.two_way_arrow_horizontal;html=1;verticalLabelPosition=bottom;verticalAlign=top;strokeWidth=2;strokeColor=none;dashed=1;fillColor=#FFFFFF;fontFamily=Verdana;fontSize=12;fontColor=#00BEF2;rounded=1;" parent="1" vertex="1">
          <mxGeometry x="360" y="131" width="67" height="39" as="geometry" />
        </mxCell>
        <mxCell id="2033" value="" style="shape=mxgraph.arrows.two_way_arrow_horizontal;html=1;verticalLabelPosition=bottom;verticalAlign=top;strokeWidth=2;strokeColor=none;dashed=1;fillColor=#FFFFFF;fontFamily=Verdana;fontSize=12;fontColor=#00BEF2;rounded=1;" parent="1" vertex="1">
          <mxGeometry x="540" y="131" width="67" height="39" as="geometry" />
        </mxCell>
        <mxCell id="2034" value="" style="shape=mxgraph.arrows.two_way_arrow_horizontal;html=1;verticalLabelPosition=bottom;verticalAlign=top;strokeWidth=2;strokeColor=none;dashed=1;fillColor=#FFFFFF;fontFamily=Verdana;fontSize=12;fontColor=#00BEF2;rounded=1;" parent="1" vertex="1">
          <mxGeometry x="720" y="131" width="67" height="39" as="geometry" />
        </mxCell>
        <mxCell id="2035" value="" style="shape=mxgraph.arrows.two_way_arrow_horizontal;html=1;verticalLabelPosition=bottom;verticalAlign=top;strokeWidth=2;strokeColor=none;dashed=1;fillColor=#FFFFFF;fontFamily=Verdana;fontSize=12;fontColor=#00BEF2;rounded=1;" parent="1" vertex="1">
          <mxGeometry x="900" y="131" width="67" height="39" as="geometry" />
        </mxCell>
        <mxCell id="2037" value="" style="verticalLabelPosition=bottom;html=1;verticalAlign=top;strokeColor=none;fillColor=#3399FF;shape=mxgraph.azure.tablet;dashed=1;fontFamily=Helvetica;fontSize=14;fontColor=#004C99;rounded=1;" parent="1" vertex="1">
          <mxGeometry x="66" y="401" width="50" height="37.5" as="geometry" />
        </mxCell>
        <mxCell id="2038" value="" style="verticalLabelPosition=bottom;html=1;verticalAlign=top;strokeColor=none;fillColor=#3399FF;shape=mxgraph.azure.mobile;dashed=1;fontFamily=Helvetica;fontSize=14;fontColor=#004C99;rounded=1;" parent="1" vertex="1">
          <mxGeometry x="146" y="395" width="35" height="50" as="geometry" />
        </mxCell>
        <mxCell id="2039" value="Devices" style="verticalLabelPosition=bottom;html=1;verticalAlign=top;strokeColor=none;fillColor=#3399FF;shape=mxgraph.azure.laptop;dashed=1;fontFamily=Helvetica;fontSize=14;fontColor=#004C99;rounded=1;" parent="1" vertex="1">
          <mxGeometry x="96" y="451" width="50" height="30" as="geometry" />
        </mxCell>
        <mxCell id="2040" value="&lt;div&gt;Applications&lt;/div&gt;&lt;div&gt;and Persons&lt;br&gt;&lt;/div&gt;" style="verticalLabelPosition=bottom;html=1;verticalAlign=top;strokeColor=none;fillColor=#3399FF;shape=mxgraph.azure.mobile_services;dashed=1;fontFamily=Helvetica;fontSize=14;fontColor=#004C99;rounded=1;" parent="1" vertex="1">
          <mxGeometry x="106.25" y="258" width="32.5" height="50" as="geometry" />
        </mxCell>
        <mxCell id="2041" value="&lt;div&gt;MDL.life Wallets &lt;br&gt;and Explorer&lt;br&gt;&lt;/div&gt;" style="verticalLabelPosition=bottom;html=1;verticalAlign=top;strokeColor=none;fillColor=#3399FF;shape=mxgraph.azure.user;dashed=1;fontSize=14;fontColor=#004C99;rounded=1;" parent="1" vertex="1">
          <mxGeometry x="66" y="690" width="47.5" height="50" as="geometry" />
        </mxCell>
        <mxCell id="2042" value="" style="verticalLabelPosition=bottom;html=1;verticalAlign=top;strokeColor=none;fillColor=#3399FF;shape=mxgraph.azure.github_code;dashed=1;fontSize=14;fontColor=#004C99;rounded=1;" parent="1" vertex="1">
          <mxGeometry x="133" y="560" width="50" height="50" as="geometry" />
        </mxCell>
        <mxCell id="2043" value="" style="verticalLabelPosition=bottom;html=1;verticalAlign=top;strokeColor=none;fillColor=#3399FF;shape=mxgraph.azure.dropbox_code_source;dashed=1;fontSize=14;fontColor=#004C99;rounded=1;" parent="1" vertex="1">
          <mxGeometry x="73" y="563" width="50" height="47.5" as="geometry" />
        </mxCell>
        <mxCell id="2044" value="Repositories" style="text;html=1;strokeColor=none;fillColor=none;align=center;verticalAlign=middle;whiteSpace=wrap;overflow=hidden;dashed=1;fontSize=14;fontColor=#004C99;rounded=1;" parent="1" vertex="1">
          <mxGeometry x="60" y="620" width="120" height="20" as="geometry" />
        </mxCell>
        <mxCell id="2046" value="Mobile&lt;br&gt;Services" style="verticalLabelPosition=bottom;html=1;verticalAlign=top;strokeColor=none;fillColor=#3399FF;shape=mxgraph.azure.mobile_services;dashed=1;fontSize=14;fontColor=#004C99;rounded=1;" parent="1" vertex="1">
          <mxGeometry x="150.5" y="690" width="32.5" height="50" as="geometry" />
        </mxCell>
        <mxCell id="2047" value="PrivateNess Network Internals: General Architecture v0.4.1" style="text;html=1;strokeColor=none;fillColor=none;align=center;verticalAlign=middle;whiteSpace=wrap;overflow=hidden;dashed=1;fontSize=36;fontColor=#FFFFFF;fontFamily=Helvetica;fontStyle=1;rounded=1;" parent="1" vertex="1">
          <mxGeometry x="39" y="50" width="1060" height="50" as="geometry" />
        </mxCell>
        <mxCell id="2048" value="Business&amp;nbsp;&lt;div&gt;Analytics&lt;/div&gt;" style="whiteSpace=wrap;html=1;dashed=1;strokeColor=none;strokeWidth=2;fillColor=#FFFFFF;fontFamily=Helvetica;fontSize=14;fontColor=#FFB366;opacity=75;verticalAlign=top;fontStyle=1;rounded=1;" parent="1" vertex="1">
          <mxGeometry x="410" y="190" width="140" height="260" as="geometry" />
        </mxCell>
        <mxCell id="2049" value="Core Statistical Singularity" style="whiteSpace=wrap;html=1;dashed=1;strokeColor=none;strokeWidth=2;fillColor=#FFFFFF;fontFamily=Helvetica;fontSize=14;fontColor=#FFB366;opacity=75;verticalAlign=top;fontStyle=1;rounded=1;" parent="1" vertex="1">
          <mxGeometry x="413" y="460" width="140" height="320" as="geometry" />
        </mxCell>
        <mxCell id="2050" value="&lt;div&gt;NESS Corenodes &lt;br&gt;Superceding al&lt;br&gt;&lt;/div&gt;" style="verticalLabelPosition=bottom;html=1;verticalAlign=top;strokeColor=none;fillColor=#3399FF;shape=mxgraph.azure.sql_reporting;dashed=1;fontSize=14;fontColor=#004C99;rounded=1;" parent="1" vertex="1">
          <mxGeometry x="460" y="258" width="40" height="50" as="geometry" />
        </mxCell>
        <mxCell id="cknqEeZvv9zcmAJdt0F8-2089" value="" style="edgeStyle=orthogonalEdgeStyle;rounded=0;orthogonalLoop=1;jettySize=auto;html=1;" parent="1" source="2051" target="i66-fu9QL5YznibiX_Dj-2094" edge="1">
          <mxGeometry relative="1" as="geometry" />
        </mxCell>
        <mxCell id="2051" value="Randpay Probabilistic&lt;br&gt;Billing" style="verticalLabelPosition=bottom;html=1;verticalAlign=top;strokeColor=none;fillColor=#3399FF;shape=mxgraph.azure.hdinsight;dashed=1;fontSize=14;fontColor=#004C99;rounded=1;" parent="1" vertex="1">
          <mxGeometry x="458" y="355" width="50" height="50" as="geometry" />
        </mxCell>
        <mxCell id="2054" value="Blobs" style="verticalLabelPosition=bottom;html=1;verticalAlign=top;strokeColor=none;fillColor=#3399FF;shape=mxgraph.azure.storage_blob;dashed=1;fontFamily=Helvetica;fontSize=14;fontColor=#004C99;rounded=1;" parent="1" vertex="1">
          <mxGeometry x="457" y="523" width="50" height="45" as="geometry" />
        </mxCell>
        <mxCell id="2055" value="Storage Management" style="whiteSpace=wrap;html=1;dashed=1;strokeColor=none;strokeWidth=2;fillColor=#FFFFFF;fontFamily=Helvetica;fontSize=14;fontColor=#FFB366;opacity=75;verticalAlign=top;fontStyle=1;rounded=1;" parent="1" vertex="1">
          <mxGeometry x="594" y="240" width="140" height="470" as="geometry" />
        </mxCell>
        <mxCell id="2059" value="Identity" style="whiteSpace=wrap;html=1;dashed=1;strokeColor=none;strokeWidth=2;fillColor=#FFFFFF;fontFamily=Helvetica;fontSize=14;fontColor=#FFB366;opacity=75;verticalAlign=top;fontStyle=1;rounded=1;" parent="1" vertex="1">
          <mxGeometry x="773" y="196" width="140" height="134" as="geometry" />
        </mxCell>
        <mxCell id="2060" value="Blockchain dPKI " style="verticalLabelPosition=bottom;html=1;verticalAlign=top;strokeColor=none;fillColor=#3399FF;shape=mxgraph.azure.azure_active_directory;dashed=1;fontFamily=Helvetica;fontSize=14;fontColor=#004C99;rounded=1;" parent="1" vertex="1">
          <mxGeometry x="819" y="225" width="47.5" height="50" as="geometry" />
        </mxCell>
        <mxCell id="2061" value="Performance" style="whiteSpace=wrap;html=1;dashed=1;strokeColor=none;strokeWidth=2;fillColor=#FFFFFF;fontFamily=Helvetica;fontSize=14;fontColor=#FFB366;opacity=75;verticalAlign=top;fontStyle=1;rounded=1;" parent="1" vertex="1">
          <mxGeometry x="774" y="341" width="140" height="199" as="geometry" />
        </mxCell>
        <mxCell id="2062" value="High-Throughput&lt;br&gt;Computing&lt;br&gt; HTCondor distributed &lt;br&gt;&lt;div&gt;executions and&lt;/div&gt;&lt;div&gt;scheduling&lt;/div&gt;" style="verticalLabelPosition=bottom;html=1;verticalAlign=top;strokeColor=none;fillColor=#3399FF;shape=mxgraph.azure.azure_cache;dashed=1;fontFamily=Helvetica;fontSize=14;fontColor=#004C99;rounded=1;" parent="1" vertex="1">
          <mxGeometry x="821" y="376" width="45" height="50" as="geometry" />
        </mxCell>
        <mxCell id="2064" value="Messaging" style="whiteSpace=wrap;html=1;dashed=1;strokeColor=none;strokeWidth=2;fillColor=#FFFFFF;fontFamily=Helvetica;fontSize=14;fontColor=#FFB366;opacity=75;verticalAlign=top;fontStyle=1;rounded=1;" parent="1" vertex="1">
          <mxGeometry x="773" y="550" width="140" height="229" as="geometry" />
        </mxCell>
        <mxCell id="2065" value="Queues" style="verticalLabelPosition=bottom;html=1;verticalAlign=top;strokeColor=none;fillColor=#3399FF;shape=mxgraph.azure.queue_generic;dashed=1;fontFamily=Helvetica;fontSize=14;fontColor=#004C99;rounded=1;" parent="1" vertex="1">
          <mxGeometry x="820" y="576" width="50" height="15" as="geometry" />
        </mxCell>
        <mxCell id="2066" value="Service Bus" style="verticalLabelPosition=bottom;html=1;verticalAlign=top;strokeColor=none;fillColor=#3399FF;shape=mxgraph.azure.service_bus;dashed=1;fontFamily=Helvetica;fontSize=14;fontColor=#004C99;rounded=1;" parent="1" vertex="1">
          <mxGeometry x="824" y="624" width="45" height="50" as="geometry" />
        </mxCell>
        <mxCell id="2067" value="Media Services" style="verticalLabelPosition=bottom;html=1;verticalAlign=top;strokeColor=none;fillColor=#3399FF;shape=mxgraph.azure.media_service;dashed=1;fontFamily=Helvetica;fontSize=14;fontColor=#004C99;rounded=1;" parent="1" vertex="1">
          <mxGeometry x="821" y="703" width="45" height="50" as="geometry" />
        </mxCell>
        <mxCell id="2068" value="Authentication/&lt;br&gt;Certification Services" style="whiteSpace=wrap;html=1;dashed=1;strokeColor=none;strokeWidth=2;fillColor=#FFFFFF;fontFamily=Helvetica;fontSize=14;fontColor=#FFB366;opacity=75;verticalAlign=top;fontStyle=1;rounded=1;" parent="1" vertex="1">
          <mxGeometry x="233.25" y="407" width="140" height="223" as="geometry" />
        </mxCell>
        <mxCell id="2070" value="Users Database&lt;br&gt;Anonymous EmerSSL&lt;br&gt;public keys&lt;br&gt;" style="verticalLabelPosition=bottom;html=1;verticalAlign=top;strokeColor=none;fillColor=#3399FF;shape=mxgraph.azure.virtual_machine;dashed=1;fontSize=14;fontColor=#004C99;rounded=1;" parent="1" vertex="1">
          <mxGeometry x="277.5" y="518" width="50" height="40" as="geometry" />
        </mxCell>
        <mxCell id="2072" value="Certificates" style="verticalLabelPosition=bottom;html=1;verticalAlign=top;strokeColor=none;fillColor=#3399FF;shape=mxgraph.azure.certificate;dashed=1;fontFamily=Helvetica;fontSize=14;fontColor=#004C99;rounded=1;" parent="1" vertex="1">
          <mxGeometry x="991" y="487" width="50" height="40" as="geometry" />
        </mxCell>
        <mxCell id="2073" value="Enterprise&lt;div&gt;Services&lt;/div&gt;" style="verticalLabelPosition=bottom;html=1;verticalAlign=top;strokeColor=none;fillColor=#3399FF;shape=mxgraph.azure.enterprise;dashed=1;fontFamily=Helvetica;fontSize=14;fontColor=#004C99;rounded=1;" parent="1" vertex="1">
          <mxGeometry x="1007.5" y="576" width="30" height="50" as="geometry" />
        </mxCell>
        <mxCell id="2074" value="&lt;div&gt;High Hashrate and Power&lt;/div&gt;&lt;div&gt;for General-purpose&lt;/div&gt;" style="verticalLabelPosition=bottom;html=1;verticalAlign=top;strokeColor=none;fillColor=#3399FF;shape=mxgraph.azure.user;dashed=1;fontFamily=Helvetica;fontSize=14;fontColor=#004C99;rounded=1;" parent="1" vertex="1">
          <mxGeometry x="1000.5" y="680" width="47.5" height="50" as="geometry" />
        </mxCell>
        <mxCell id="2075" value="" style="arrow;html=1;endArrow=block;endFill=1;strokeColor=none;strokeWidth=4;fontFamily=Helvetica;fontSize=36;fontColor=#FFB366;fillColor=#FFB366;" parent="1" edge="1">
          <mxGeometry width="100" height="100" relative="1" as="geometry">
            <mxPoint x="167" y="283" as="sourcePoint" />
            <mxPoint x="247" y="283" as="targetPoint" />
          </mxGeometry>
        </mxCell>
        <mxCell id="2076" value="" style="arrow;html=1;endArrow=block;endFill=1;strokeColor=none;strokeWidth=4;fontFamily=Helvetica;fontSize=36;fontColor=#FFB366;fillColor=#FFB366;opacity=100;" parent="1" edge="1">
          <mxGeometry width="100" height="100" relative="1" as="geometry">
            <mxPoint x="347" y="283" as="sourcePoint" />
            <mxPoint x="427" y="283" as="targetPoint" />
          </mxGeometry>
        </mxCell>
        <mxCell id="2077" value="" style="arrow;html=1;endArrow=block;endFill=1;strokeColor=none;strokeWidth=4;fontFamily=Helvetica;fontSize=36;fontColor=#FFB366;fillColor=#FFB366;" parent="1" edge="1">
          <mxGeometry width="100" height="100" relative="1" as="geometry">
            <mxPoint x="527" y="360" as="sourcePoint" />
            <mxPoint x="607" y="360" as="targetPoint" />
          </mxGeometry>
        </mxCell>
        <mxCell id="2078" value="" style="arrow;html=1;endArrow=block;endFill=1;strokeColor=none;strokeWidth=4;fontFamily=Helvetica;fontSize=36;fontColor=#FFB366;fillColor=#FFB366;" parent="1" edge="1">
          <mxGeometry width="100" height="100" relative="1" as="geometry">
            <mxPoint x="714" y="426" as="sourcePoint" />
            <mxPoint x="794" y="426" as="targetPoint" />
          </mxGeometry>
        </mxCell>
        <mxCell id="2079" value="" style="arrow;html=1;endArrow=block;endFill=1;strokeColor=none;strokeWidth=4;fontFamily=Helvetica;fontSize=36;fontColor=#FFB366;fillColor=#FFB366;" parent="1" edge="1">
          <mxGeometry width="100" height="100" relative="1" as="geometry">
            <mxPoint x="714" y="270" as="sourcePoint" />
            <mxPoint x="794" y="270" as="targetPoint" />
          </mxGeometry>
        </mxCell>
        <mxCell id="2080" value="" style="arrow;html=1;endArrow=block;endFill=1;strokeColor=none;strokeWidth=4;fontFamily=Helvetica;fontSize=36;fontColor=#FFB366;fillColor=#FFB366;" parent="1" edge="1">
          <mxGeometry width="100" height="100" relative="1" as="geometry">
            <mxPoint x="887" y="438" as="sourcePoint" />
            <mxPoint x="967" y="438" as="targetPoint" />
          </mxGeometry>
        </mxCell>
        <mxCell id="2081" value="" style="arrow;html=1;endArrow=block;endFill=1;strokeColor=none;strokeWidth=4;fontFamily=Helvetica;fontSize=36;fontColor=#FFB366;fillColor=#FFB366;" parent="1" edge="1">
          <mxGeometry width="100" height="100" relative="1" as="geometry">
            <mxPoint x="894" y="664" as="sourcePoint" />
            <mxPoint x="974" y="664" as="targetPoint" />
          </mxGeometry>
        </mxCell>
        <mxCell id="2082" value="" style="arrow;html=1;endArrow=block;endFill=1;strokeColor=none;strokeWidth=4;fontFamily=Helvetica;fontSize=36;fontColor=#FFB366;fillColor=#FFB366;" parent="1" edge="1">
          <mxGeometry width="100" height="100" relative="1" as="geometry">
            <mxPoint x="707" y="639" as="sourcePoint" />
            <mxPoint x="787" y="639" as="targetPoint" />
          </mxGeometry>
        </mxCell>
        <mxCell id="2083" value="" style="arrow;html=1;endArrow=block;endFill=1;strokeColor=none;strokeWidth=4;fontFamily=Helvetica;fontSize=36;fontColor=#FFB366;fillColor=#FFB366;" parent="1" edge="1">
          <mxGeometry width="100" height="100" relative="1" as="geometry">
            <mxPoint x="534" y="624" as="sourcePoint" />
            <mxPoint x="614" y="624" as="targetPoint" />
          </mxGeometry>
        </mxCell>
        <mxCell id="2084" value="" style="arrow;html=1;endArrow=block;endFill=1;strokeColor=none;strokeWidth=4;fontFamily=Helvetica;fontSize=36;fontColor=#FFB366;fillColor=#FFB366;" parent="1" edge="1">
          <mxGeometry width="100" height="100" relative="1" as="geometry">
            <mxPoint x="347" y="536" as="sourcePoint" />
            <mxPoint x="427" y="536" as="targetPoint" />
          </mxGeometry>
        </mxCell>
        <mxCell id="2085" value="" style="arrow;html=1;endArrow=block;endFill=1;strokeColor=none;strokeWidth=4;fontFamily=Helvetica;fontSize=36;fontColor=#FFB366;fillColor=#FFB366;" parent="1" edge="1">
          <mxGeometry width="100" height="100" relative="1" as="geometry">
            <mxPoint x="153.25" y="518" as="sourcePoint" />
            <mxPoint x="233.25" y="518" as="targetPoint" />
          </mxGeometry>
        </mxCell>
        <mxCell id="wG_c4dULW8k_WJfXNpnm-2085" value="" style="shape=image;verticalLabelPosition=bottom;labelBackgroundColor=#ffffff;verticalAlign=top;aspect=fixed;imageAspect=0;image=data:image/svg+xml,PHN2ZyB4bWxuczpkYz0iaHR0cDovL3B1cmwub3JnL2RjL2VsZW1lbnRzLzEuMS8iIHhtbG5zOmNjPSJodHRwOi8vY3JlYXRpdmVjb21tb25zLm9yZy9ucyMiIHhtbG5zOnJkZj0iaHR0cDovL3d3dy53My5vcmcvMTk5OS8wMi8yMi1yZGYtc3ludGF4LW5zIyIgeG1sbnM6c3ZnPSJodHRwOi8vd3d3LnczLm9yZy8yMDAwL3N2ZyIgeG1sbnM9Imh0dHA6Ly93d3cudzMub3JnLzIwMDAvc3ZnIiB4bWxuczp4bGluaz0iaHR0cDovL3d3dy53My5vcmcvMTk5OS94bGluayIgeG1sbnM6c29kaXBvZGk9Imh0dHA6Ly9zb2RpcG9kaS5zb3VyY2Vmb3JnZS5uZXQvRFREL3NvZGlwb2RpLTAuZHRkIiB4bWxuczppbmtzY2FwZT0iaHR0cDovL3d3dy5pbmtzY2FwZS5vcmcvbmFtZXNwYWNlcy9pbmtzY2FwZSIgdmVyc2lvbj0iMS4xIiBpZD0iTGF5ZXJfMSIgeD0iMHB4IiB5PSIwcHgiIHZpZXdCb3g9IjAgMCA0OS4yNTk5OTggNTYuNzU5OTk4IiB4bWw6c3BhY2U9InByZXNlcnZlIiBzb2RpcG9kaTpkb2NuYW1lPSJtaWNyb3NlcnZpY2VzLnN2ZyIgd2lkdGg9IjQ5LjI1OTk5OCIgaGVpZ2h0PSI1Ni43NTk5OTgiIGlua3NjYXBlOnZlcnNpb249IjAuOTIuMyAoMjQwNTU0NiwgMjAxOC0wMy0xMSkiPjxtZXRhZGF0YSBpZD0ibWV0YWRhdGEyNjU1MiI+PHJkZjpSREY+PGNjOldvcmsgcmRmOmFib3V0PSIiPjxkYzpmb3JtYXQ+aW1hZ2Uvc3ZnK3htbDwvZGM6Zm9ybWF0PjxkYzp0eXBlIHJkZjpyZXNvdXJjZT0iaHR0cDovL3B1cmwub3JnL2RjL2RjbWl0eXBlL1N0aWxsSW1hZ2UiLz48ZGM6dGl0bGUvPjwvY2M6V29yaz48L3JkZjpSREY+PC9tZXRhZGF0YT48ZGVmcyBpZD0iZGVmczI2NTUwIi8+PHNvZGlwb2RpOm5hbWVkdmlldyBwYWdlY29sb3I9IiNmZmZmZmYiIGJvcmRlcmNvbG9yPSIjNjY2NjY2IiBib3JkZXJvcGFjaXR5PSIxIiBvYmplY3R0b2xlcmFuY2U9IjEwIiBncmlkdG9sZXJhbmNlPSIxMCIgZ3VpZGV0b2xlcmFuY2U9IjEwIiBpbmtzY2FwZTpwYWdlb3BhY2l0eT0iMCIgaW5rc2NhcGU6cGFnZXNoYWRvdz0iMiIgaW5rc2NhcGU6d2luZG93LXdpZHRoPSIxOTIwIiBpbmtzY2FwZTp3aW5kb3ctaGVpZ2h0PSIxMDE3IiBpZD0ibmFtZWR2aWV3MjY1NDgiIHNob3dncmlkPSJmYWxzZSIgZml0LW1hcmdpbi10b3A9IjAiIGZpdC1tYXJnaW4tbGVmdD0iMCIgZml0LW1hcmdpbi1yaWdodD0iMCIgZml0LW1hcmdpbi1ib3R0b209IjAiIGlua3NjYXBlOnpvb209IjUuODI4Mjc0MSIgaW5rc2NhcGU6Y3g9IjIzLjA0MTIxMSIgaW5rc2NhcGU6Y3k9IjE3Ljk0Njg1NiIgaW5rc2NhcGU6d2luZG93LXg9Ii04IiBpbmtzY2FwZTp3aW5kb3cteT0iLTgiIGlua3NjYXBlOndpbmRvdy1tYXhpbWl6ZWQ9IjEiIGlua3NjYXBlOmN1cnJlbnQtbGF5ZXI9IkxheWVyXzEiLz4mI3hhOyYjeGE7PGcgaWQ9ImcyNjU0NSIgdHJhbnNmb3JtPSJ0cmFuc2xhdGUoLTYyLjM5LC05Mi4xNCkiPiYjeGE7CTxkZWZzIGlkPSJkZWZzMjY1MTAiPiYjeGE7CQk8cmVjdCBpZD0iU1ZHSURfM18iIHg9IjYyLjM4OTk5OSIgeT0iOTIuMTM5OTk5IiB3aWR0aD0iNTEiIGhlaWdodD0iNTkuNSIvPiYjeGE7CTwvZGVmcz4mI3hhOwk8Y2xpcFBhdGggaWQ9IlNWR0lEXzRfIj4mI3hhOwkJPHVzZSB4bGluazpocmVmPSIjU1ZHSURfM18iIHN0eWxlPSJvdmVyZmxvdzp2aXNpYmxlIiBpZD0idXNlMjY1MTIiIHg9IjAiIHk9IjAiIHdpZHRoPSIxMDAlIiBoZWlnaHQ9IjEwMCUiLz4mI3hhOwk8L2NsaXBQYXRoPiYjeGE7CTxnIGNsaXAtcGF0aD0idXJsKCNTVkdJRF80XykiIGlkPSJnMjY1NDMiPiYjeGE7CQk8ZGVmcyBpZD0iZGVmczI2NTE2Ij4mI3hhOwkJCTxyZWN0IGlkPSJTVkdJRF81XyIgeD0iNjIuMzg5OTk5IiB5PSI5Mi4xMzk5OTkiIHdpZHRoPSI1MSIgaGVpZ2h0PSI1OS41Ii8+JiN4YTsJCTwvZGVmcz4mI3hhOwkJPGNsaXBQYXRoIGlkPSJTVkdJRF82XyI+JiN4YTsJCQk8dXNlIHhsaW5rOmhyZWY9IiNTVkdJRF81XyIgc3R5bGU9Im92ZXJmbG93OnZpc2libGUiIGlkPSJ1c2UyNjUxOCIgeD0iMCIgeT0iMCIgd2lkdGg9IjEwMCUiIGhlaWdodD0iMTAwJSIvPiYjeGE7CQk8L2NsaXBQYXRoPiYjeGE7CQk8cGF0aCBzdHlsZT0iZmlsbDojOTdjMWQ0IiBkPSJtIDg3LjA0LDEyMy4yMiAyLjIyLDExLjIxIGMgMC4wOCwwLjQxIC0wLjE4LDAuOCAtMC41OSwwLjg4IC0wLjQxLDAuMDggLTAuOCwtMC4xOCAtMC44OCwtMC41OSBsIC0yLjIyLC0xMS4yMSBjIC0wLjA4LC0wLjQxIDAuMTgsLTAuOCAwLjU5LC0wLjg4IDAuNCwtMC4wOCAwLjgsMC4xOSAwLjg4LDAuNTkgeiIgY2xpcC1wYXRoPSJ1cmwoI1NWR0lEXzZfKSIgaWQ9InBhdGgyNjUyMSIgaW5rc2NhcGU6Y29ubmVjdG9yLWN1cnZhdHVyZT0iMCIvPiYjeGE7CQk8cGF0aCBzdHlsZT0iZmlsbDojOTdjMWQ0IiBkPSJtIDEwMi43NSwxMTUuMSB2IDguNjMgYyAwLDAuNDEgLTAuMzQsMC43NSAtMC43NSwwLjc1IC0wLjQxLDAgLTAuNzUsLTAuMzMgLTAuNzUsLTAuNzUgdiAtOC42MyBjIDAsLTAuNDEgMC4zNCwtMC43NSAwLjc1LC0wLjc1IDAuNDEsMCAwLjc1LDAuMzMgMC43NSwwLjc1IHoiIGNsaXAtcGF0aD0idXJsKCNTVkdJRF82XykiIGlkPSJwYXRoMjY1MjMiIGlua3NjYXBlOmNvbm5lY3Rvci1jdXJ2YXR1cmU9IjAiLz4mI3hhOwkJPHBhdGggc3R5bGU9ImZpbGw6Izk3YzFkNCIgZD0ibSA5MS4zMywxMTkuMDcgNi43MSw2Ljc3IGMgMC4yOSwwLjI5IDAuMjksMC43NyAwLDEuMDYgLTAuMjksMC4yOSAtMC43NywwLjI5IC0xLjA2LC0wLjAxIGwgLTYuNzEsLTYuNzcgYyAtMC4yOSwtMC4yOSAtMC4yOSwtMC43NyAwLC0xLjA2IDAuMjksLTAuMjkgMC43NywtMC4yOSAxLjA2LDAuMDEgeiIgY2xpcC1wYXRoPSJ1cmwoI1NWR0lEXzZfKSIgaWQ9InBhdGgyNjUyNSIgaW5rc2NhcGU6Y29ubmVjdG9yLWN1cnZhdHVyZT0iMCIvPiYjeGE7CQk8cGF0aCBzdHlsZT0iZmlsbDojOTdjMWQ0IiBkPSJtIDc3LjE3LDEyOC4xOSA1Ljk5LDkuNzcgYyAwLjIyLDAuMzUgMC4xMSwwLjgxIC0wLjI1LDEuMDMgLTAuMzUsMC4yMiAtMC44MSwwLjExIC0xLjAzLC0wLjI1IGwgLTUuOTksLTkuNzcgYyAtMC4yMiwtMC4zNSAtMC4xMSwtMC44MSAwLjI1LC0xLjAzIDAuMzYsLTAuMjEgMC44MiwtMC4xIDEuMDMsMC4yNSB6IiBjbGlwLXBhdGg9InVybCgjU1ZHSURfNl8pIiBpZD0icGF0aDI2NTI3IiBpbmtzY2FwZTpjb25uZWN0b3ItY3VydmF0dXJlPSIwIi8+JiN4YTsJCTxwb2x5Z29uIHN0eWxlPSJmaWxsOiMwMDc4ZDciIHBvaW50cz0iODAuOTEsMTA2Ljk1IDc2LjY1LDk5LjU3IDgwLjg1LDkyLjIgODkuMzYsOTIuMTQgOTMuNjcsOTkuNTEgODkuNDIsMTA2Ljg5ICIgY2xpcC1wYXRoPSJ1cmwoI1NWR0lEXzZfKSIgaWQ9InBvbHlnb24yNjUyOSIvPiYjeGE7CQk8cG9seWdvbiBzdHlsZT0iZmlsbDojMDA3OGQ3IiBwb2ludHM9IjY2LjcxLDExNS4xNiA2Mi4zOSwxMDcuODQgNjYuNjUsMTAwLjQxIDc1LjE2LDEwMC40MSA3OS40MSwxMDcuNzIgNzUuMjIsMTE1LjE2ICIgY2xpcC1wYXRoPSJ1cmwoI1NWR0lEXzZfKSIgaWQ9InBvbHlnb24yNjUzMSIvPiYjeGE7CQk8cG9seWdvbiBzdHlsZT0iZmlsbDojMDA3OGQ3IiBwb2ludHM9Ijk1LjE3LDExNS4xNiA5MC44NiwxMDcuODQgOTUuMTEsMTAwLjQxIDEwMy42MiwxMDAuNDEgMTA3Ljg4LDEwNy43MiAxMDMuNjgsMTE1LjE2ICIgY2xpcC1wYXRoPSJ1cmwoI1NWR0lEXzZfKSIgaWQ9InBvbHlnb24yNjUzMyIvPiYjeGE7CQk8cG9seWdvbiBzdHlsZT0iZmlsbDojMDA3OGQ3IiBwb2ludHM9IjY2LjcxLDEzMS42NCA2Mi4zOSwxMjQuMzMgNjYuNjUsMTE2LjkgNzUuMTYsMTE2LjkgNzkuNDEsMTI0LjIxIDc1LjIyLDEzMS42NCAiIGNsaXAtcGF0aD0idXJsKCNTVkdJRF82XykiIGlkPSJwb2x5Z29uMjY1MzUiLz4mI3hhOwkJPHBvbHlnb24gc3R5bGU9ImZpbGw6IzAwNzhkNyIgcG9pbnRzPSI4MC45MSwxMjMuNDMgNzYuNjUsMTE2LjA2IDgwLjg1LDEwOC42OCA4OS4zNiwxMDguNjIgOTMuNjcsMTE2IDg5LjQyLDEyMy4zNyAiIGNsaXAtcGF0aD0idXJsKCNTVkdJRF82XykiIGlkPSJwb2x5Z29uMjY1MzciLz4mI3hhOwkJPHBvbHlnb24gc3R5bGU9ImZpbGw6IzAwYTk5ZCIgcG9pbnRzPSI4NC42OCwxNDguOSA4MC4zNywxNDEuNTMgODQuNjIsMTM0LjE2IDkzLjEzLDEzNC4xIDk3LjM5LDE0MS40NyA5My4xOSwxNDguODQgIiBjbGlwLXBhdGg9InVybCgjU1ZHSURfNl8pIiBpZD0icG9seWdvbjI2NTM5Ii8+JiN4YTsJCTxwb2x5Z29uIHN0eWxlPSJmaWxsOiNmMTVhMjQiIHBvaW50cz0iOTguODksMTM2LjkyIDk0LjYzLDEyOS41NCA5OC44MywxMjIuMTcgMTA3LjM0LDEyMi4xMSAxMTEuNjUsMTI5LjQ4IDEwNy40LDEzNi44NiAiIGNsaXAtcGF0aD0idXJsKCNTVkdJRF82XykiIGlkPSJwb2x5Z29uMjY1NDEiLz4mI3hhOwk8L2c+JiN4YTs8L2c+JiN4YTs8L3N2Zz4=;" parent="1" vertex="1">
          <mxGeometry x="1230" y="150" width="49" height="57" as="geometry" />
        </mxCell>
        <mxCell id="wG_c4dULW8k_WJfXNpnm-2086" value="" style="shape=image;verticalLabelPosition=bottom;labelBackgroundColor=#ffffff;verticalAlign=top;aspect=fixed;imageAspect=0;image=data:image/svg+xml,PHN2ZyB4bWxuczpjYz0iaHR0cDovL2NyZWF0aXZlY29tbW9ucy5vcmcvbnMjIiB4bWxuczpkYz0iaHR0cDovL3B1cmwub3JnL2RjL2VsZW1lbnRzLzEuMS8iIHhtbG5zOmlua3NjYXBlPSJodHRwOi8vd3d3Lmlua3NjYXBlLm9yZy9uYW1lc3BhY2VzL2lua3NjYXBlIiB4bWxuczpyZGY9Imh0dHA6Ly93d3cudzMub3JnLzE5OTkvMDIvMjItcmRmLXN5bnRheC1ucyMiIHhtbG5zOnNvZGlwb2RpPSJodHRwOi8vc29kaXBvZGkuc291cmNlZm9yZ2UubmV0L0RURC9zb2RpcG9kaS0wLmR0ZCIgeG1sbnM6c3ZnPSJodHRwOi8vd3d3LnczLm9yZy8yMDAwL3N2ZyIgeG1sbnM9Imh0dHA6Ly93d3cudzMub3JnLzIwMDAvc3ZnIiB4bWxuczp4bGluaz0iaHR0cDovL3d3dy53My5vcmcvMTk5OS94bGluayIgdmVyc2lvbj0iMS4xIiBpZD0ic3ZnMTQ0OTk0IiBpbmtzY2FwZTp2ZXJzaW9uPSIwLjkyLjMgKDI0MDU1NDYsIDIwMTgtMDMtMTEpIiBzb2RpcG9kaTpkb2NuYW1lPSJkbnMuc3ZnIiB4PSIwcHgiIHk9IjBweCIgdmlld0JveD0iMCAwIDcyLjAxIDcyLjAxIiBzdHlsZT0iZW5hYmxlLWJhY2tncm91bmQ6bmV3IDAgMCA3Mi4wMSA3Mi4wMTsiIHhtbDpzcGFjZT0icHJlc2VydmUiPiYjeGE7PHNvZGlwb2RpOm5hbWVkdmlldyBib3JkZXJjb2xvcj0iIzY2NjY2NiIgYm9yZGVyb3BhY2l0eT0iMSIgZml0LW1hcmdpbi1ib3R0b209IjAiIGZpdC1tYXJnaW4tbGVmdD0iMCIgZml0LW1hcmdpbi1yaWdodD0iMCIgZml0LW1hcmdpbi10b3A9IjAiIGdyaWR0b2xlcmFuY2U9IjEwIiBndWlkZXRvbGVyYW5jZT0iMTAiIGlkPSJuYW1lZHZpZXcxNDQ5OTYiIGlua3NjYXBlOmN1cnJlbnQtbGF5ZXI9InN2ZzE0NDk5NCIgaW5rc2NhcGU6Y3g9IjQ2LjE2MTYzMSIgaW5rc2NhcGU6Y3k9IjQ5Ljg0NzM4IiBpbmtzY2FwZTpwYWdlb3BhY2l0eT0iMCIgaW5rc2NhcGU6cGFnZXNoYWRvdz0iMiIgaW5rc2NhcGU6d2luZG93LWhlaWdodD0iMTAxNyIgaW5rc2NhcGU6d2luZG93LW1heGltaXplZD0iMSIgaW5rc2NhcGU6d2luZG93LXdpZHRoPSIxOTIwIiBpbmtzY2FwZTp3aW5kb3cteD0iLTgiIGlua3NjYXBlOndpbmRvdy15PSItOCIgaW5rc2NhcGU6em9vbT0iOC41MjU1MTY2IiBvYmplY3R0b2xlcmFuY2U9IjEwIiBwYWdlY29sb3I9IiNmZmZmZmYiIHNob3dncmlkPSJmYWxzZSI+JiN4YTsJPC9zb2RpcG9kaTpuYW1lZHZpZXc+JiN4YTs8ZyBpZD0iZzE0NDk5MiIgdHJhbnNmb3JtPSJ0cmFuc2xhdGUoLTMuNTE1LC0zLjUxMDMpIj4mI3hhOwk8dGl0bGUgaWQ9InRpdGxlMTQ0OTU3Ij5QYWdlLTE8L3RpdGxlPiYjeGE7CTxnIGlkPSJncm91cDgzMzItMSIgdHJhbnNmb3JtPSJ0cmFuc2xhdGUoMCwtMC43NSkiPiYjeGE7CQk8dGl0bGUgaWQ9InRpdGxlMTQ0OTU5Ij5ETlM8L3RpdGxlPiYjeGE7CQk8ZyBpZD0ic2hhcGU4MzMzLTIiIHRyYW5zZm9ybT0idHJhbnNsYXRlKDMuNTE1MzcpIj4mI3hhOwkJCTx0aXRsZSBpZD0idGl0bGUxNDQ5NjEiPlNoZWV0LjgzMzM8L3RpdGxlPiYjeGE7CQkJPGNpcmNsZSBpZD0iZWxsaXBzZTE0NDk2MyIgc3R5bGU9ImZpbGw6IzAwNzJDNjsiIGN4PSIzNiIgY3k9IjQwLjI3IiByPSIzNiIvPiYjeGE7CQk8L2c+JiN4YTsJCTxnIGlkPSJzaGFwZTgzMzQtNCIgdHJhbnNmb3JtPSJ0cmFuc2xhdGUoMCwtMTAuNTQ0NykiPiYjeGE7CQkJPHRpdGxlIGlkPSJ0aXRsZTE0NDk2NiI+U2hlZXQuODMzNDwvdGl0bGU+JiN4YTsJCQk8cGF0aCBpZD0icGF0aDE0NDk2OCIgaW5rc2NhcGU6Y29ubmVjdG9yLWN1cnZhdHVyZT0iMCIgc3R5bGU9ImZpbGw6I0ZGRkZGRjtmaWxsLW9wYWNpdHk6MC4yOyIgZD0iTTE0LjA2LDc2LjI3ICAgICBDMCw2Mi4yMSwwLDM5LjQxLDE0LjA2LDI1LjM1czM2Ljg2LTE0LjA2LDUwLjkyLDBMMTQuMDYsNzYuMjd6Ii8+JiN4YTsJCTwvZz4mI3hhOwkJPGcgaWQ9InNoYXBlODMzNS02IiB0cmFuc2Zvcm09InRyYW5zbGF0ZSg2LjM5NTY0LC0zLjAxODUyKSI+JiN4YTsJCQk8dGl0bGUgaWQ9InRpdGxlMTQ0OTcxIj5TaGVldC44MzM1PC90aXRsZT4mI3hhOwkJCTxwYXRoIGlkPSJwYXRoMTQ0OTczIiBpbmtzY2FwZTpjb25uZWN0b3ItY3VydmF0dXJlPSIwIiBzdHlsZT0iZmlsbDojRkZGRkZGO2ZpbGwtb3BhY2l0eTowLjg7IiBkPSJNNjYuMjUsNDMuMjggICAgIGMwLTcuNDItMi41Mi0xNC41Ny03LjE2LTIwLjRsLTAuMjYtMC4yN2MtMC4xNC0wLjEzLTAuMTQtMC4yNi0wLjI3LTAuNGwtMi4xMi0yLjI1Yy02LjIzLTYuMzYtMTQuNDQtOS44LTIzLjMyLTkuOCAgICAgYzAsMCwwLDAtMC4xMywwaC0wLjEzYy04Ljc1LDAuMTMtMTYuODMsMy40NC0yMy4wNiw5LjY3bC0yLjI1LDIuMzhjLTAuMTMsMC4xNC0wLjEzLDAuMjctMC4yNiwwLjRsLTAuMjcsMC4xMyAgICAgQzIuNTIsMjguNTcsMCwzNS44NiwwLDQzLjI4czIuNTIsMTQuNTcsNy4xNSwyMC40bDAuMjcsMC4yN2MwLjEzLDAuMTMsMC4xMywwLjI2LDAuMjYsMC40TDkuOCw2Ni42ICAgICBjNi4yMyw2LjIzLDE0LjMxLDkuNjcsMjMuMDYsOS42N2gwLjEzYzAsMCwwLDAsMC4xMywwYzguNzUsMCwxNy4wOS0zLjQ0LDIzLjMyLTkuNjdsMi4xMi0yLjM5YzAuMTMtMC4xMywwLjEzLTAuMjYsMC4yNy0wLjM5ICAgICBsMC4yNi0wLjI3QzYzLjczLDU3Ljk5LDY2LjI1LDUwLjcsNjYuMjUsNDMuMjh6IE01Mi44NiwyMS42OGMtMC4xMywwLTAuMjYsMC4xNC0wLjM5LDAuMTRjLTAuMjcsMC4xMy0wLjUzLDAuMjYtMC42NywwLjI2ICAgICBjLTAuNTMsMC4yNy0xLjE5LDAuNC0xLjg1LDAuNjZjLTAuMTMsMC0wLjI3LDAuMTQtMC40LDAuMTRjLTAuNzksMC4yNi0xLjQ2LDAuMzktMi4yNSwwLjY2Yy0wLjEzLDAtMC40LDAuMTMtMC41MywwLjEzICAgICBjLTEuMTktMy4xOC0yLjY1LTUuOTYtNC4zNy04LjA4QzQ2LjI0LDE2Ljc4LDQ5LjgyLDE4LjksNTIuODYsMjEuNjh6IE0zMi44NiwxNGgwLjEzYzMuNTgsMCw3LjI5LDMuODQsOS45NCwxMC40NyAgICAgYy0zLjA1LDAuNTMtNi4zNiwwLjc5LTkuODEsMC43OWMtMy40NCwwLTYuODktMC4yNi0xMC4wNy0wLjc5QzI1LjU3LDE3Ljk3LDI5LjI4LDE0LjEzLDMyLjg2LDE0eiBNMjMuNDUsMTUuNzIgICAgIGMtMS41OSwyLjEyLTMuMDUsNC43Ny00LjI0LDcuOTVjLTAuMTMsMC0wLjEzLDAtMC4yNiwwYy0wLjgtMC4yNi0xLjU5LTAuNC0yLjI2LTAuNjZjLTAuMTMsMC0wLjI2LTAuMTMtMC4zOS0wLjEzICAgICBjLTAuNTMtMC4yNy0xLjItMC41My0xLjczLTAuOGMtMC4yNi0wLjEzLTAuMzktMC4xMy0wLjY2LTAuMjZjLTAuMTMtMC4xNC0wLjI2LTAuMTQtMC41My0wLjI3ICAgICBDMTYuNDMsMTkuMDMsMTkuNzQsMTYuOTEsMjMuNDUsMTUuNzJ6IE0xMy4zOCw2NC44OGMwLjEzLDAsMC4yNy0wLjE0LDAuNC0wLjE0YzAuMjYtMC4xMywwLjQtMC4xMywwLjY2LTAuMjYgICAgIGMwLjUzLTAuMjcsMS4xOS0wLjQsMS44Ni0wLjY2YzAuMTMsMCwwLjI2LTAuMTQsMC4zOS0wLjE0YzAuOC0wLjI2LDEuNDYtMC4zOSwyLjI2LTAuNjZjMC4xMywwLDAuMTMsMCwwLjI2LDAgICAgIGMxLjE5LDMuMDUsMi42NSw1LjgzLDQuMjQsNy45NUMxOS43NCw2OS42NSwxNi4zLDY3LjUzLDEzLjM4LDY0Ljg4eiBNMzIuOTksNzIuNTZoLTAuMTNjLTMuNTgtMC4xMy03LjI5LTMuODQtOS44MS0xMC4zMyAgICAgYzMuMTgtMC41Myw2LjYzLTAuOCwxMC4wNy0wLjhjMy40NSwwLDYuNjMsMC4yNyw5LjgxLDAuOEM0MC40MSw2OC43MiwzNi41Nyw3Mi41NiwzMi45OSw3Mi41NnogTTQyLjQsNzAuOTcgICAgIGMxLjcyLTIuMTIsMy4xOC00LjksNC4zNy04LjA4YzAuMTMsMCwwLjQsMC4xMywwLjUzLDAuMTNjMC43OSwwLjI3LDEuNTksMC40LDIuMjUsMC42NmMwLjEzLDAsMC4yNywwLjE0LDAuNCwwLjE0ICAgICBjMC42NiwwLjI2LDEuMTksMC4zOSwxLjg1LDAuNjZjMC4yNywwLjEzLDAuNCwwLjEzLDAuNjcsMC4yNmMwLjEzLDAsMC4yNiwwLjE0LDAuNTMsMC4yN0M0OS44Miw2Ny42Niw0Ni4yNCw2OS43OCw0Mi40LDcwLjk3eiAgICAgIE01NS43OCw2MS44M2MtMC40LDAtMC42Ni0wLjEzLTEuMDYtMC4yN2MtMC40LTAuMTMtMC45My0wLjM5LTEuMzMtMC41M2MtMC4xMywwLTAuMjYtMC4xMy0wLjM5LTAuMTMgICAgIGMtMS41OS0wLjY2LTMuMzItMS4wNi01LjA0LTEuNTljMC40LTEuNTksMC44LTMuMTgsMS4wNi00Ljc3aC0zLjk3Yy0wLjI3LDEuNDYtMC41MywyLjc4LTAuOTMsMy45OCAgICAgYy0zLjQ0LTAuNjctNy4xNS0wLjkzLTExLTAuOTNjLTMuOTcsMC03LjY4LDAuNC0xMS4yNiwxLjA2Yy0wLjQtMS4zMy0wLjY2LTIuNjUtMC45My00LjExaC0zLjk3YzAuMjYsMS43MiwwLjY2LDMuMzEsMS4wNiw0LjkgICAgIGMtMS41OSwwLjQtMy4xOCwwLjkzLTQuNjQsMS40NmMtMC4xMywwLjEzLTAuNCwwLjEzLTAuNTMsMC4yN2MtMC40LDAuMTMtMC45MywwLjM5LTEuMzIsMC41M2MtMC4yNywwLTAuNjcsMC4xMy0wLjkzLDAuMjYgICAgIGMtMy45OC00Ljc3LTYuMjMtMTAuNzMtNi42My0xNi44M2gzLjMydi0zLjg0SDMuOTdjMC40LTYuMDksMi42NS0xMS45Miw2LjUtMTYuNTZsMC4xMy0wLjEzYzAuMjYsMC4xMywwLjY2LDAuMjYsMC45MywwLjQgICAgIGMwLjUzLDAuMjYsMC45MiwwLjM5LDEuNDUsMC42NmMwLjE0LDAsMC4yNywwLjEzLDAuNCwwLjEzYzEuNDYsMC41MywzLjA1LDEuMDYsNC43NywxLjQ2Yy0wLjQsMS40Ni0wLjY2LDIuOTEtMC45Myw0LjM3aDMuOTggICAgIGMwLjI2LTEuMTksMC41My0yLjUyLDAuNzktMy41OGMzLjU4LDAuNjcsNy40MiwxLjA2LDExLjI3LDEuMDZjMy44NCwwLDcuNTUtMC4zOSwxMC45OS0wLjkyYzAuMjcsMS4wNiwwLjUzLDIuMjUsMC44LDMuNTdoMy45NyAgICAgYy0wLjI2LTEuNDUtMC41My0yLjkxLTAuOTMtNC4zN2MxLjczLTAuNCwzLjMyLTAuOTMsNC45MS0xLjU5YzAuMTMsMCwwLjM5LTAuMTMsMC41My0wLjEzYzAuNTMtMC4xMywwLjkyLTAuNCwxLjQ1LTAuNTMgICAgIGMwLjI3LTAuMTMsMC42Ny0wLjI3LDAuOTMtMC40YzMuODQsNC43Nyw2LjIzLDEwLjYsNi42MywxNi43aC0zLjk4djMuODRoMy45OEM2MS44Nyw1MS4yMyw1OS42Miw1Ny4xOSw1NS43OCw2MS44M3oiLz4mI3hhOwkJPC9nPiYjeGE7CQk8ZyBpZD0ic2hhcGU4MzM2LTgiIHRyYW5zZm9ybT0idHJhbnNsYXRlKDE2Ljk3OTIsLTI3LjQwNDMpIj4mI3hhOwkJCTx0aXRsZSBpZD0idGl0bGUxNDQ5NzYiPlNoZWV0LjgzMzY8L3RpdGxlPiYjeGE7CQkJPHBhdGggaWQ9InBhdGgxNDQ5NzgiIGlua3NjYXBlOmNvbm5lY3Rvci1jdXJ2YXR1cmU9IjAiIHN0eWxlPSJmaWxsOiNGRkZGRkY7IiBkPSJNMTQuMjIsNjcuNDZjMCwxLjU3LTAuMjEsMi45Mi0wLjYyLDQuMDMgICAgIGMtMC40MSwxLjEyLTEsMi4wMy0xLjc2LDIuNzNjLTAuNzcsMC43MS0xLjcsMS4yMy0yLjgsMS41NmMtMS4xLDAuMzMtMi40MSwwLjQ5LTMuOTIsMC40OUgxLjAzYy0wLjI5LDAtMC41NC0wLjA5LTAuNzMtMC4yNiAgICAgQzAuMSw3NS44NCwwLDc1LjU2LDAsNzUuMTdWNjAuMjVjMC0wLjM4LDAuMS0wLjY2LDAuMy0wLjgzYzAuMi0wLjE4LDAuNDQtMC4yNiwwLjczLTAuMjZoNC4zOWMxLjUzLDAsMi44MiwwLjE4LDMuODgsMC41MyAgICAgYzEuMDcsMC4zNiwxLjk2LDAuODksMi42OSwxLjU5czEuMjgsMS41NywxLjY2LDIuNlMxNC4yMiw2Ni4xMSwxNC4yMiw2Ny40NnogTTEwLjYyLDY3LjU4YzAtMC44MS0wLjA5LTEuNTYtMC4yOC0yLjI2ICAgICBjLTAuMTktMC43LTAuNS0xLjMtMC45Mi0xLjgxQzksNjMsOC40Nyw2Mi42LDcuODEsNjIuMzFjLTAuNjYtMC4yOS0xLjUyLTAuNDMtMi41OS0wLjQzSDMuNDZ2MTEuNjRoMS44MiAgICAgYzAuOTUsMCwxLjc1LTAuMTIsMi40LTAuMzdjMC42Ni0wLjI1LDEuMi0wLjYyLDEuNjQtMS4xMmMwLjQzLTAuNSwwLjc2LTEuMTIsMC45OC0xLjg2QzEwLjUxLDY5LjQzLDEwLjYyLDY4LjU3LDEwLjYyLDY3LjU4eiIvPiYjeGE7CQk8L2c+JiN4YTsJCTxnIGlkPSJzaGFwZTgzMzctMTAiIHRyYW5zZm9ybT0idHJhbnNsYXRlKDM0LjA1MiwtMjcuMzI1MSkiPiYjeGE7CQkJPHRpdGxlIGlkPSJ0aXRsZTE0NDk4MSI+U2hlZXQuODMzNzwvdGl0bGU+JiN4YTsJCQk8cGF0aCBpZD0icGF0aDE0NDk4MyIgaW5rc2NhcGU6Y29ubmVjdG9yLWN1cnZhdHVyZT0iMCIgc3R5bGU9ImZpbGw6I0ZGRkZGRjsiIGQ9Ik0xNC4xMSw3NC45OGMwLDAuMi0wLjAzLDAuMzgtMC4xLDAuNTQgICAgIGMtMC4wNywwLjE2LTAuMTcsMC4yOS0wLjI5LDAuNGMtMC4xMSwwLjEtMC4yNiwwLjE4LTAuNDIsMC4yM3MtMC4zMywwLjA3LTAuNSwwLjA3aC0xLjQ4Yy0wLjMxLDAtMC41Ny0wLjAzLTAuOC0wLjA5ICAgICBjLTAuMjItMC4wNi0wLjQzLTAuMTgtMC42Mi0wLjM0Yy0wLjE5LTAuMTYtMC4zNy0wLjM4LTAuNTUtMC42NmMtMC4xNy0wLjI4LTAuMzctMC42NC0wLjU5LTEuMDhsLTQuMjYtOCAgICAgYy0wLjI1LTAuNDgtMC41LTAuOTktMC43NS0xLjU0Yy0wLjI2LTAuNTUtMC40OS0xLjA5LTAuNjktMS42MUgzLjAzYzAuMDQsMC42NCwwLjA2LDEuMjcsMC4wOCwxLjkgICAgIGMwLjAyLDAuNjMsMC4wMywxLjI4LDAuMDMsMS45NXY4Ljk1YzAsMC4wOS0wLjAzLDAuMTctMC4wOCwwLjI0cy0wLjEzLDAuMTMtMC4yNSwwLjE4cy0wLjI4LDAuMDktMC40OCwwLjExICAgICBjLTAuMiwwLjAzLTAuNDcsMC4wNC0wLjc4LDAuMDRzLTAuNTctMC4wMS0wLjc3LTAuMDRzLTAuMzYtMC4wNi0wLjQ3LTAuMTFjLTAuMTItMC4wNS0wLjItMC4xMS0wLjI0LTAuMTggICAgIEMwLjAyLDc1Ljg3LDAsNzUuNzksMCw3NS43VjYwLjMyYzAtMC40MSwwLjEyLTAuNzIsMC4zNi0wLjkzczAuNTQtMC4zMSwwLjktMC4zMWgxLjg2YzAuMzMsMCwwLjYyLDAuMDIsMC44NSwwLjA4ICAgICBzMC40MywwLjE1LDAuNjEsMC4yOWMwLjE4LDAuMTMsMC4zNSwwLjMxLDAuNTEsMC41NWMwLjE2LDAuMjMsMC4zMiwwLjUyLDAuNDksMC44NmwzLjMzLDYuMjZjMC4xOSwwLjM4LDAuMzksMC43NSwwLjU4LDEuMTIgICAgIGMwLjE5LDAuMzYsMC4zNywwLjczLDAuNTUsMS4xYzAuMTcsMC4zNiwwLjM0LDAuNzIsMC41MSwxLjA3YzAuMTcsMC4zNiwwLjMzLDAuNzEsMC40OSwxLjA2aDAuMDEgICAgIGMtMC4wMi0wLjYyLTAuMDQtMS4yNi0wLjA2LTEuOTNjLTAuMDEtMC42Ny0wLjAxLTEuMzEtMC4wMS0xLjkydi04LjAzYzAtMC4wOCwwLjAyLTAuMTYsMC4wNy0wLjI0ICAgICBjMC4wNS0wLjA3LDAuMTQtMC4xMywwLjI3LTAuMThjMC4xMi0wLjA1LDAuMjgtMC4wOSwwLjQ5LTAuMTFjMC4yLTAuMDIsMC40Ni0wLjAzLDAuNzgtMC4wM2MwLjMsMCwwLjU1LDAuMDEsMC43NSwwLjAzICAgICBzMC4zNiwwLjA2LDAuNDcsMC4xMWMwLjExLDAuMDUsMC4xOSwwLjExLDAuMjMsMC4xOGMwLjA1LDAuMDgsMC4wNywwLjE1LDAuMDcsMC4yNEwxNC4xMSw3NC45OHoiLz4mI3hhOwkJPC9nPiYjeGE7CQk8ZyBpZD0ic2hhcGU4MzM4LTEyIiB0cmFuc2Zvcm09InRyYW5zbGF0ZSg1MC44NjQxLC0yNy4xMDA1KSI+JiN4YTsJCQk8dGl0bGUgaWQ9InRpdGxlMTQ0OTg2Ij5TaGVldC44MzM4PC90aXRsZT4mI3hhOwkJCTxwYXRoIGlkPSJwYXRoMTQ0OTg4IiBpbmtzY2FwZTpjb25uZWN0b3ItY3VydmF0dXJlPSIwIiBzdHlsZT0iZmlsbDojRkZGRkZGOyIgZD0iTTExLjE4LDcwLjg0YzAsMC45LTAuMTcsMS42OC0wLjUsMi4zNiAgICAgYy0wLjM0LDAuNjgtMC43OSwxLjI1LTEuMzcsMS43Yy0wLjU3LDAuNDYtMS4yNCwwLjgtMi4wMSwxLjAzYy0wLjc2LDAuMjMtMS41OSwwLjM0LTIuNDYsMC4zNGMtMC41OSwwLTEuMTQtMC4wNS0xLjY0LTAuMTQgICAgIGMtMC41MS0wLjEtMC45Ni0wLjIyLTEuMzUtMC4zNWMtMC4zOS0wLjE0LTAuNzEtMC4yOC0wLjk3LTAuNDRjLTAuMjYtMC4xNS0wLjQ1LTAuMjgtMC41Ni0wLjM5Yy0wLjEyLTAuMTItMC4yLTAuMjgtMC4yNS0wLjUgICAgIEMwLjAzLDc0LjI0LDAsNzMuOTIsMCw3My41MmMwLTAuMjgsMC4wMS0wLjUsMC4wMy0wLjY5YzAuMDEtMC4xOCwwLjA0LTAuMzMsMC4wOC0wLjQ1YzAuMDQtMC4xMSwwLjEtMC4xOSwwLjE2LTAuMjQgICAgIGMwLjA3LTAuMDUsMC4xNC0wLjA4LDAuMjMtMC4wOGMwLjEzLDAsMC4zLDAuMDgsMC41MywwLjIyYzAuMjIsMC4xNSwwLjUxLDAuMzEsMC44NiwwLjQ4YzAuMzYsMC4xOCwwLjc4LDAuMzQsMS4yNywwLjQ5ICAgICBjMC40OCwwLjE0LDEuMDUsMC4yMiwxLjY5LDAuMjJjMC40MywwLDAuODEtMC4wNiwxLjE0LTAuMTZjMC4zNC0wLjEsMC42Mi0wLjI0LDAuODUtMC40M2MwLjI0LTAuMTgsMC40MS0wLjQxLDAuNTQtMC42OCAgICAgYzAuMTItMC4yOCwwLjE5LTAuNTgsMC4xOS0wLjkyYzAtMC4zOS0wLjExLTAuNzItMC4zMi0xYy0wLjIxLTAuMjctMC40OS0wLjUyLTAuODMtMC43NGMtMC4zNC0wLjIxLTAuNzMtMC40Mi0xLjE2LTAuNjEgICAgIGMtMC40My0wLjE5LTAuODgtMC4zOS0xLjMzLTAuNmMtMC40Ni0wLjIxLTAuOTEtMC40NS0xLjM0LTAuNzJjLTAuNDMtMC4yNy0wLjgyLTAuNTktMS4xNS0wLjk3Yy0wLjM0LTAuMzctMC42Mi0wLjgxLTAuODMtMS4zMyAgICAgYy0wLjIyLTAuNTEtMC4zMi0xLjEyLTAuMzItMS44M2MwLTAuODIsMC4xNS0xLjU1LDAuNDYtMi4xN2MwLjMtMC42MiwwLjcxLTEuMTMsMS4yMy0xLjU1YzAuNTEtMC40MSwxLjEyLTAuNzEsMS44Mi0wLjkxICAgICBjMC43LTAuMjEsMS40NS0wLjMxLDIuMjMtMC4zMWMwLjQxLDAsMC44MSwwLjAzLDEuMjIsMC4wOWMwLjQsMC4wNywwLjc4LDAuMTUsMS4xMywwLjI2YzAuMzUsMC4xLDAuNjcsMC4yMiwwLjk0LDAuMzUgICAgIGMwLjI4LDAuMTQsMC40NiwwLjI0LDAuNTQsMC4zM2MwLjA5LDAuMDksMC4xNSwwLjE3LDAuMTgsMC4yM2MwLjAzLDAuMDYsMC4wNiwwLjE0LDAuMDgsMC4yNGMwLjAyLDAuMTEsMC4wNCwwLjIzLDAuMDUsMC4zOSAgICAgYzAsMC4xNSwwLjAxLDAuMzQsMC4wMSwwLjU3YzAsMC4yNi0wLjAxLDAuNDgtMC4wMiwwLjY1Yy0wLjAxLDAuMTgtMC4wNCwwLjMyLTAuMDcsMC40NGMtMC4wMywwLjExLTAuMDcsMC4yLTAuMTMsMC4yNSAgICAgcy0wLjEzLDAuMDgtMC4yMywwLjA4Yy0wLjEsMC0wLjI1LTAuMDYtMC40Ni0wLjE4Yy0wLjIyLTAuMTMtMC40OC0wLjI2LTAuNzgtMC40MWMtMC4zMS0wLjE0LTAuNjctMC4yOC0xLjA3LTAuNCAgICAgYy0wLjQxLTAuMTItMC44Ni0wLjE4LTEuMzQtMC4xOGMtMC4zOCwwLTAuNzEsMC4wNS0wLjk5LDAuMTRjLTAuMjgsMC4xLTAuNTIsMC4yMi0wLjcxLDAuMzljLTAuMTksMC4xNi0wLjMzLDAuMzYtMC40MiwwLjU5ICAgICBjLTAuMDksMC4yMy0wLjE0LDAuNDctMC4xNCwwLjcyYzAsMC4zOCwwLjEsMC43MSwwLjMxLDAuOTljMC4yMSwwLjI4LDAuNDksMC41MiwwLjgzLDAuNzRjMC4zNSwwLjIyLDAuNzUsMC40MiwxLjE5LDAuNjEgICAgIHMwLjg5LDAuMzksMS4zNSwwLjZzMC45MSwwLjQ1LDEuMzUsMC43MmMwLjQ0LDAuMjcsMC44MywwLjU5LDEuMTgsMC45N2MwLjM0LDAuMzcsMC42MiwwLjgxLDAuODMsMS4zMlMxMS4xOCw3MC4xNSwxMS4xOCw3MC44NHogICAgICIvPiYjeGE7CQk8L2c+JiN4YTsJPC9nPiYjeGE7PC9nPiYjeGE7PC9zdmc+;" parent="1" vertex="1">
          <mxGeometry x="247" y="325" width="50" height="50" as="geometry" />
        </mxCell>
        <mxCell id="wG_c4dULW8k_WJfXNpnm-2087" value="" style="shape=image;verticalLabelPosition=bottom;labelBackgroundColor=#ffffff;verticalAlign=top;aspect=fixed;imageAspect=0;image=data:image/svg+xml,PHN2ZyB4bWxuczpjYz0iaHR0cDovL2NyZWF0aXZlY29tbW9ucy5vcmcvbnMjIiB4bWxuczpkYz0iaHR0cDovL3B1cmwub3JnL2RjL2VsZW1lbnRzLzEuMS8iIHhtbG5zOmlua3NjYXBlPSJodHRwOi8vd3d3Lmlua3NjYXBlLm9yZy9uYW1lc3BhY2VzL2lua3NjYXBlIiB4bWxuczpyZGY9Imh0dHA6Ly93d3cudzMub3JnLzE5OTkvMDIvMjItcmRmLXN5bnRheC1ucyMiIHhtbG5zOnNvZGlwb2RpPSJodHRwOi8vc29kaXBvZGkuc291cmNlZm9yZ2UubmV0L0RURC9zb2RpcG9kaS0wLmR0ZCIgeG1sbnM6c3ZnPSJodHRwOi8vd3d3LnczLm9yZy8yMDAwL3N2ZyIgeG1sbnM9Imh0dHA6Ly93d3cudzMub3JnLzIwMDAvc3ZnIiB4bWxuczp4bGluaz0iaHR0cDovL3d3dy53My5vcmcvMTk5OS94bGluayIgdmVyc2lvbj0iMS4xIiBpZD0ic3ZnNTU1OCIgaW5rc2NhcGU6dmVyc2lvbj0iMC45Mi4zICgyNDA1NTQ2LCAyMDE4LTAzLTExKSIgc29kaXBvZGk6ZG9jbmFtZT0idXNiLnN2ZyIgeD0iMHB4IiB5PSIwcHgiIHZpZXdCb3g9IjAgMCAzMCAzMS41NSIgc3R5bGU9ImVuYWJsZS1iYWNrZ3JvdW5kOm5ldyAwIDAgMzAgMzEuNTU7IiB4bWw6c3BhY2U9InByZXNlcnZlIj4mI3hhOzxzb2RpcG9kaTpuYW1lZHZpZXcgYm9yZGVyY29sb3I9IiM2NjY2NjYiIGJvcmRlcm9wYWNpdHk9IjEiIGZpdC1tYXJnaW4tYm90dG9tPSIwIiBmaXQtbWFyZ2luLWxlZnQ9IjAiIGZpdC1tYXJnaW4tcmlnaHQ9IjAiIGZpdC1tYXJnaW4tdG9wPSIwIiBncmlkdG9sZXJhbmNlPSIxMCIgZ3VpZGV0b2xlcmFuY2U9IjEwIiBpZD0ibmFtZWR2aWV3NTU2MCIgaW5rc2NhcGU6Y3VycmVudC1sYXllcj0ic3ZnNTU1OCIgaW5rc2NhcGU6Y3g9IjE5Ljk5NDQ0MSIgaW5rc2NhcGU6Y3k9IjIxLjAyOTY0MSIgaW5rc2NhcGU6cGFnZW9wYWNpdHk9IjAiIGlua3NjYXBlOnBhZ2VzaGFkb3c9IjIiIGlua3NjYXBlOndpbmRvdy1oZWlnaHQ9IjEwMTciIGlua3NjYXBlOndpbmRvdy1tYXhpbWl6ZWQ9IjEiIGlua3NjYXBlOndpbmRvdy13aWR0aD0iMTkyMCIgaW5rc2NhcGU6d2luZG93LXg9Ii04IiBpbmtzY2FwZTp3aW5kb3cteT0iLTgiIGlua3NjYXBlOnpvb209IjE5LjY3NjM5OCIgb2JqZWN0dG9sZXJhbmNlPSIxMCIgcGFnZWNvbG9yPSIjZmZmZmZmIiBzaG93Z3JpZD0iZmFsc2UiPiYjeGE7CTwvc29kaXBvZGk6bmFtZWR2aWV3PiYjeGE7PGcgaWQ9Imc1NTU2IiB0cmFuc2Zvcm09InRyYW5zbGF0ZSgtMC43NTQxNjkxNSwtMC43NDc2KSI+JiN4YTsJPHRpdGxlIGlkPSJ0aXRsZTU1MDMiPlBhZ2UtMTwvdGl0bGU+JiN4YTsJPGcgaWQ9Imdyb3VwOTQxNy0xIiB0cmFuc2Zvcm09InRyYW5zbGF0ZSgwLjc1LC0wLjc1KSI+JiN4YTsJCTx0aXRsZSBpZD0idGl0bGU1NTA1Ij5VU0I8L3RpdGxlPiYjeGE7CQk8ZyBpZD0ic2hhcGU5NDE4LTIiIHRyYW5zZm9ybT0idHJhbnNsYXRlKDE2LjA1OTYsLTE1LjM3NjIpIj4mI3hhOwkJCTx0aXRsZSBpZD0idGl0bGU1NTA3Ij5wb2x5Z29uNDk3MjwvdGl0bGU+JiN4YTsJCQk8cGF0aCBpZD0icGF0aDU1MDkiIGlua3NjYXBlOmNvbm5lY3Rvci1jdXJ2YXR1cmU9IjAiIHN0eWxlPSJmaWxsOiM0MTQwNDI7IiBkPSJNMCwyNS40NWw3LjYsNy42bDYuMzQtNi4zNGwtMC4wMS0xLjY5ICAgICBsLTYuODctNi42M0wwLDI1LjQ1eiIvPiYjeGE7CQk8L2c+JiN4YTsJCTxnIGlkPSJncm91cDk0MTktNCIgdHJhbnNmb3JtPSJ0cmFuc2xhdGUoMTQuMjUxMywtMTUuODAyNCkiPiYjeGE7CQkJPHRpdGxlIGlkPSJ0aXRsZTU1MTIiPmc0OTc4PC90aXRsZT4mI3hhOwkJCTxnIGlkPSJzaGFwZTk0MjAtNSI+JiN4YTsJCQkJPHRpdGxlIGlkPSJ0aXRsZTU1MTQiPnBhdGg0OTc0PC90aXRsZT4mI3hhOwkJCQk8cGF0aCBpZD0icGF0aDU1MTYiIGlua3NjYXBlOmNvbm5lY3Rvci1jdXJ2YXR1cmU9IjAiIHN0eWxlPSJmaWxsOiM2RDZFNzE7IiBkPSJNOC4xNCwzMy4wNUwwLDI0LjlsNy42LTcuNmw4LjE0LDguMTUgICAgICBMOC4xNCwzMy4wNXoiLz4mI3hhOwkJCTwvZz4mI3hhOwkJCTxnIGlkPSJzaGFwZTk0MjEtNyIgdHJhbnNmb3JtPSJyb3RhdGUoLTQ1LDIuNzYzMjUwMiwyMi42Nzc2NzQpIj4mI3hhOwkJCQk8dGl0bGUgaWQ9InRpdGxlNTUxOSI+cmVjdDQ5NzY8L3RpdGxlPiYjeGE7CQkJCSYjeGE7CQkJCQk8cmVjdCBpZD0icmVjdDU1MjEiIHg9IjAiIHk9IjIzLjA3IiB0cmFuc2Zvcm09Im1hdHJpeCgtMSAyLjUzNTE4MmUtMDYgLTIuNTM1MTgyZS0wNiAtMSA5LjIxNDMgNTYuMTEyMykiIHN0eWxlPSJmaWxsOiNCQ0JFQzA7IiB3aWR0aD0iOS4yMSIgaGVpZ2h0PSI5Ljk4Ii8+JiN4YTsJCQk8L2c+JiN4YTsJCTwvZz4mI3hhOwkJPGcgaWQ9InNoYXBlOTQyMi05IiB0cmFuc2Zvcm09InJvdGF0ZSg0NSw0MS4xNzE0ODMsNDQuMjEwMDg2KSI+JiN4YTsJCQk8dGl0bGUgaWQ9InRpdGxlNTUyNSI+cmVjdDQ5ODA8L3RpdGxlPiYjeGE7CQkJJiN4YTsJCQkJPHJlY3QgaWQ9InJlY3Q1NTI3IiB4PSItMC43NyIgeT0iMzAuNzQiIHRyYW5zZm9ybT0ibWF0cml4KDIuNTM1MTgyZS0wNiAxIC0xIDIuNTM1MTgyZS0wNiAzMi4yNzk0IDMwLjc0MzYpIiBzdHlsZT0iZmlsbDojNDE0MDQyOyIgd2lkdGg9IjMuMDciIGhlaWdodD0iMS41NCIvPiYjeGE7CQk8L2c+JiN4YTsJCTxnIGlkPSJzaGFwZTk0MjMtMTEiIHRyYW5zZm9ybT0icm90YXRlKDQ1LDM4Ljg3Mjg1Niw0OS43NjY0NjQpIj4mI3hhOwkJCTx0aXRsZSBpZD0idGl0bGU1NTMwIj5yZWN0NDk4MjwvdGl0bGU+JiN4YTsJCQkmI3hhOwkJCQk8cmVjdCBpZD0icmVjdDU1MzIiIHg9Ii0wLjc3IiB5PSIzMC43NCIgdHJhbnNmb3JtPSJtYXRyaXgoMi41MzUxODJlLTA2IDEgLTEgMi41MzUxODJlLTA2IDMyLjI3OTQgMzAuNzQzNikiIHN0eWxlPSJmaWxsOiM0MTQwNDI7IiB3aWR0aD0iMy4wNyIgaGVpZ2h0PSIxLjU0Ii8+JiN4YTsJCTwvZz4mI3hhOwkJPGcgaWQ9InNoYXBlOTQyNC0xMyI+JiN4YTsJCQk8dGl0bGUgaWQ9InRpdGxlNTUzNSI+cGF0aDQ5ODQ8L3RpdGxlPiYjeGE7CQkJPHBhdGggaWQ9InBhdGg1NTM3IiBpbmtzY2FwZTpjb25uZWN0b3ItY3VydmF0dXJlPSIwIiBzdHlsZT0iZmlsbDojNDE0MDQyOyIgZD0iTTI2Ljg4LDE1LjM3bC0xMS05LjA3TDAuNjgsMjEuNTEgICAgIGMtMC45LDAuOS0wLjksMi4zNiwwLDMuMjZjMCwwLDAsMCwwLDBsNy42LDcuNmMwLjksMC45LDIuMzYsMC45LDMuMjYsMGMwLDAsMCwwLDAsMGwxNS4zNC0xNS4wOFYxNS4zN3oiLz4mI3hhOwkJPC9nPiYjeGE7CQk8ZyBpZD0ic2hhcGU5NDI1LTE1IiB0cmFuc2Zvcm09InRyYW5zbGF0ZSgwLC0xLjUzNTcxKSI+JiN4YTsJCQk8dGl0bGUgaWQ9InRpdGxlNTU0MCI+cGF0aDQ5ODY8L3RpdGxlPiYjeGE7CQkJPHBhdGggaWQ9InBhdGg1NTQyIiBpbmtzY2FwZTpjb25uZWN0b3ItY3VydmF0dXJlPSIwIiBzdHlsZT0iZmlsbDojNkQ2RTcxOyIgZD0iTTE2LjEzLDYuMTVMMC42OCwyMS41MWMtMC45LDAuOS0wLjksMi4zNiwwLDMuMjYgICAgIGMwLDAsMCwwLDAsMGw3LjYsNy42YzAuOSwwLjksMi4zNiwwLjksMy4yNiwwYzAsMCwwLDAsMCwwTDI2Ljg4LDE2LjlMMTYuMTMsNi4xNXoiLz4mI3hhOwkJPC9nPiYjeGE7CQk8ZyBpZD0ic2hhcGU5NDI2LTE3IiB0cmFuc2Zvcm09InJvdGF0ZSg0NSwxNi4zNjkwMjYsMzAuNjczMDUyKSI+JiN4YTsJCQk8dGl0bGUgaWQ9InRpdGxlNTU0NSI+cmVjdDQ5ODg8L3RpdGxlPiYjeGE7CQkJJiN4YTsJCQkJPHJlY3QgaWQ9InJlY3Q1NTQ3IiB4PSI0LjgiIHk9IjI3LjEiIHRyYW5zZm9ybT0ibWF0cml4KDIuNTM1MTgyZS0wNiAxIC0xIDIuNTM1MTgyZS0wNiAzNy44NDYzIDI3LjA5NjIpIiBzdHlsZT0iZmlsbDojQkFEODBBOyIgd2lkdGg9IjEuMTUiIGhlaWdodD0iMTAuNzUiLz4mI3hhOwkJPC9nPiYjeGE7CQk8ZyBpZD0ic2hhcGU5NDI3LTE5IiB0cmFuc2Zvcm09InJvdGF0ZSg0NSwyMC4wNzk0NTUsMzIuMjExNjMzKSI+JiN4YTsJCQk8dGl0bGUgaWQ9InRpdGxlNTU1MCI+cmVjdDQ5OTA8L3RpdGxlPiYjeGE7CQkJJiN4YTsJCQkJPHJlY3QgaWQ9InJlY3Q1NTUyIiB4PSI0LjgiIHk9IjI3LjEiIHRyYW5zZm9ybT0ibWF0cml4KDIuNTM1MTgyZS0wNiAxIC0xIDIuNTM1MTgyZS0wNiAzNy44NDYzIDI3LjA5NjIpIiBzdHlsZT0iZmlsbDojQkFEODBBOyIgd2lkdGg9IjEuMTUiIGhlaWdodD0iMTAuNzUiLz4mI3hhOwkJPC9nPiYjeGE7CTwvZz4mI3hhOzwvZz4mI3hhOzwvc3ZnPg==;" parent="1" vertex="1">
          <mxGeometry x="1230" y="325" width="30" height="32" as="geometry" />
        </mxCell>
        <mxCell id="wG_c4dULW8k_WJfXNpnm-2088" value="" style="shape=image;verticalLabelPosition=bottom;labelBackgroundColor=#ffffff;verticalAlign=top;aspect=fixed;imageAspect=0;image=data:image/svg+xml,PHN2ZyB4bWxuczpjYz0iaHR0cDovL2NyZWF0aXZlY29tbW9ucy5vcmcvbnMjIiB4bWxuczpkYz0iaHR0cDovL3B1cmwub3JnL2RjL2VsZW1lbnRzLzEuMS8iIHhtbG5zOmlua3NjYXBlPSJodHRwOi8vd3d3Lmlua3NjYXBlLm9yZy9uYW1lc3BhY2VzL2lua3NjYXBlIiB4bWxuczpyZGY9Imh0dHA6Ly93d3cudzMub3JnLzE5OTkvMDIvMjItcmRmLXN5bnRheC1ucyMiIHhtbG5zOnNvZGlwb2RpPSJodHRwOi8vc29kaXBvZGkuc291cmNlZm9yZ2UubmV0L0RURC9zb2RpcG9kaS0wLmR0ZCIgeG1sbnM6c3ZnPSJodHRwOi8vd3d3LnczLm9yZy8yMDAwL3N2ZyIgeG1sbnM9Imh0dHA6Ly93d3cudzMub3JnLzIwMDAvc3ZnIiB4bWxuczp4bGluaz0iaHR0cDovL3d3dy53My5vcmcvMTk5OS94bGluayIgdmVyc2lvbj0iMS4xIiBpZD0ic3ZnNDkxMzUiIGlua3NjYXBlOnZlcnNpb249IjAuOTIuMyAoMjQwNTU0NiwgMjAxOC0wMy0xMSkiIHNvZGlwb2RpOmRvY25hbWU9Impzb24uc3ZnIiB4PSIwcHgiIHk9IjBweCIgdmlld0JveD0iMCAwIDI2LjcyIDM1LjE1IiBzdHlsZT0iZW5hYmxlLWJhY2tncm91bmQ6bmV3IDAgMCAyNi43MiAzNS4xNTsiIHhtbDpzcGFjZT0icHJlc2VydmUiPiYjeGE7PHNvZGlwb2RpOm5hbWVkdmlldyBib3JkZXJjb2xvcj0iIzY2NjY2NiIgYm9yZGVyb3BhY2l0eT0iMSIgZml0LW1hcmdpbi1ib3R0b209IjAiIGZpdC1tYXJnaW4tbGVmdD0iMCIgZml0LW1hcmdpbi1yaWdodD0iMCIgZml0LW1hcmdpbi10b3A9IjAiIGdyaWR0b2xlcmFuY2U9IjEwIiBndWlkZXRvbGVyYW5jZT0iMTAiIGlkPSJuYW1lZHZpZXc0OTEzNyIgaW5rc2NhcGU6Y3VycmVudC1sYXllcj0ic3ZnNDkxMzUiIGlua3NjYXBlOmN4PSIxNy44MTIxNTYiIGlua3NjYXBlOmN5PSIyMy40MzU4OTYiIGlua3NjYXBlOnBhZ2VvcGFjaXR5PSIwIiBpbmtzY2FwZTpwYWdlc2hhZG93PSIyIiBpbmtzY2FwZTp3aW5kb3ctaGVpZ2h0PSIxMDE3IiBpbmtzY2FwZTp3aW5kb3ctbWF4aW1pemVkPSIxIiBpbmtzY2FwZTp3aW5kb3ctd2lkdGg9IjE5MjAiIGlua3NjYXBlOndpbmRvdy14PSItOCIgaW5rc2NhcGU6d2luZG93LXk9Ii04IiBpbmtzY2FwZTp6b29tPSIxMS40MDYwODkiIG9iamVjdHRvbGVyYW5jZT0iMTAiIHBhZ2Vjb2xvcj0iI2ZmZmZmZiIgc2hvd2dyaWQ9ImZhbHNlIj4mI3hhOwk8L3NvZGlwb2RpOm5hbWVkdmlldz4mI3hhOzxnIGlkPSJnNDkxMzMiIHRyYW5zZm9ybT0idHJhbnNsYXRlKC0xMC45Mjg2LC0xMC45MzE0KSI+JiN4YTsJPHRpdGxlIGlkPSJ0aXRsZTQ5MDYxIj5QYWdlLTE8L3RpdGxlPiYjeGE7CTxnIGlkPSJncm91cDM5ODgtMSIgdHJhbnNmb3JtPSJ0cmFuc2xhdGUoMTAuOTI4NiwtMTAuOTI4NikiPiYjeGE7CQk8dGl0bGUgaWQ9InRpdGxlNDkwNjMiPkpTT04uMjY2PC90aXRsZT4mI3hhOwkJPGcgaWQ9Imdyb3VwMzk4OS0yIj4mI3hhOwkJCTx0aXRsZSBpZD0idGl0bGU0OTA2NSI+SlM8L3RpdGxlPiYjeGE7CQkJPGcgaWQ9Imdyb3VwMzk5MC0zIj4mI3hhOwkJCQk8dGl0bGUgaWQ9InRpdGxlNDkwNjciPlNoZWV0LjM5OTA8L3RpdGxlPiYjeGE7CQkJCTxnIGlkPSJzaGFwZTM5OTEtNCI+JiN4YTsJCQkJCTx0aXRsZSBpZD0idGl0bGU0OTA2OSI+U2hlZXQuMzk5MTwvdGl0bGU+JiN4YTsJCQkJCTxwYXRoIGlkPSJwYXRoNDkwNzEiIGlua3NjYXBlOmNvbm5lY3Rvci1jdXJ2YXR1cmU9IjAiIHN0eWxlPSJmaWxsOiNFOUU5RTA7IiBkPSJNMTguOTQsMjEuODZIMC45MWMtMC41LDAtMC45MSwwLjQxLTAuOTEsMS4yMSAgICAgICB2MzMuMzFjMCwwLjIyLDAuNDEsMC42MywwLjkxLDAuNjNoMjQuOWMwLjUsMCwwLjkxLTAuNDEsMC45MS0wLjYzVjMwYzAtMC40My0wLjA2LTAuNTctMC4xNi0wLjY4bC03LjIzLTcuMyAgICAgICBDMTkuMjMsMjEuOTIsMTkuMDksMjEuODYsMTguOTQsMjEuODZ6Ii8+JiN4YTsJCQkJPC9nPiYjeGE7CQkJCTxnIGlkPSJzaGFwZTM5OTItNiIgdHJhbnNmb3JtPSJ0cmFuc2xhdGUoMTkuMjYyLC0yNy42MTkzKSI+JiN4YTsJCQkJCTx0aXRsZSBpZD0idGl0bGU0OTA3NCI+U2hlZXQuMzk5MjwvdGl0bGU+JiN4YTsJCQkJCTxwYXRoIGlkPSJwYXRoNDkwNzYiIGlua3NjYXBlOmNvbm5lY3Rvci1jdXJ2YXR1cmU9IjAiIHN0eWxlPSJmaWxsOiNEOUQ3Q0E7IiBkPSJNMCw0OS41N3Y3LjQ0aDcuMzZMMCw0OS41N3oiLz4mI3hhOwkJCQk8L2c+JiN4YTsJCQkJPGcgaWQ9InNoYXBlMzk5My04Ij4mI3hhOwkJCQkJPHRpdGxlIGlkPSJ0aXRsZTQ5MDc5Ij5TaGVldC4zOTkzPC90aXRsZT4mI3hhOwkJCQkJPHBhdGggaWQ9InBhdGg0OTA4MSIgaW5rc2NhcGU6Y29ubmVjdG9yLWN1cnZhdHVyZT0iMCIgc3R5bGU9ImZpbGw6I0U5QUM0NzsiIGQ9Ik0yNS44MSw1Ny4wMUgwLjkxQzAuNDEsNTcuMDEsMCw1Ni42LDAsNTYuMDkgICAgICAgdi05Ljc1aDI2LjcydjkuNzVDMjYuNzIsNTYuNiwyNi4zMSw1Ny4wMSwyNS44MSw1Ny4wMXoiLz4mI3hhOwkJCQk8L2c+JiN4YTsJCQkJPGcgaWQ9Imdyb3VwMzk5NC0xMCIgdHJhbnNmb3JtPSJ0cmFuc2xhdGUoNC45NzA4NSwtMTUuMDY1MSkiPiYjeGE7CQkJCQk8dGl0bGUgaWQ9InRpdGxlNDkwODQiPlNoZWV0LjM5OTQ8L3RpdGxlPiYjeGE7CQkJCQk8ZyBpZD0ic2hhcGUzOTk1LTExIj4mI3hhOwkJCQkJCTx0aXRsZSBpZD0idGl0bGU0OTA4NiI+U2hlZXQuMzk5NTwvdGl0bGU+JiN4YTsJCQkJCQk8cGF0aCBpZD0icGF0aDQ5MDg4IiBpbmtzY2FwZTpjb25uZWN0b3ItY3VydmF0dXJlPSIwIiBzdHlsZT0iZmlsbDojRTlBQzQ3OyIgZD0iTTMuMTEsNDguODV2LTIuNTEgICAgICAgIGMwLTAuMzUsMC4yOC0wLjYzLDAuNjItMC42M3MwLjYyLTAuMjgsMC42Mi0wLjYzYzAtMC4zNC0wLjI4LTAuNjMtMC42Mi0wLjYzYy0xLjAzLDAtMS44NywwLjg1LTEuODcsMS44OXYyLjUxICAgICAgICBjMCwwLjY5LTAuNTUsMS4yNS0xLjI0LDEuMjVDMC4yOCw1MC4xLDAsNTAuMzksMCw1MC43M2MwLDAuMzUsMC4yOCwwLjYzLDAuNjIsMC42M2MwLjY5LDAsMS4yNCwwLjU2LDEuMjQsMS4yNnYyLjUxICAgICAgICBjMCwxLjAzLDAuODQsMS44OCwxLjg3LDEuODhjMC4zNCwwLDAuNjItMC4yOCwwLjYyLTAuNjNjMC0wLjM1LTAuMjgtMC42My0wLjYyLTAuNjNzLTAuNjItMC4yOC0wLjYyLTAuNjJ2LTIuNTEgICAgICAgIGMwLTAuNzYtMC4zNC0xLjQzLTAuODYtMS44OUMyLjc3LDUwLjI3LDMuMTEsNDkuNiwzLjExLDQ4Ljg1eiIvPiYjeGE7CQkJCQk8L2c+JiN4YTsJCQkJCTxnIGlkPSJzaGFwZTM5OTYtMTMiIHRyYW5zZm9ybT0idHJhbnNsYXRlKDcuMTQ1NTksLTcuNTMyNTQpIj4mI3hhOwkJCQkJCTx0aXRsZSBpZD0idGl0bGU0OTA5MSI+U2hlZXQuMzk5NjwvdGl0bGU+JiN4YTsJCQkJCQk8ZWxsaXBzZSBpZD0iZWxsaXBzZTQ5MDkzIiBzdHlsZT0iZmlsbDojRTlBQzQ3OyIgY3g9IjAuOTMiIGN5PSI1Ni4wNyIgcng9IjAuOTMiIHJ5PSIwLjk0Ii8+JiN4YTsJCQkJCTwvZz4mI3hhOwkJCQkJPGcgaWQ9InNoYXBlMzk5Ny0xNSIgdHJhbnNmb3JtPSJ0cmFuc2xhdGUoMTEuODA1OCkiPiYjeGE7CQkJCQkJPHRpdGxlIGlkPSJ0aXRsZTQ5MDk2Ij5TaGVldC4zOTk3PC90aXRsZT4mI3hhOwkJCQkJCTxwYXRoIGlkPSJwYXRoNDkwOTgiIGlua3NjYXBlOmNvbm5lY3Rvci1jdXJ2YXR1cmU9IjAiIHN0eWxlPSJmaWxsOiNFOUFDNDc7IiBkPSJNMy43Myw1MC4xYy0wLjY5LDAtMS4yNC0wLjU2LTEuMjQtMS4yNSAgICAgICAgdi0yLjUxYzAtMS4wNC0wLjg0LTEuODktMS44Ny0xLjg5QzAuMjgsNDQuNDUsMCw0NC43NCwwLDQ1LjA4YzAsMC4zNSwwLjI4LDAuNjMsMC42MiwwLjYzczAuNjIsMC4yOCwwLjYyLDAuNjN2Mi41MSAgICAgICAgYzAsMC43NSwwLjM0LDEuNDIsMC44NiwxLjg4Yy0wLjUyLDAuNDYtMC44NiwxLjEzLTAuODYsMS44OXYyLjUxYzAsMC4zNC0wLjI4LDAuNjItMC42MiwwLjYyUzAsNTYuMDMsMCw1Ni4zOCAgICAgICAgYzAsMC4zNSwwLjI4LDAuNjMsMC42MiwwLjYzYzEuMDMsMCwxLjg3LTAuODUsMS44Ny0xLjg4di0yLjUxYzAtMC43LDAuNTUtMS4yNiwxLjI0LTEuMjZjMC4zNCwwLDAuNjItMC4yOCwwLjYyLTAuNjMgICAgICAgIEM0LjM1LDUwLjM5LDQuMDcsNTAuMSwzLjczLDUwLjF6Ii8+JiN4YTsJCQkJCTwvZz4mI3hhOwkJCQkJPGcgaWQ9InNoYXBlMzk5OC0xNyIgdHJhbnNmb3JtPSJ0cmFuc2xhdGUoNy40NTYyNywtMS44ODMxNCkiPiYjeGE7CQkJCQkJPHRpdGxlIGlkPSJ0aXRsZTQ5MTAxIj5TaGVldC4zOTk4PC90aXRsZT4mI3hhOwkJCQkJCTxwYXRoIGlkPSJwYXRoNDkxMDMiIGlua3NjYXBlOmNvbm5lY3Rvci1jdXJ2YXR1cmU9IjAiIHN0eWxlPSJmaWxsOiNFOUFDNDc7IiBkPSJNMC42Miw1My44N0MwLjI4LDUzLjg3LDAsNTQuMTUsMCw1NC41djEuODggICAgICAgIGMwLDAuMzUsMC4yOCwwLjYzLDAuNjIsMC42M3MwLjYyLTAuMjgsMC42Mi0wLjYzVjU0LjVDMS4yNCw1NC4xNSwwLjk2LDUzLjg3LDAuNjIsNTMuODd6Ii8+JiN4YTsJCQkJCTwvZz4mI3hhOwkJCQk8L2c+JiN4YTsJCQk8L2c+JiN4YTsJCTwvZz4mI3hhOwkJPGcgaWQ9Imdyb3VwMzk5OS0xOSIgdHJhbnNmb3JtPSJ0cmFuc2xhdGUoMy44MTMzNCwtMi40NTc4MSkiPiYjeGE7CQkJPHRpdGxlIGlkPSJ0aXRsZTQ5MTA5Ij5KU09OLjM2NjY0PC90aXRsZT4mI3hhOwkJCTxnIGlkPSJzaGFwZTQwMDAtMjAiIHRyYW5zZm9ybT0idHJhbnNsYXRlKDAsLTUuMzA5NzJlLTUpIj4mI3hhOwkJCQk8dGl0bGUgaWQ9InRpdGxlNDkxMTEiPlNoZWV0LjQwMDA8L3RpdGxlPiYjeGE7CQkJCTxwYXRoIGlkPSJwYXRoNDkxMTMiIGlua3NjYXBlOmNvbm5lY3Rvci1jdXJ2YXR1cmU9IjAiIHN0eWxlPSJmaWxsOiNGRkZGRkY7IiBkPSJNMy40OCw1MS4xN3Y0LjQzYzAsMC4yNi0wLjA1LDAuNDktMC4xNSwwLjY3ICAgICAgYy0wLjA5LDAuMTgtMC4yMywwLjMzLTAuMzksMC40NGMtMC4xNiwwLjExLTAuMzUsMC4xOS0wLjU3LDAuMjNjLTAuMjEsMC4wNS0wLjQzLDAuMDctMC42NiwwLjA3Yy0wLjExLDAtMC4yNC0wLjAxLTAuMzktMC4wNCAgICAgIGMtMC4xNi0wLjAyLTAuMzEtMC4wNS0wLjQ4LTAuMWMtMC4xNi0wLjA1LTAuMzEtMC4xMS0wLjQ2LTAuMTdDMC4yMyw1Ni42NCwwLjEsNTYuNTcsMCw1Ni40OWwwLjM5LTAuNjIgICAgICBjMC4wNSwwLjAzLDAuMTMsMC4wNywwLjIyLDAuMTFjMC4xLDAuMDQsMC4yLDAuMDcsMC4zMiwwLjExYzAuMTEsMC4wMywwLjIzLDAuMDYsMC4zNSwwLjA5YzAuMTIsMC4wMiwwLjI0LDAuMDMsMC4zNSwwLjAzICAgICAgYzAuMjcsMCwwLjQ5LTAuMDUsMC42NS0wLjE1YzAuMTYtMC4xMSwwLjI1LTAuMjksMC4yNi0wLjU0di00LjM1TDMuNDgsNTEuMTd6Ii8+JiN4YTsJCQk8L2c+JiN4YTsJCQk8ZyBpZD0ic2hhcGU0MDAxLTIyIiB0cmFuc2Zvcm09InRyYW5zbGF0ZSg0Ljc4NDA1LC0wLjAwNzg1ODM4KSI+JiN4YTsJCQkJPHRpdGxlIGlkPSJ0aXRsZTQ5MTE2Ij5TaGVldC40MDAxPC90aXRsZT4mI3hhOwkJCQk8cGF0aCBpZD0icGF0aDQ5MTE4IiBpbmtzY2FwZTpjb25uZWN0b3ItY3VydmF0dXJlPSIwIiBzdHlsZT0iZmlsbDojRkZGRkZGOyIgZD0iTTMuMyw1NS40MmMwLDAuMjEtMC4wNCwwLjQtMC4xMiwwLjYgICAgICBjLTAuMDksMC4xOS0wLjIxLDAuMzYtMC4zNiwwLjUxYy0wLjE2LDAuMTQtMC4zNSwwLjI2LTAuNTcsMC4zNWMtMC4yMywwLjA5LTAuNDksMC4xMy0wLjc4LDAuMTNjLTAuMTIsMC0wLjI1LTAuMDEtMC4zOC0wLjAyICAgICAgYy0wLjEzLTAuMDEtMC4yNi0wLjA0LTAuNC0wLjA3Yy0wLjEzLTAuMDMtMC4yNi0wLjA3LTAuMzgtMC4xMkMwLjE5LDU2Ljc0LDAuMDksNTYuNjgsMCw1Ni42bDAuMTYtMC42NiAgICAgIGMwLjA3LDAuMDQsMC4xNywwLjA4LDAuMjgsMC4xMmMwLjExLDAuMDMsMC4yMiwwLjA3LDAuMzQsMC4xYzAuMTIsMC4wNCwwLjI0LDAuMDYsMC4zNSwwLjA4YzAuMTIsMC4wMywwLjIzLDAuMDQsMC4zNCwwLjA0ICAgICAgYzAuMzEsMCwwLjU1LTAuMDgsMC43Mi0wLjIyYzAuMTYtMC4xNSwwLjI1LTAuMzcsMC4yNS0wLjY2YzAtMC4xNy0wLjA2LTAuMzItMC4xOC0wLjQ0Yy0wLjEyLTAuMTMtMC4yNy0wLjI0LTAuNDQtMC4zNCAgICAgIGMtMC4xOC0wLjEtMC4zNy0wLjItMC41OC0wLjNjLTAuMi0wLjEtMC40LTAuMjItMC41OC0wLjM2Yy0wLjE4LTAuMTMtMC4zMy0wLjI5LTAuNDQtMC40OGMtMC4xMi0wLjE4LTAuMTgtMC40MS0wLjE4LTAuNjkgICAgICBjMC0wLjI1LDAuMDQtMC40OCwwLjE0LTAuNjdjMC4wOS0wLjIsMC4yMS0wLjM2LDAuMzctMC41czAuMzQtMC4yNCwwLjU1LTAuMzFjMC4yMS0wLjA4LDAuNDMtMC4xMSwwLjY2LTAuMTEgICAgICBjMC4yNCwwLDAuNDgsMC4wMiwwLjcyLDAuMDZjMC4yNCwwLjA1LDAuNDMsMC4xMiwwLjU4LDAuMjJDMy4wMyw1MS41NCwzLDUxLjYyLDIuOTYsNTEuN2MtMC4wNSwwLjA4LTAuMDgsMC4xNS0wLjEyLDAuMjIgICAgICBjLTAuMDQsMC4wNy0wLjA3LDAuMTMtMC4wOSwwLjE3Yy0wLjAzLDAuMDUtMC4wNCwwLjA4LTAuMDUsMC4wOGMtMC4wMy0wLjAxLTAuMDYtMC4wMy0wLjEtMC4wNmMtMC4wNC0wLjAzLTAuMS0wLjA1LTAuMTctMC4wOCAgICAgIGMtMC4wNy0wLjAyLTAuMTctMC4wNC0wLjI5LTAuMDVjLTAuMTEtMC4wMS0wLjI3LTAuMDEtMC40NSwwLjAxYy0wLjEsMC4wMS0wLjIsMC4wNC0wLjI5LDAuMDhjLTAuMSwwLjA1LTAuMTgsMC4xMS0wLjI1LDAuMTkgICAgICBjLTAuMDcsMC4wNy0wLjEzLDAuMTUtMC4xNywwLjI0Yy0wLjA0LDAuMDktMC4wNiwwLjE4LTAuMDYsMC4yNmMwLDAuMiwwLjA2LDAuMzcsMC4xNywwLjVjMC4xMiwwLjEyLDAuMjcsMC4yMywwLjQ0LDAuMzMgICAgICBjMC4xOCwwLjA5LDAuMzcsMC4xOSwwLjU4LDAuMjhjMC4yLDAuMDgsMC4zOSwwLjE5LDAuNTcsMC4zMmMwLjE4LDAuMTMsMC4zMywwLjI5LDAuNDQsMC40OUMzLjI0LDU0Ljg3LDMuMyw1NS4xMiwzLjMsNTUuNDJ6Ii8+JiN4YTsJCQk8L2c+JiN4YTsJCQk8ZyBpZD0ic2hhcGU0MDAyLTI0IiB0cmFuc2Zvcm09InRyYW5zbGF0ZSg4LjkzNjUyKSI+JiN4YTsJCQkJPHRpdGxlIGlkPSJ0aXRsZTQ5MTIxIj5TaGVldC40MDAyPC90aXRsZT4mI3hhOwkJCQk8cGF0aCBpZD0icGF0aDQ5MTIzIiBpbmtzY2FwZTpjb25uZWN0b3ItY3VydmF0dXJlPSIwIiBzdHlsZT0iZmlsbDojRkZGRkZGOyIgZD0iTTQuNzQsNTQuMWMwLDAuNDgtMC4wNiwwLjktMC4xOCwxLjI3ICAgICAgYy0wLjEyLDAuMzYtMC4yOSwwLjY2LTAuNTEsMC45MWMtMC4yMSwwLjI0LTAuNDYsMC40Mi0wLjc0LDAuNTRjLTAuMjksMC4xMy0wLjYsMC4xOS0wLjk0LDAuMTlzLTAuNjUtMC4wNi0wLjk0LTAuMTkgICAgICBjLTAuMjgtMC4xMi0wLjUzLTAuMy0wLjc1LTAuNTRjLTAuMjEtMC4yNS0wLjM4LTAuNTUtMC41LTAuOTFDMC4wNiw1NSwwLDU0LjU4LDAsNTQuMWMwLTAuNDgsMC4wNi0wLjksMC4xOC0xLjI2ICAgICAgczAuMjktMC42NywwLjUtMC45MWMwLjIyLTAuMjQsMC40Ny0wLjQyLDAuNzUtMC41NWMwLjI5LTAuMTMsMC42LTAuMTksMC45NC0wLjE5czAuNjUsMC4wNiwwLjk0LDAuMTkgICAgICBjMC4yOCwwLjEzLDAuNTMsMC4zMSwwLjc0LDAuNTVjMC4yMiwwLjI0LDAuMzksMC41NSwwLjUxLDAuOTFDNC42OCw1My4yLDQuNzQsNTMuNjIsNC43NCw1NC4xeiBNMi4zNSw1Ni4yNSAgICAgIGMwLjE5LDAsMC4zNy0wLjAzLDAuNTQtMC4xMWMwLjE3LTAuMDcsMC4zMy0wLjIsMC40Ni0wLjM2YzAuMTQtMC4xNywwLjI1LTAuNCwwLjMyLTAuNjdjMC4wOC0wLjI4LDAuMTItMC42MSwwLjEzLTEuMDEgICAgICBjLTAuMDEtMC4zOS0wLjA1LTAuNzEtMC4xMi0wLjk4Yy0wLjA4LTAuMjctMC4xOC0wLjUtMC4zMS0wLjY3Yy0wLjEzLTAuMTgtMC4yOC0wLjMtMC40NS0wLjM4Yy0wLjE3LTAuMDgtMC4zNC0wLjExLTAuNTMtMC4xMSAgICAgIGMtMC4xOSwwLTAuMzcsMC4wMy0wLjU0LDAuMWMtMC4xOCwwLjA4LTAuMzMsMC4yLTAuNDcsMC4zN2MtMC4xMywwLjE3LTAuMjQsMC4zOS0wLjMyLDAuNjdjLTAuMDcsMC4yNy0wLjExLDAuNi0wLjEyLDEgICAgICBjMC4wMSwwLjM5LDAuMDUsMC43MiwwLjEyLDAuOTljMC4wOCwwLjI3LDAuMTgsMC40OSwwLjMxLDAuNjdjMC4xMywwLjE3LDAuMjgsMC4yOSwwLjQ1LDAuMzdDMS45OCw1Ni4yMSwyLjE2LDU2LjI1LDIuMzUsNTYuMjUgICAgICB6Ii8+JiN4YTsJCQk8L2c+JiN4YTsJCQk8ZyBpZD0ic2hhcGU0MDAzLTI2IiB0cmFuc2Zvcm09InRyYW5zbGF0ZSgxNC45Nzg3LC0wLjAzODM4OTIpIj4mI3hhOwkJCQk8dGl0bGUgaWQ9InRpdGxlNDkxMjYiPlNoZWV0LjQwMDM8L3RpdGxlPiYjeGE7CQkJCTxwYXRoIGlkPSJwYXRoNDkxMjgiIGlua3NjYXBlOmNvbm5lY3Rvci1jdXJ2YXR1cmU9IjAiIHN0eWxlPSJmaWxsOiNGRkZGRkY7IiBkPSJNNC4xMSw1MS4zMnY1LjY5SDMuMTdsLTIuMjMtMy45MnYzLjkySDB2LTUuNjkgICAgICBoMC45NGwyLjIzLDMuOTJ2LTMuOTJMNC4xMSw1MS4zMnoiLz4mI3hhOwkJCTwvZz4mI3hhOwkJPC9nPiYjeGE7CTwvZz4mI3hhOzwvZz4mI3hhOzwvc3ZnPg==;" parent="1" vertex="1">
          <mxGeometry x="1190" y="290" width="27" height="35" as="geometry" />
        </mxCell>
        <mxCell id="wG_c4dULW8k_WJfXNpnm-2089" value="" style="shape=image;verticalLabelPosition=bottom;labelBackgroundColor=#ffffff;verticalAlign=top;aspect=fixed;imageAspect=0;image=data:image/svg+xml,PHN2ZyB4bWxuczpjYz0iaHR0cDovL2NyZWF0aXZlY29tbW9ucy5vcmcvbnMjIiB4bWxuczpkYz0iaHR0cDovL3B1cmwub3JnL2RjL2VsZW1lbnRzLzEuMS8iIHhtbG5zOmlua3NjYXBlPSJodHRwOi8vd3d3Lmlua3NjYXBlLm9yZy9uYW1lc3BhY2VzL2lua3NjYXBlIiB4bWxuczpyZGY9Imh0dHA6Ly93d3cudzMub3JnLzE5OTkvMDIvMjItcmRmLXN5bnRheC1ucyMiIHhtbG5zOnNvZGlwb2RpPSJodHRwOi8vc29kaXBvZGkuc291cmNlZm9yZ2UubmV0L0RURC9zb2RpcG9kaS0wLmR0ZCIgeG1sbnM6c3ZnPSJodHRwOi8vd3d3LnczLm9yZy8yMDAwL3N2ZyIgeG1sbnM9Imh0dHA6Ly93d3cudzMub3JnLzIwMDAvc3ZnIiB4bWxuczp4bGluaz0iaHR0cDovL3d3dy53My5vcmcvMTk5OS94bGluayIgdmVyc2lvbj0iMS4xIiBpZD0ic3ZnNTUyODAiIGlua3NjYXBlOnZlcnNpb249IjAuOTIuMyAoMjQwNTU0NiwgMjAxOC0wMy0xMSkiIHNvZGlwb2RpOmRvY25hbWU9InhtbF8xLnN2ZyIgeD0iMHB4IiB5PSIwcHgiIHZpZXdCb3g9IjAgMCAzMS44OCAzNi40NCIgc3R5bGU9ImVuYWJsZS1iYWNrZ3JvdW5kOm5ldyAwIDAgMzEuODggMzYuNDQ7IiB4bWw6c3BhY2U9InByZXNlcnZlIj4mI3hhOzxzb2RpcG9kaTpuYW1lZHZpZXcgYm9yZGVyY29sb3I9IiM2NjY2NjYiIGJvcmRlcm9wYWNpdHk9IjEiIGZpdC1tYXJnaW4tYm90dG9tPSIwIiBmaXQtbWFyZ2luLWxlZnQ9IjAiIGZpdC1tYXJnaW4tcmlnaHQ9IjAiIGZpdC1tYXJnaW4tdG9wPSIwIiBncmlkdG9sZXJhbmNlPSIxMCIgZ3VpZGV0b2xlcmFuY2U9IjEwIiBpZD0ibmFtZWR2aWV3NTUyODIiIGlua3NjYXBlOmN1cnJlbnQtbGF5ZXI9InN2ZzU1MjgwIiBpbmtzY2FwZTpjeD0iMTguMzIwMjU0IiBpbmtzY2FwZTpjeT0iMjMuODk2MzY5IiBpbmtzY2FwZTpwYWdlb3BhY2l0eT0iMCIgaW5rc2NhcGU6cGFnZXNoYWRvdz0iMiIgaW5rc2NhcGU6d2luZG93LWhlaWdodD0iMTAxNyIgaW5rc2NhcGU6d2luZG93LW1heGltaXplZD0iMSIgaW5rc2NhcGU6d2luZG93LXdpZHRoPSIxOTIwIiBpbmtzY2FwZTp3aW5kb3cteD0iLTgiIGlua3NjYXBlOndpbmRvdy15PSItOCIgaW5rc2NhcGU6em9vbT0iMTYuNDk4MzU3IiBvYmplY3R0b2xlcmFuY2U9IjEwIiBwYWdlY29sb3I9IiNmZmZmZmYiIHNob3dncmlkPSJmYWxzZSI+JiN4YTsJPC9zb2RpcG9kaTpuYW1lZHZpZXc+JiN4YTs8ZyBpZD0iZzU1Mjc4IiB0cmFuc2Zvcm09InRyYW5zbGF0ZSgtNS45MjQ4NSwtMS4xOTE0MTIpIj4mI3hhOwk8dGl0bGUgaWQ9InRpdGxlNTUyMjQiPlBhZ2UtMTwvdGl0bGU+JiN4YTsJPGcgaWQ9Imdyb3VwMzk3Ni0xIiB0cmFuc2Zvcm09InRyYW5zbGF0ZSg1LjkyNDg1LC0xLjc4MTIxKSI+JiN4YTsJCTx0aXRsZSBpZD0idGl0bGU1NTIyNiI+WE1MICMxPC90aXRsZT4mI3hhOwkJPGcgaWQ9Imdyb3VwMzk3Ny0yIj4mI3hhOwkJCTx0aXRsZSBpZD0idGl0bGU1NTIyOCI+SlNPTiAjMS4zNzM8L3RpdGxlPiYjeGE7CQkJPGcgaWQ9Imdyb3VwMzk3OC0zIj4mI3hhOwkJCQk8dGl0bGUgaWQ9InRpdGxlNTUyMzAiPkRPQyAjMTwvdGl0bGU+JiN4YTsJCQkJPGcgaWQ9InNoYXBlMzk3OS00IiB0cmFuc2Zvcm09InRyYW5zbGF0ZSg0LjU1NDU2KSI+JiN4YTsJCQkJCTx0aXRsZSBpZD0idGl0bGU1NTIzMiI+U2hlZXQuMzk3OTwvdGl0bGU+JiN4YTsJCQkJCTxwYXRoIGlkPSJwYXRoNTUyMzQiIGlua3NjYXBlOmNvbm5lY3Rvci1jdXJ2YXR1cmU9IjAiIHN0eWxlPSJmaWxsOiNFMkU1RTc7IiBkPSJNMi4yOCwyLjk4QzEuMDIsMi45OCwwLDQsMCw1LjI1djMxLjg5ICAgICAgIGMwLDEuMjUsMS4wMiwyLjI3LDIuMjgsMi4yN2gyMi43N2MxLjI1LDAsMi4yOC0xLjAyLDIuMjgtMi4yN1YxMi4wOWwtOS4xMS05LjExSDIuMjh6Ii8+JiN4YTsJCQkJPC9nPiYjeGE7CQkJCTxnIGlkPSJzaGFwZTM5ODAtNiIgdHJhbnNmb3JtPSJ0cmFuc2xhdGUoMjIuNzcyOCwtMjcuMzI3NCkiPiYjeGE7CQkJCQk8dGl0bGUgaWQ9InRpdGxlNTUyMzciPlNoZWV0LjM5ODA8L3RpdGxlPiYjeGE7CQkJCQk8cGF0aCBpZD0icGF0aDU1MjM5IiBpbmtzY2FwZTpjb25uZWN0b3ItY3VydmF0dXJlPSIwIiBzdHlsZT0iZmlsbDojQjBCN0JEOyIgZD0iTTIuMjgsMzkuNDFoNi44M0wwLDMwLjN2Ni44NCAgICAgICBDMCwzOC4zOSwxLjAyLDM5LjQxLDIuMjgsMzkuNDF6Ii8+JiN4YTsJCQkJPC9nPiYjeGE7CQkJCTxnIGlkPSJzaGFwZTM5ODEtOCIgdHJhbnNmb3JtPSJ0cmFuc2xhdGUoMjUuMDUwMSwtMjAuNDk1NSkiPiYjeGE7CQkJCQk8dGl0bGUgaWQ9InRpdGxlNTUyNDIiPlNoZWV0LjM5ODE8L3RpdGxlPiYjeGE7CQkJCQk8cGF0aCBpZD0icGF0aDU1MjQ0IiBpbmtzY2FwZTpjb25uZWN0b3ItY3VydmF0dXJlPSIwIiBzdHlsZT0iZmlsbDojQ0FEMUQ4OyIgZD0iTTYuODMsMzkuNDFMMCwzMi41OGg2LjgzVjM5LjQxeiIvPiYjeGE7CQkJCTwvZz4mI3hhOwkJCQk8ZyBpZD0ic2hhcGUzOTgyLTEwIiB0cmFuc2Zvcm09InRyYW5zbGF0ZSgwLC01LjY5MzIpIj4mI3hhOwkJCQkJPHRpdGxlIGlkPSJ0aXRsZTU1MjQ3Ij5TaGVldC4zOTgyPC90aXRsZT4mI3hhOwkJCQkJPHBhdGggaWQ9InBhdGg1NTI0OSIgaW5rc2NhcGU6Y29ubmVjdG9yLWN1cnZhdHVyZT0iMCIgc3R5bGU9ImZpbGw6IzRCQUNDNjsiIGQ9Ik0yNy4zMywzOC4yN2MwLDAuNjMtMC41MiwxLjE0LTEuMTQsMS4xNEgxLjE0ICAgICAgIEMwLjUxLDM5LjQxLDAsMzguOSwwLDM4LjI3VjI2Ljg5YzAtMC42MywwLjUxLTEuMTQsMS4xNC0xLjE0aDI1LjA1YzAuNjIsMCwxLjE0LDAuNTEsMS4xNCwxLjE0TDI3LjMzLDM4LjI3eiIvPiYjeGE7CQkJCTwvZz4mI3hhOwkJCQk8ZyBpZD0ic2hhcGUzOTgzLTEyIiB0cmFuc2Zvcm09InRyYW5zbGF0ZSg0LjU1NDU2LC00LjU1NDU2KSI+JiN4YTsJCQkJCTx0aXRsZSBpZD0idGl0bGU1NTI1MiI+U2hlZXQuMzk4MzwvdGl0bGU+JiN4YTsJCQkJCTxwYXRoIGlkPSJwYXRoNTUyNTQiIGlua3NjYXBlOmNvbm5lY3Rvci1jdXJ2YXR1cmU9IjAiIHN0eWxlPSJmaWxsOiNDQUQxRDg7IiBkPSJNMjEuNjMsMzguMjdIMHYxLjE0aDIxLjYzICAgICAgIGMwLjYzLDAsMS4xNC0wLjUxLDEuMTQtMS4xNHYtMS4xM0MyMi43NywzNy43NiwyMi4yNiwzOC4yNywyMS42MywzOC4yN3oiLz4mI3hhOwkJCQk8L2c+JiN4YTsJCQk8L2c+JiN4YTsJCTwvZz4mI3hhOwkJPGcgaWQ9Imdyb3VwMzk4NC0xNCIgdHJhbnNmb3JtPSJ0cmFuc2xhdGUoNS4wMDM3MiwtOS4xNDczNykiPiYjeGE7CQkJPHRpdGxlIGlkPSJ0aXRsZTU1MjU5Ij5YTUwuMzY4NzQ8L3RpdGxlPiYjeGE7CQkJPGcgaWQ9InNoYXBlMzk4NS0xNSI+JiN4YTsJCQkJPHRpdGxlIGlkPSJ0aXRsZTU1MjYxIj5TaGVldC4zOTg1PC90aXRsZT4mI3hhOwkJCQk8cGF0aCBpZD0icGF0aDU1MjYzIiBpbmtzY2FwZTpjb25uZWN0b3ItY3VydmF0dXJlPSIwIiBzdHlsZT0iZmlsbDojRkZGRkZGOyIgZD0iTTMuMDQsMzYuMzNsMS42LDMuMDhIMy40NWwtMS0yLjM5SDIuMzYgICAgICBsLTEuMDcsMi4zOUgwLjFsMS42LTMuMDhMMCwzMy4wNmgxLjE3bDEuMTEsMi41OGgwLjA4bDEuMjEtMi41OGgxLjE3TDMuMDQsMzYuMzN6Ii8+JiN4YTsJCQk8L2c+JiN4YTsJCQk8ZyBpZD0ic2hhcGUzOTg2LTE3IiB0cmFuc2Zvcm09InRyYW5zbGF0ZSg2LjE0NTQ0KSI+JiN4YTsJCQkJPHRpdGxlIGlkPSJ0aXRsZTU1MjY2Ij5TaGVldC4zOTg2PC90aXRsZT4mI3hhOwkJCQk8cGF0aCBpZD0icGF0aDU1MjY4IiBpbmtzY2FwZTpjb25uZWN0b3ItY3VydmF0dXJlPSIwIiBzdHlsZT0iZmlsbDojRkZGRkZGOyIgZD0iTTQuNzcsMzMuMDZoMS4wNHY2LjM1SDQuNzd2LTQuMzdsLTEuNDEsMy41NCAgICAgIGgtMC45bC0xLjQyLTMuNTR2NC4zN0gwdi02LjM1aDEuMDRsMS44Nyw0LjM0TDQuNzcsMzMuMDZ6Ii8+JiN4YTsJCQk8L2c+JiN4YTsJCQk8ZyBpZD0ic2hhcGUzOTg3LTE5IiB0cmFuc2Zvcm09InRyYW5zbGF0ZSgxMy41Mzc3KSI+JiN4YTsJCQkJPHRpdGxlIGlkPSJ0aXRsZTU1MjcxIj5TaGVldC4zOTg3PC90aXRsZT4mI3hhOwkJCQk8cGF0aCBpZD0icGF0aDU1MjczIiBpbmtzY2FwZTpjb25uZWN0b3ItY3VydmF0dXJlPSIwIiBzdHlsZT0iZmlsbDojRkZGRkZGOyIgZD0iTTEuMDQsMzMuMDZ2NS41N2gyLjl2MC43OEgwdi02LjM1SDEuMDR6Ii8+JiN4YTsJCQk8L2c+JiN4YTsJCTwvZz4mI3hhOwk8L2c+JiN4YTs8L2c+JiN4YTs8L3N2Zz4=;" parent="1" vertex="1">
          <mxGeometry x="1185" y="355" width="32" height="36" as="geometry" />
        </mxCell>
        <mxCell id="wG_c4dULW8k_WJfXNpnm-2090" value="" style="shape=image;verticalLabelPosition=bottom;labelBackgroundColor=#ffffff;verticalAlign=top;aspect=fixed;imageAspect=0;image=data:image/svg+xml,PHN2ZyB4bWxuczpjYz0iaHR0cDovL2NyZWF0aXZlY29tbW9ucy5vcmcvbnMjIiB4bWxuczpkYz0iaHR0cDovL3B1cmwub3JnL2RjL2VsZW1lbnRzLzEuMS8iIHhtbG5zOmlua3NjYXBlPSJodHRwOi8vd3d3Lmlua3NjYXBlLm9yZy9uYW1lc3BhY2VzL2lua3NjYXBlIiB4bWxuczpyZGY9Imh0dHA6Ly93d3cudzMub3JnLzE5OTkvMDIvMjItcmRmLXN5bnRheC1ucyMiIHhtbG5zOnNvZGlwb2RpPSJodHRwOi8vc29kaXBvZGkuc291cmNlZm9yZ2UubmV0L0RURC9zb2RpcG9kaS0wLmR0ZCIgeG1sbnM6c3ZnPSJodHRwOi8vd3d3LnczLm9yZy8yMDAwL3N2ZyIgeG1sbnM9Imh0dHA6Ly93d3cudzMub3JnLzIwMDAvc3ZnIiB4bWxuczp4bGluaz0iaHR0cDovL3d3dy53My5vcmcvMTk5OS94bGluayIgdmVyc2lvbj0iMS4xIiBpZD0ic3ZnMTgxNTczIiBpbmtzY2FwZTp2ZXJzaW9uPSIwLjkyLjMgKDI0MDU1NDYsIDIwMTgtMDMtMTEpIiBzb2RpcG9kaTpkb2NuYW1lPSJqc29uLnN2ZyIgeD0iMHB4IiB5PSIwcHgiIHZpZXdCb3g9IjAgMCA3Ni41IDc1LjYzIiBzdHlsZT0iZW5hYmxlLWJhY2tncm91bmQ6bmV3IDAgMCA3Ni41IDc1LjYzOyIgeG1sOnNwYWNlPSJwcmVzZXJ2ZSI+JiN4YTs8c29kaXBvZGk6bmFtZWR2aWV3IGJvcmRlcmNvbG9yPSIjNjY2NjY2IiBib3JkZXJvcGFjaXR5PSIxIiBmaXQtbWFyZ2luLWJvdHRvbT0iMCIgZml0LW1hcmdpbi1sZWZ0PSIwIiBmaXQtbWFyZ2luLXJpZ2h0PSIwIiBmaXQtbWFyZ2luLXRvcD0iMCIgZ3JpZHRvbGVyYW5jZT0iMTAiIGd1aWRldG9sZXJhbmNlPSIxMCIgaWQ9Im5hbWVkdmlldzE4MTU3NSIgaW5rc2NhcGU6Y3VycmVudC1sYXllcj0ic3ZnMTgxNTczIiBpbmtzY2FwZTpjeD0iNTEiIGlua3NjYXBlOmN5PSI1MC40MjEyNjciIGlua3NjYXBlOnBhZ2VvcGFjaXR5PSIwIiBpbmtzY2FwZTpwYWdlc2hhZG93PSIyIiBpbmtzY2FwZTp3aW5kb3ctaGVpZ2h0PSIxMDE3IiBpbmtzY2FwZTp3aW5kb3ctbWF4aW1pemVkPSIxIiBpbmtzY2FwZTp3aW5kb3ctd2lkdGg9IjE5MjAiIGlua3NjYXBlOndpbmRvdy14PSItOCIgaW5rc2NhcGU6d2luZG93LXk9Ii04IiBpbmtzY2FwZTp6b29tPSI4LjU5Nzk5NjkiIG9iamVjdHRvbGVyYW5jZT0iMTAiIHBhZ2Vjb2xvcj0iI2ZmZmZmZiIgc2hvd2dyaWQ9ImZhbHNlIj4mI3hhOwk8L3NvZGlwb2RpOm5hbWVkdmlldz4mI3hhOzxnIGlkPSJnMTgxNTcxIj4mI3hhOwk8dGl0bGUgaWQ9InRpdGxlMTgxNTEyIj5QYWdlLTE8L3RpdGxlPiYjeGE7CTxnIGlkPSJncm91cDEwNzctMSI+JiN4YTsJCTx0aXRsZSBpZD0idGl0bGUxODE1MTQiPkpTT048L3RpdGxlPiYjeGE7CQk8ZyBpZD0ic2hhcGUxMDc4LTIiPiYjeGE7CQkJPHRpdGxlIGlkPSJ0aXRsZTE4MTUxNiI+U2hlZXQuMTA3ODwvdGl0bGU+JiN4YTsJCQk8cGF0aCBpZD0icGF0aDE4MTUxOCIgaW5rc2NhcGU6Y29ubmVjdG9yLWN1cnZhdHVyZT0iMCIgc3R5bGU9ImZpbGw6Izk3NzdBODsiIGQ9Ik0wLDM3LjgxQzAsMTYuOTQsMTcuMTMsMCwzOC4yNSwwICAgICBDNTkuNDIsMCw3Ni41LDE2Ljk0LDc2LjUsMzcuODFjMCwyMC45My0xNy4wOCwzNy44Mi0zOC4yNSwzNy44MkMxNy4xMyw3NS42MywwLDU4Ljc0LDAsMzcuODF6Ii8+JiN4YTsJCTwvZz4mI3hhOwkJPGcgaWQ9Imdyb3VwMTA3OS00IiB0cmFuc2Zvcm09InRyYW5zbGF0ZSgxNS42NTM0LC0xNy4zOTk4KSI+JiN4YTsJCQk8dGl0bGUgaWQ9InRpdGxlMTgxNTIxIj5TaGVldC4xMDc5PC90aXRsZT4mI3hhOwkJCTxnIGlkPSJncm91cDEwODAtNSIgdHJhbnNmb3JtPSJ0cmFuc2xhdGUoNi43NDUzLC0xNi40NDE5KSI+JiN4YTsJCQkJPHRpdGxlIGlkPSJ0aXRsZTE4MTUyMyI+U2hlZXQuMTA4MDwvdGl0bGU+JiN4YTsJCQkJPGcgaWQ9InNoYXBlMTA4MS02Ij4mI3hhOwkJCQkJPHRpdGxlIGlkPSJ0aXRsZTE4MTUyNSI+U2hlZXQuMTA4MTwvdGl0bGU+JiN4YTsJCQkJCTxwYXRoIGlkPSJwYXRoMTgxNTI3IiBpbmtzY2FwZTpjb25uZWN0b3ItY3VydmF0dXJlPSIwIiBzdHlsZT0iZmlsbDojRkZGRkZGOyIgZD0iTTYuMSw1OS43OFY1NC45YzAtMC42NywwLjU0LTEuMjIsMS4yMi0xLjIyICAgICAgIGMwLjY3LDAsMS4yMi0wLjU1LDEuMjItMS4yMmMwLTAuNjctMC41NS0xLjIyLTEuMjItMS4yMmMtMi4wMiwwLTMuNjYsMS42NC0zLjY2LDMuNjZ2NC44OGMwLDEuMzQtMS4xLDIuNDQtMi40NCwyLjQ0ICAgICAgIEMwLjU1LDYyLjIyLDAsNjIuNzYsMCw2My40M2MwLDAuNjgsMC41NSwxLjIyLDEuMjIsMS4yMmMxLjM0LDAsMi40NCwxLjEsMi40NCwyLjQ0djQuODhjMCwyLjAyLDEuNjQsMy42NiwzLjY2LDMuNjYgICAgICAgYzAuNjcsMCwxLjIyLTAuNTUsMS4yMi0xLjIycy0wLjU1LTEuMjItMS4yMi0xLjIyYy0wLjY4LDAtMS4yMi0wLjU1LTEuMjItMS4yMnYtNC44OGMwLTEuNDYtMC42Ni0yLjc2LTEuNjktMy42NiAgICAgICBDNS40NCw2Mi41NCw2LjEsNjEuMjQsNi4xLDU5Ljc4eiIvPiYjeGE7CQkJCTwvZz4mI3hhOwkJCQk8ZyBpZD0ic2hhcGUxMDgyLTgiIHRyYW5zZm9ybT0idHJhbnNsYXRlKDE0LjAyMjMsLTE0LjYzMikiPiYjeGE7CQkJCQk8dGl0bGUgaWQ9InRpdGxlMTgxNTMwIj5TaGVldC4xMDgyPC90aXRsZT4mI3hhOwkJCQkJPGNpcmNsZSBpZD0iZWxsaXBzZTE4MTUzMiIgc3R5bGU9ImZpbGw6I0ZGRkZGRjsiIGN4PSIxLjgzIiBjeT0iNzMuOCIgcj0iMS44MyIvPiYjeGE7CQkJCTwvZz4mI3hhOwkJCQk8ZyBpZD0ic2hhcGUxMDgzLTEwIiB0cmFuc2Zvcm09InRyYW5zbGF0ZSgyMy4xNjczKSI+JiN4YTsJCQkJCTx0aXRsZSBpZD0idGl0bGUxODE1MzUiPlNoZWV0LjEwODM8L3RpdGxlPiYjeGE7CQkJCQk8cGF0aCBpZD0icGF0aDE4MTUzNyIgaW5rc2NhcGU6Y29ubmVjdG9yLWN1cnZhdHVyZT0iMCIgc3R5bGU9ImZpbGw6I0ZGRkZGRjsiIGQ9Ik03LjMyLDYyLjIyYy0xLjM1LDAtMi40NC0xLjEtMi40NC0yLjQ0VjU0LjkgICAgICAgYzAtMi4wMi0xLjY0LTMuNjYtMy42Ni0zLjY2QzAuNTUsNTEuMjQsMCw1MS43OSwwLDUyLjQ2YzAsMC42NywwLjU1LDEuMjIsMS4yMiwxLjIyczEuMjIsMC41NSwxLjIyLDEuMjJ2NC44OCAgICAgICBjMCwxLjQ2LDAuNjYsMi43NiwxLjY4LDMuNjVjLTEuMDIsMC45LTEuNjgsMi4yLTEuNjgsMy42NnY0Ljg4YzAsMC42Ny0wLjU1LDEuMjItMS4yMiwxLjIyUzAsNzMuNzQsMCw3NC40MSAgICAgICBzMC41NSwxLjIyLDEuMjIsMS4yMmMyLjAyLDAsMy42Ni0xLjY0LDMuNjYtMy42NnYtNC44OGMwLTEuMzQsMS4wOS0yLjQ0LDIuNDQtMi40NGMwLjY3LDAsMS4yMi0wLjU0LDEuMjItMS4yMiAgICAgICBDOC41NCw2Mi43Niw3Ljk5LDYyLjIyLDcuMzIsNjIuMjJ6Ii8+JiN4YTsJCQkJPC9nPiYjeGE7CQkJCTxnIGlkPSJzaGFwZTEwODQtMTIiIHRyYW5zZm9ybT0idHJhbnNsYXRlKDE0LjYzMiwtMy42NTc5OSkiPiYjeGE7CQkJCQk8dGl0bGUgaWQ9InRpdGxlMTgxNTQwIj5TaGVldC4xMDg0PC90aXRsZT4mI3hhOwkJCQkJPHBhdGggaWQ9InBhdGgxODE1NDIiIGlua3NjYXBlOmNvbm5lY3Rvci1jdXJ2YXR1cmU9IjAiIHN0eWxlPSJmaWxsOiNGRkZGRkY7IiBkPSJNMS4yMiw2OS41M0MwLjU1LDY5LjUzLDAsNzAuMDgsMCw3MC43NXYzLjY2ICAgICAgIGMwLDAuNjcsMC41NSwxLjIyLDEuMjIsMS4yMnMxLjIyLTAuNTUsMS4yMi0xLjIydi0zLjY2QzIuNDQsNzAuMDgsMS44OSw2OS41MywxLjIyLDY5LjUzeiIvPiYjeGE7CQkJCTwvZz4mI3hhOwkJCTwvZz4mI3hhOwkJCTxnIGlkPSJncm91cDEwODUtMTQiPiYjeGE7CQkJCTx0aXRsZSBpZD0idGl0bGUxODE1NDYiPlNoZWV0LjEwODU8L3RpdGxlPiYjeGE7CQkJCTxnIGlkPSJzaGFwZTEwODYtMTUiPiYjeGE7CQkJCQk8dGl0bGUgaWQ9InRpdGxlMTgxNTQ4Ij5TaGVldC4xMDg2PC90aXRsZT4mI3hhOwkJCQkJPHBhdGggaWQ9InBhdGgxODE1NTAiIGlua3NjYXBlOmNvbm5lY3Rvci1jdXJ2YXR1cmU9IjAiIHN0eWxlPSJmaWxsOiNGRkZGRkY7IiBkPSJNOC4yNCw2MS44djEwLjQ5YzAsMC42My0wLjEyLDEuMTYtMC4zNSwxLjU5ICAgICAgIGMtMC4yMywwLjQ0LTAuNTQsMC43OC0wLjkzLDEuMDVjLTAuMzksMC4yNi0wLjg0LDAuNDQtMS4zNCwwLjU0Yy0wLjUxLDAuMTEtMS4wMywwLjE2LTEuNTYsMC4xNmMtMC4yNywwLTAuNTktMC4wMy0wLjk1LTAuMDggICAgICAgQzIuNzYsNzUuNDksMi4zOCw3NS40MSwyLDc1LjI5cy0wLjc1LTAuMjUtMS4xLTAuMzljLTAuMzYtMC4xNS0wLjY2LTAuMzEtMC45LTAuNWwwLjkzLTEuNDdjMC4xMiwwLjA4LDAuMywwLjE3LDAuNTIsMC4yNiAgICAgICBjMC4yMywwLjA5LDAuNDgsMC4xOCwwLjc0LDAuMjVjMC4yNywwLjA4LDAuNTUsMC4xNSwwLjg0LDAuMjFjMC4zLDAuMDcsMC41NywwLjEsMC44MiwwLjFjMC42NSwwLDEuMTYtMC4xMywxLjU1LTAuMzggICAgICAgYzAuMzgtMC4yNSwwLjU4LTAuNjcsMC42MS0xLjI3VjYxLjhIOC4yNHoiLz4mI3hhOwkJCQk8L2c+JiN4YTsJCQkJPGcgaWQ9InNoYXBlMTA4Ny0xNyIgdHJhbnNmb3JtPSJ0cmFuc2xhdGUoMTEuMzI0NywtMC4wMTg3MDUyKSI+JiN4YTsJCQkJCTx0aXRsZSBpZD0idGl0bGUxODE1NTMiPlNoZWV0LjEwODc8L3RpdGxlPiYjeGE7CQkJCQk8cGF0aCBpZD0icGF0aDE4MTU1NSIgaW5rc2NhcGU6Y29ubmVjdG9yLWN1cnZhdHVyZT0iMCIgc3R5bGU9ImZpbGw6I0ZGRkZGRjsiIGQ9Ik03LjgyLDcxLjg3YzAsMC40OC0wLjEsMC45NS0wLjMsMS40MSAgICAgICBjLTAuMiwwLjQ2LTAuNDksMC44Ni0wLjg1LDEuMjFjLTAuMzcsMC4zNC0wLjgyLDAuNjItMS4zNSwwLjgzYy0wLjU0LDAuMjEtMS4xNSwwLjMxLTEuODMsMC4zMWMtMC4yOSwwLTAuNTktMC4wMi0wLjktMC4wNSAgICAgICBjLTAuMzItMC4wMy0wLjYzLTAuMDgtMC45NS0wLjE1Yy0wLjMxLTAuMDgtMC42MS0wLjE4LTAuOS0wLjNDMC40NSw3NSwwLjIxLDc0Ljg0LDAsNzQuNjZsMC4zOC0xLjU3ICAgICAgIGMwLjE3LDAuMSwwLjM5LDAuMTksMC42NSwwLjI4czAuNTMsMC4xOCwwLjgxLDAuMjZzMC41NiwwLjE0LDAuODQsMC4xOXMwLjU1LDAuMDcsMC43OSwwLjA3YzAuNzQsMCwxLjMxLTAuMTcsMS43MS0wLjUyICAgICAgIGMwLjM5LTAuMzUsMC41OS0wLjg2LDAuNTktMS41NGMwLTAuNDItMC4xNC0wLjc3LTAuNDItMS4wNmMtMC4yOC0wLjI5LTAuNjMtMC41Ni0xLjA1LTAuOGMtMC40Mi0wLjIzLTAuODctMC40Ny0xLjM2LTAuNzEgICAgICAgQzIuNDUsNjkuMDIsMiw2OC43NCwxLjU3LDY4LjQycy0wLjc4LTAuNy0xLjA2LTEuMTRzLTAuNDItMC45OS0wLjQyLTEuNjRjMC0wLjYsMC4xMS0xLjEzLDAuMzMtMS41OXMwLjUxLTAuODYsMC44OS0xLjE4ICAgICAgIGMwLjM3LTAuMzIsMC44LTAuNTcsMS4yOS0wLjc0YzAuNS0wLjE3LDEuMDItMC4yNiwxLjU2LTAuMjZjMC41NiwwLDEuMTMsMC4wNiwxLjcsMC4xNnMxLjA0LDAuMjcsMS4zOSwwLjUgICAgICAgQzcuMTgsNjIuNjksNy4wOSw2Mi44Niw3LDYzLjA1Yy0wLjEsMC4xOS0wLjE5LDAuMzctMC4yOCwwLjUzYy0wLjA4LDAuMTctMC4xNiwwLjMtMC4yMiwwLjQxYy0wLjA2LDAuMTEtMC4wOSwwLjE3LTAuMTEsMC4xOSAgICAgICBjLTAuMDctMC4wNC0wLjE1LTAuMDktMC4yNC0wLjE1Yy0wLjEtMC4wNi0wLjIzLTAuMTItMC40LTAuMThjLTAuMTctMC4wNi0wLjM5LTAuMTEtMC42Ny0wLjEzQzQuOCw2My42OSw0LjQ0LDYzLjcsNCw2My43NCAgICAgICBjLTAuMjUsMC4wMi0wLjQ4LDAuMDktMC43LDAuMjFjLTAuMjIsMC4xMS0wLjQxLDAuMjYtMC41OCwwLjQzYy0wLjE3LDAuMTctMC4zMSwwLjM2LTAuNCwwLjU3Yy0wLjEsMC4yMi0wLjE1LDAuNDItMC4xNSwwLjYxICAgICAgIGMwLDAuNDksMC4xNCwwLjg4LDAuNDIsMS4xOHMwLjYzLDAuNTYsMS4wNCwwLjc5YzAuNDEsMC4yMiwwLjg3LDAuNDQsMS4zNSwwLjY2YzAuNDksMC4yMSwwLjk0LDAuNDcsMS4zNywwLjc3ICAgICAgIGMwLjQyLDAuMzEsMC43NiwwLjY5LDEuMDUsMS4xNEM3LjY4LDcwLjU2LDcuODIsNzEuMTUsNy44Miw3MS44N3oiLz4mI3hhOwkJCQk8L2c+JiN4YTsJCQkJPGcgaWQ9InNoYXBlMTA4OC0xOSIgdHJhbnNmb3JtPSJ0cmFuc2xhdGUoMjEuMTU0MykiPiYjeGE7CQkJCQk8dGl0bGUgaWQ9InRpdGxlMTgxNTU4Ij5TaGVldC4xMDg4PC90aXRsZT4mI3hhOwkJCQkJPHBhdGggaWQ9InBhdGgxODE1NjAiIGlua3NjYXBlOmNvbm5lY3Rvci1jdXJ2YXR1cmU9IjAiIHN0eWxlPSJmaWxsOiNGRkZGRkY7IiBkPSJNMTEuMjIsNjguNzRjMCwxLjEzLTAuMTUsMi4xMy0wLjQzLDMgICAgICAgYy0wLjI5LDAuODYtMC42OSwxLjU4LTEuMTksMi4xNWMtMC41MSwwLjU3LTEuMSwxLjAxLTEuNzcsMS4zYy0wLjY4LDAuMjktMS40MiwwLjQ0LTIuMjIsMC40NGMtMC44MSwwLTEuNTUtMC4xNS0yLjIyLTAuNDQgICAgICAgYy0wLjY4LTAuMjktMS4yNy0wLjcyLTEuNzctMS4zYy0wLjUxLTAuNTctMC45MS0xLjI5LTEuMTktMi4xNUMwLjE0LDcwLjg3LDAsNjkuODcsMCw2OC43NGMwLTEuMTMsMC4xNC0yLjEzLDAuNDMtMi45OCAgICAgICBjMC4yOC0wLjg2LDAuNjgtMS41OCwxLjE5LTIuMTVjMC41LTAuNTcsMS4wOS0xLjAxLDEuNzctMS4zMWMwLjY3LTAuMywxLjQxLTAuNDQsMi4yMi0wLjQ0YzAuOCwwLDEuNTQsMC4xNCwyLjIyLDAuNDQgICAgICAgYzAuNjcsMC4zLDEuMjYsMC43NCwxLjc3LDEuMzFjMC41LDAuNTcsMC45LDEuMjksMS4xOSwyLjE1QzExLjA3LDY2LjYxLDExLjIyLDY3LjYxLDExLjIyLDY4Ljc0eiBNNS41NSw3My44NCAgICAgICBjMC40NSwwLDAuODgtMC4wOSwxLjI5LTAuMjdjMC40MS0wLjE3LDAuNzctMC40NiwxLjEtMC44NmMwLjMyLTAuNCwwLjU3LTAuOTMsMC43NS0xLjU4YzAuMTktMC42NiwwLjI4LTEuNDUsMC4zLTIuMzkgICAgICAgYy0wLjAyLTAuOTEtMC4xMS0xLjY5LTAuMjktMi4zM2MtMC4xNy0wLjYzLTAuNDItMS4xNi0wLjczLTEuNThjLTAuMzEtMC40MS0wLjY2LTAuNzEtMS4wNi0wLjg5ICAgICAgIGMtMC4zOS0wLjE4LTAuODEtMC4yOC0xLjI1LTAuMjhjLTAuNDUsMC0wLjg4LDAuMDktMS4yOSwwLjI2cy0wLjc3LDAuNDYtMS4wOSwwLjg3Yy0wLjMyLDAuNC0wLjU4LDAuOTMtMC43NiwxLjU4ICAgICAgIGMtMC4xOCwwLjY0LTAuMjgsMS40My0wLjI5LDIuMzdjMC4wMSwwLjkyLDAuMSwxLjY5LDAuMjgsMi4zNGMwLjE4LDAuNjUsMC40MiwxLjE3LDAuNzMsMS41OHMwLjY3LDAuNzEsMS4wNiwwLjkgICAgICAgQzQuNyw3My43NSw1LjExLDczLjg0LDUuNTUsNzMuODR6Ii8+JiN4YTsJCQkJPC9nPiYjeGE7CQkJCTxnIGlkPSJzaGFwZTEwODktMjEiIHRyYW5zZm9ybT0idHJhbnNsYXRlKDM1LjQ1NzEsLTAuMDkwODU0MSkiPiYjeGE7CQkJCQk8dGl0bGUgaWQ9InRpdGxlMTgxNTYzIj5TaGVldC4xMDg5PC90aXRsZT4mI3hhOwkJCQkJPHBhdGggaWQ9InBhdGgxODE1NjUiIGlua3NjYXBlOmNvbm5lY3Rvci1jdXJ2YXR1cmU9IjAiIHN0eWxlPSJmaWxsOiNGRkZGRkY7IiBkPSJNOS43NCw2Mi4xN3YxMy40Nkg3LjUxbC01LjI4LTkuMjh2OS4yOEgwICAgICAgIFY2Mi4xN2gyLjIzbDUuMjgsOS4yN3YtOS4yN0w5Ljc0LDYyLjE3eiIvPiYjeGE7CQkJCTwvZz4mI3hhOwkJCTwvZz4mI3hhOwkJPC9nPiYjeGE7CTwvZz4mI3hhOzwvZz4mI3hhOzwvc3ZnPg==;" parent="1" vertex="1">
          <mxGeometry x="1183" y="428" width="77" height="76" as="geometry" />
        </mxCell>
        <mxCell id="wG_c4dULW8k_WJfXNpnm-2091" value="" style="shape=image;verticalLabelPosition=bottom;labelBackgroundColor=#ffffff;verticalAlign=top;aspect=fixed;imageAspect=0;image=data:image/svg+xml,PHN2ZyB4bWxuczpjYz0iaHR0cDovL2NyZWF0aXZlY29tbW9ucy5vcmcvbnMjIiB4bWxuczpkYz0iaHR0cDovL3B1cmwub3JnL2RjL2VsZW1lbnRzLzEuMS8iIHhtbG5zOmlua3NjYXBlPSJodHRwOi8vd3d3Lmlua3NjYXBlLm9yZy9uYW1lc3BhY2VzL2lua3NjYXBlIiB4bWxuczpyZGY9Imh0dHA6Ly93d3cudzMub3JnLzE5OTkvMDIvMjItcmRmLXN5bnRheC1ucyMiIHhtbG5zOnNvZGlwb2RpPSJodHRwOi8vc29kaXBvZGkuc291cmNlZm9yZ2UubmV0L0RURC9zb2RpcG9kaS0wLmR0ZCIgeG1sbnM6c3ZnPSJodHRwOi8vd3d3LnczLm9yZy8yMDAwL3N2ZyIgeG1sbnM9Imh0dHA6Ly93d3cudzMub3JnLzIwMDAvc3ZnIiB4bWxuczp4bGluaz0iaHR0cDovL3d3dy53My5vcmcvMTk5OS94bGluayIgdmVyc2lvbj0iMS4xIiBpZD0ic3ZnMTAwNSIgaW5rc2NhcGU6dmVyc2lvbj0iMC45Mi4zICgyNDA1NTQ2LCAyMDE4LTAzLTExKSIgc29kaXBvZGk6ZG9jbmFtZT0ieG1sLnN2ZyIgeD0iMHB4IiB5PSIwcHgiIHZpZXdCb3g9IjAgMCA0OCA0OCIgc3R5bGU9ImVuYWJsZS1iYWNrZ3JvdW5kOm5ldyAwIDAgNDggNDg7IiB4bWw6c3BhY2U9InByZXNlcnZlIj4mI3hhOzxzb2RpcG9kaTpuYW1lZHZpZXcgYm9yZGVyY29sb3I9IiM2NjY2NjYiIGJvcmRlcm9wYWNpdHk9IjEiIGZpdC1tYXJnaW4tYm90dG9tPSIwIiBmaXQtbWFyZ2luLWxlZnQ9IjAiIGZpdC1tYXJnaW4tcmlnaHQ9IjAiIGZpdC1tYXJnaW4tdG9wPSIwIiBncmlkdG9sZXJhbmNlPSIxMCIgZ3VpZGV0b2xlcmFuY2U9IjEwIiBpZD0ibmFtZWR2aWV3MTAwNyIgaW5rc2NhcGU6Y3VycmVudC1sYXllcj0ic3ZnMTAwNSIgaW5rc2NhcGU6Y3g9IjMxLjY4NDE4NCIgaW5rc2NhcGU6Y3k9IjMxLjY4NDE4OCIgaW5rc2NhcGU6cGFnZW9wYWNpdHk9IjAiIGlua3NjYXBlOnBhZ2VzaGFkb3c9IjIiIGlua3NjYXBlOndpbmRvdy1oZWlnaHQ9IjEwMTciIGlua3NjYXBlOndpbmRvdy1tYXhpbWl6ZWQ9IjEiIGlua3NjYXBlOndpbmRvdy13aWR0aD0iMTkyMCIgaW5rc2NhcGU6d2luZG93LXg9Ii04IiBpbmtzY2FwZTp3aW5kb3cteT0iLTgiIGlua3NjYXBlOnpvb209IjEzLjAxMTgyOSIgb2JqZWN0dG9sZXJhbmNlPSIxMCIgcGFnZWNvbG9yPSIjZmZmZmZmIiBzaG93Z3JpZD0iZmFsc2UiPiYjeGE7CTwvc29kaXBvZGk6bmFtZWR2aWV3PiYjeGE7PGcgaWQ9InNoYXBlMTA2MS0yIiB0cmFuc2Zvcm09InRyYW5zbGF0ZSgwLC0xLjk3MzY5OTYpIj4mI3hhOwk8dGl0bGUgaWQ9InRpdGxlOTY2Ij5jaXJjbGU2MTMzPC90aXRsZT4mI3hhOwk8Y2lyY2xlIGlkPSJlbGxpcHNlOTY4IiBzdHlsZT0iZmlsbDojMkU3NUI1OyIgY3g9IjI0IiBjeT0iMjUuOTciIHI9IjI0Ii8+JiN4YTs8L2c+JiN4YTs8ZyBpZD0ic2hhcGUxMDYyLTQiIHRyYW5zZm9ybT0idHJhbnNsYXRlKDYuNTU1NjksLTguNTI5Mzg5NikiPiYjeGE7CTx0aXRsZSBpZD0idGl0bGU5NzEiPnBhdGg2MTM1PC90aXRsZT4mI3hhOwk8cGF0aCBpZD0icGF0aDk3MyIgaW5rc2NhcGU6Y29ubmVjdG9yLWN1cnZhdHVyZT0iMCIgc3R5bGU9ImZpbGw6I0MwMDAwMDtmaWxsLW9wYWNpdHk6MC4wOTg7IiBkPSJNMSwxNS4wOSAgIGMtOS44OSw4LjgyLTEwLjc3LDIzLjk5LTEuOTUsMzMuODlzMjMuOTksMTAuNzcsMzMuODksMS45NWMwLjY5LTAuNjEsMS4zNC0xLjI2LDEuOTUtMS45NUwxLDE1LjA5eiIvPiYjeGE7PC9nPiYjeGE7PGcgaWQ9Imdyb3VwMTA2My02IiB0cmFuc2Zvcm09InRyYW5zbGF0ZSgzLjI3Nzg1LC0yMS4xOTI5KSI+JiN4YTsJPHRpdGxlIGlkPSJ0aXRsZTk3NiI+U2hlZXQuMTA2MzwvdGl0bGU+JiN4YTsJPGcgaWQ9InNoYXBlMTA2NC03Ij4mI3hhOwkJPHRpdGxlIGlkPSJ0aXRsZTk3OCI+U2hlZXQuMTA2NDwvdGl0bGU+JiN4YTsJCSYjeGE7CQkJPHBhdGggaWQ9InBhdGg5ODAiIGlua3NjYXBlOmNvbm5lY3Rvci1jdXJ2YXR1cmU9IjAiIHN0eWxlPSJmaWxsOiNGRkZGRkY7c3Ryb2tlOiNGRkZGRkY7c3Ryb2tlLXdpZHRoOjAuMjU7c3Ryb2tlLW1pdGVybGltaXQ6MzsiIGQ9IiAgICBNMzYuNyw0OS45N2MtMC4yMywwLTAuNDYtMC4wOS0wLjYyLTAuMjVsLTAuNDItMC40MmMtMC4xNi0wLjE3LTAuMjYtMC4zOS0wLjI2LTAuNjJjMC0wLjIyLDAuMS0wLjQ1LDAuMjYtMC42MWwyLjg0LTIuODQgICAgbC0yLjg0LTIuODVjLTAuMTYtMC4xNi0wLjI2LTAuMzktMC4yNi0wLjYxYzAtMC4yMywwLjEtMC40NSwwLjI2LTAuNjFsMC40Mi0wLjQyYzAuMzMtMC4zMywwLjkxLTAuMzMsMS4yMywwbDMuODgsMy44NyAgICBjMC4xNiwwLjE2LDAuMjUsMC4zOSwwLjI1LDAuNjJjMCwwLjIyLTAuMDksMC40NS0wLjI1LDAuNjFsLTMuODgsMy44OEMzNy4xNSw0OS44OCwzNi45Miw0OS45NywzNi43LDQ5Ljk3eiBNNC43NSw0OS45NyAgICBjLTAuMjMsMC0wLjQ1LTAuMDktMC42Mi0wLjI1bC0zLjg3LTMuODhDMC4xLDQ1LjY4LDAsNDUuNDUsMCw0NS4yM2MwLTAuMjMsMC4xLTAuNDYsMC4yNi0wLjYybDMuODctMy44NyAgICBjMC4zMy0wLjMzLDAuOTEtMC4zMywxLjIzLDBsMC40MiwwLjQyYzAuMTYsMC4xNiwwLjI2LDAuMzgsMC4yNiwwLjYxYzAsMC4yMi0wLjEsMC40NS0wLjI2LDAuNjFsLTIuODQsMi44NWwyLjg0LDIuODQgICAgYzAuMTYsMC4xNiwwLjI2LDAuMzksMC4yNiwwLjYxYzAsMC4yMy0wLjEsMC40NS0wLjI2LDAuNjJsLTAuNDIsMC40MkM1LjIsNDkuODgsNS4wMSw0OS45Nyw0Ljc1LDQ5Ljk3eiIvPiYjeGE7CTwvZz4mI3hhOwk8ZyBpZD0iZ3JvdXAxMDY1LTkiIHRyYW5zZm9ybT0idHJhbnNsYXRlKDEwLjQzMzgsLTEuMDk4MjkpIj4mI3hhOwkJPHRpdGxlIGlkPSJ0aXRsZTk4MyI+U2hlZXQuMTA2NTwvdGl0bGU+JiN4YTsJCTxnIGlkPSJzaGFwZTEwNjYtMTAiPiYjeGE7CQkJPHRpdGxlIGlkPSJ0aXRsZTk4NSI+U2hlZXQuMTA2NjwvdGl0bGU+JiN4YTsJCQkmI3hhOwkJCQk8cGF0aCBpZD0icGF0aDk4NyIgaW5rc2NhcGU6Y29ubmVjdG9yLWN1cnZhdHVyZT0iMCIgc3R5bGU9ImZpbGw6I0ZGRkZGRjtzdHJva2U6I0ZGRkZGRjtzdHJva2Utd2lkdGg6MC4yNTtzdHJva2UtbWl0ZXJsaW1pdDozOyIgZD0iICAgICBNMi41OCw0Ni4xOUwwLjE2LDQyLjhoMS4yNmwxLjg3LDIuNzVsMS44NS0yLjc1aDEuMjJsLTIuMzksMy4zOWwyLjYyLDMuNzhINS4zM2wtMi4wNy0zLjFsLTIuMDYsMy4xSDBMMi41OCw0Ni4xOXoiLz4mI3hhOwkJPC9nPiYjeGE7CQk8ZyBpZD0ic2hhcGUxMDY3LTEyIiB0cmFuc2Zvcm09InRyYW5zbGF0ZSg3LjM2NTAxKSI+JiN4YTsJCQk8dGl0bGUgaWQ9InRpdGxlOTkwIj5TaGVldC4xMDY3PC90aXRsZT4mI3hhOwkJCSYjeGE7CQkJCTxwYXRoIGlkPSJwYXRoOTkyIiBpbmtzY2FwZTpjb25uZWN0b3ItY3VydmF0dXJlPSIwIiBzdHlsZT0iZmlsbDojRkZGRkZGO3N0cm9rZTojRkZGRkZGO3N0cm9rZS13aWR0aDowLjI1O3N0cm9rZS1taXRlcmxpbWl0OjM7IiBkPSIgICAgIE0wLjAzLDQyLjhoMS40NmwyLjI2LDUuNDNoMC4wM2wyLjI2LTUuNDNoMS40NXY3LjE3SDYuNTN2LTUuODhINi40OWwtMi40Miw1Ljg4SDMuNDJMMSw0NC4wOUgwLjk3djUuODhIMFY0Mi44SDAuMDN6Ii8+JiN4YTsJCTwvZz4mI3hhOwkJPGcgaWQ9InNoYXBlMTA2OC0xNCIgdHJhbnNmb3JtPSJ0cmFuc2xhdGUoMTYuNjM1OSwtMC4wMzIzMDI3KSI+JiN4YTsJCQk8dGl0bGUgaWQ9InRpdGxlOTk1Ij5TaGVldC4xMDY4PC90aXRsZT4mI3hhOwkJCSYjeGE7CQkJCTxwYXRoIGlkPSJwYXRoOTk3IiBpbmtzY2FwZTpjb25uZWN0b3ItY3VydmF0dXJlPSIwIiBzdHlsZT0iZmlsbDojRkZGRkZGO3N0cm9rZTojRkZGRkZGO3N0cm9rZS13aWR0aDowLjI1O3N0cm9rZS1taXRlcmxpbWl0OjM7IiBkPSIgICAgIE0wLDQyLjgzaDAuOTd2Ni4yNGgzLjI5djAuOUgwVjQyLjgzeiIvPiYjeGE7CQk8L2c+JiN4YTsJPC9nPiYjeGE7PC9nPiYjeGE7PC9zdmc+;" parent="1" vertex="1">
          <mxGeometry x="1221" y="542" width="48" height="48" as="geometry" />
        </mxCell>
        <mxCell id="wG_c4dULW8k_WJfXNpnm-2092" value="" style="shape=image;verticalLabelPosition=bottom;labelBackgroundColor=#ffffff;verticalAlign=top;aspect=fixed;imageAspect=0;image=data:image/svg+xml,PHN2ZyB4bWxuczpjYz0iaHR0cDovL2NyZWF0aXZlY29tbW9ucy5vcmcvbnMjIiB4bWxuczpkYz0iaHR0cDovL3B1cmwub3JnL2RjL2VsZW1lbnRzLzEuMS8iIHhtbG5zOmlua3NjYXBlPSJodHRwOi8vd3d3Lmlua3NjYXBlLm9yZy9uYW1lc3BhY2VzL2lua3NjYXBlIiB4bWxuczpyZGY9Imh0dHA6Ly93d3cudzMub3JnLzE5OTkvMDIvMjItcmRmLXN5bnRheC1ucyMiIHhtbG5zOnNvZGlwb2RpPSJodHRwOi8vc29kaXBvZGkuc291cmNlZm9yZ2UubmV0L0RURC9zb2RpcG9kaS0wLmR0ZCIgeG1sbnM6c3ZnPSJodHRwOi8vd3d3LnczLm9yZy8yMDAwL3N2ZyIgeG1sbnM9Imh0dHA6Ly93d3cudzMub3JnLzIwMDAvc3ZnIiB4bWxuczp4bGluaz0iaHR0cDovL3d3dy53My5vcmcvMTk5OS94bGluayIgdmVyc2lvbj0iMS4xIiBpZD0ic3ZnOTcxMDUiIGlua3NjYXBlOnZlcnNpb249IjAuOTIuMyAoMjQwNTU0NiwgMjAxOC0wMy0xMSkiIHNvZGlwb2RpOmRvY25hbWU9ImNsb3VkX2RhdGFiYXNlLnN2ZyIgeD0iMHB4IiB5PSIwcHgiIHZpZXdCb3g9IjAgMCAxNDQuMzUgNzkuMjkiIHN0eWxlPSJlbmFibGUtYmFja2dyb3VuZDpuZXcgMCAwIDE0NC4zNSA3OS4yOTsiIHhtbDpzcGFjZT0icHJlc2VydmUiPiYjeGE7PHNvZGlwb2RpOm5hbWVkdmlldyBib3JkZXJjb2xvcj0iIzY2NjY2NiIgYm9yZGVyb3BhY2l0eT0iMSIgZml0LW1hcmdpbi1ib3R0b209IjAiIGZpdC1tYXJnaW4tbGVmdD0iMCIgZml0LW1hcmdpbi1yaWdodD0iMCIgZml0LW1hcmdpbi10b3A9IjAiIGdyaWR0b2xlcmFuY2U9IjEwIiBndWlkZXRvbGVyYW5jZT0iMTAiIGlkPSJuYW1lZHZpZXc5NzEwNyIgaW5rc2NhcGU6Y3VycmVudC1sYXllcj0ic3ZnOTcxMDUiIGlua3NjYXBlOmN4PSI5Ni4yMzk3MjkiIGlua3NjYXBlOmN5PSI1Mi44Njc1MTkiIGlua3NjYXBlOnBhZ2VvcGFjaXR5PSIwIiBpbmtzY2FwZTpwYWdlc2hhZG93PSIyIiBpbmtzY2FwZTp3aW5kb3ctaGVpZ2h0PSIxMDE3IiBpbmtzY2FwZTp3aW5kb3ctbWF4aW1pemVkPSIxIiBpbmtzY2FwZTp3aW5kb3ctd2lkdGg9IjE5MjAiIGlua3NjYXBlOndpbmRvdy14PSItOCIgaW5rc2NhcGU6d2luZG93LXk9Ii04IiBpbmtzY2FwZTp6b29tPSI4LjA0NzgwNzgiIG9iamVjdHRvbGVyYW5jZT0iMTAiIHBhZ2Vjb2xvcj0iI2ZmZmZmZiIgc2hvd2dyaWQ9ImZhbHNlIj4mI3hhOwk8L3NvZGlwb2RpOm5hbWVkdmlldz4mI3hhOzxnIGlkPSJnOTcxMDMiIHRyYW5zZm9ybT0idHJhbnNsYXRlKC0wLjc0MDAwMTYsLTAuNzU1NjEzMTMpIj4mI3hhOwk8dGl0bGUgaWQ9InRpdGxlOTcwNjUiPlBhZ2UtMTwvdGl0bGU+JiN4YTsJPGcgaWQ9Imdyb3VwMzUxMy0xIiB0cmFuc2Zvcm09InRyYW5zbGF0ZSgwLjg3NzAwMywtMC43NSkiPiYjeGE7CQk8dGl0bGUgaWQ9InRpdGxlOTcwNjciPkNsb3VkIERhdGFiYXNlPC90aXRsZT4mI3hhOwkJPGcgaWQ9InNoYXBlMzUxNC0yIiB0cmFuc2Zvcm09InRyYW5zbGF0ZSgwLC0xMC4xNDIxKSI+JiN4YTsJCQk8dGl0bGUgaWQ9InRpdGxlOTcwNjkiPnBhdGgxMDE0PC90aXRsZT4mI3hhOwkJCTxwYXRoIGlkPSJwYXRoOTcwNzEiIGlua3NjYXBlOmNvbm5lY3Rvci1jdXJ2YXR1cmU9IjAiIHN0eWxlPSJmaWxsOiM4MERFRjk7ZmlsbC1vcGFjaXR5OjAuNzsiIGQ9Ik0xMTIuMiwzNi44OSAgICAgYy0yLjM3LTE2LjEzLTE3LjM3LTI3LjMtMzMuNS0yNC45M0M2Ni4xNCwxMy44LDU2LjE2LDIzLjQ3LDUzLjkyLDM1Ljk3Yy04LjUzLTcuMS0yMS4yLTUuOTMtMjguMywyLjYgICAgIGMtMS44NSwyLjIzLTMuMiw0LjgzLTMuOTUsNy42MmMtOS40MS0yLjM0LTE4Ljk0LDMuMzktMjEuMjksMTIuOHMzLjM5LDE4Ljk0LDEyLjgsMjEuMjljMS40LDAuMzUsMi44NSwwLjUyLDQuMjksMC41Mmg5OC44MiAgICAgYzEwLjAzLTIuMDMsMTcuNTgtMTEuMzQsMTcuNTgtMjEuOTZDMTMzLjg4LDQ2LjgyLDEyNC4yMiwzNy4wNCwxMTIuMiwzNi44OXoiLz4mI3hhOwkJPC9nPiYjeGE7CQk8ZyBpZD0iZ3JvdXAzNTE1LTQiIHRyYW5zZm9ybT0idHJhbnNsYXRlKDk5LjIxMjYpIj4mI3hhOwkJCTx0aXRsZSBpZD0idGl0bGU5NzA3NCI+U2hlZXQuMzUxNTwvdGl0bGU+JiN4YTsJCQk8ZyBpZD0ic2hhcGUzNTE2LTUiPiYjeGE7CQkJCTx0aXRsZSBpZD0idGl0bGU5NzA3NiI+cGF0aDExNjk8L3RpdGxlPiYjeGE7CQkJCTxwYXRoIGlkPSJwYXRoOTcwNzgiIGlua3NjYXBlOmNvbm5lY3Rvci1jdXJ2YXR1cmU9IjAiIHN0eWxlPSJmaWxsOiMzMTYzODk7IiBkPSJNMjIuNSwzMS4wMUgwdjQyLjU0ICAgICAgYzAsNC4zOCwxMS4yNSw3LjI1LDIyLjUsNy4yNVM0NSw3Ny43MSw0NSw3My4zVjMxLjAxSDIyLjV6Ii8+JiN4YTsJCQk8L2c+JiN4YTsJCQk8ZyBpZD0ic2hhcGUzNTE3LTciIHRyYW5zZm9ybT0idHJhbnNsYXRlKDIyLjUsLTAuMjg1KSI+JiN4YTsJCQkJPHRpdGxlIGlkPSJ0aXRsZTk3MDgxIj5wYXRoMTE3MTwvdGl0bGU+JiN4YTsJCQkJPHBhdGggaWQ9InBhdGg5NzA4MyIgaW5rc2NhcGU6Y29ubmVjdG9yLWN1cnZhdHVyZT0iMCIgc3R5bGU9ImZpbGw6I0ZGRkZGRjtmaWxsLW9wYWNpdHk6MC4wOTg7IiBkPSJNMCw4MC44aDAuMzEgICAgICBjMTIuMjUsMCwyMi4xOS0zLjU2LDIyLjE5LTcuOTV2LTQyLjNIMFY4MC44eiIvPiYjeGE7CQkJPC9nPiYjeGE7CQkJPGcgaWQ9InNoYXBlMzUxOC05IiB0cmFuc2Zvcm09InRyYW5zbGF0ZSgwLC00Mi4xMikiPiYjeGE7CQkJCTx0aXRsZSBpZD0idGl0bGU5NzA4NiI+cGF0aDExNzM8L3RpdGxlPiYjeGE7CQkJCTxwYXRoIGlkPSJwYXRoOTcwODgiIGlua3NjYXBlOmNvbm5lY3Rvci1jdXJ2YXR1cmU9IjAiIHN0eWxlPSJmaWxsOiM2MzhBQTU7IiBkPSJNNDUsNzIuODRjMCw0LjQtMTAuMDcsNy45Ni0yMi41LDcuOTYgICAgICBTMCw3Ny4yNCwwLDcyLjg0YzAtNC4zOSwxMC4wNy03Ljk2LDIyLjUtNy45NlM0NSw2OC40NSw0NSw3Mi44NHoiLz4mI3hhOwkJCTwvZz4mI3hhOwkJCTxnIGlkPSJzaGFwZTM1MTktMTEiIHRyYW5zZm9ybT0idHJhbnNsYXRlKDMuNTQsLTQ0LjUzNSkiPiYjeGE7CQkJCTx0aXRsZSBpZD0idGl0bGU5NzA5MSI+cGF0aDExNzU8L3RpdGxlPiYjeGE7CQkJCTxwYXRoIGlkPSJwYXRoOTcwOTMiIGlua3NjYXBlOmNvbm5lY3Rvci1jdXJ2YXR1cmU9IjAiIHN0eWxlPSJmaWxsOiMxNzVEODc7IiBkPSJNMzcuMzksNzUuNTVjMCwyLjktOC4zNyw1LjI1LTE4LjY5LDUuMjUgICAgICBDOC4zNyw4MC44LDAsNzguNDQsMCw3NS41NWMwLTIuOSw4LjM3LTUuMjUsMTguNy01LjI1QzI5LjAyLDcwLjMsMzcuMzksNzIuNjUsMzcuMzksNzUuNTV6Ii8+JiN4YTsJCQk8L2c+JiN4YTsJCQk8ZyBpZD0ic2hhcGUzNTIwLTEzIiB0cmFuc2Zvcm09InRyYW5zbGF0ZSgzLjUzMjUsLTQ2LjU3NSkiPiYjeGE7CQkJCTx0aXRsZSBpZD0idGl0bGU5NzA5NiI+cGF0aDExNzc8L3RpdGxlPiYjeGE7CQkJCTxwYXRoIGlkPSJwYXRoOTcwOTgiIGlua3NjYXBlOmNvbm5lY3Rvci1jdXJ2YXR1cmU9IjAiIHN0eWxlPSJmaWxsOiMzNzcwOTM7IiBkPSJNMzMuNDgsODAuOGMyLjQ0LTAuODksMy45MS0yLDMuOTEtMy4yICAgICAgYzAtMi45MS04LjM3LTUuMjUtMTguNjktNS4yNUM4LjM3LDcyLjM1LDAsNzQuNjksMCw3Ny42YzAsMS4yLDEuNSwyLjMxLDMuOTEsMy4yYzMuNDItMS4yNCw4Ljc2LTIuMDQsMTQuNzktMi4wNCAgICAgIEMyNC43Miw3OC43NiwzMC4wNiw3OS41NiwzMy40OCw4MC44eiIvPiYjeGE7CQkJPC9nPiYjeGE7CQk8L2c+JiN4YTsJPC9nPiYjeGE7PC9nPiYjeGE7PC9zdmc+;" parent="1" vertex="1">
          <mxGeometry x="1160" y="630" width="144" height="79" as="geometry" />
        </mxCell>
        <mxCell id="wG_c4dULW8k_WJfXNpnm-2093" value="" style="shape=image;verticalLabelPosition=bottom;labelBackgroundColor=#ffffff;verticalAlign=top;aspect=fixed;imageAspect=0;image=data:image/svg+xml,PHN2ZyB4bWxuczpjYz0iaHR0cDovL2NyZWF0aXZlY29tbW9ucy5vcmcvbnMjIiB4bWxuczpkYz0iaHR0cDovL3B1cmwub3JnL2RjL2VsZW1lbnRzLzEuMS8iIHhtbG5zOmlua3NjYXBlPSJodHRwOi8vd3d3Lmlua3NjYXBlLm9yZy9uYW1lc3BhY2VzL2lua3NjYXBlIiB4bWxuczpyZGY9Imh0dHA6Ly93d3cudzMub3JnLzE5OTkvMDIvMjItcmRmLXN5bnRheC1ucyMiIHhtbG5zOnNvZGlwb2RpPSJodHRwOi8vc29kaXBvZGkuc291cmNlZm9yZ2UubmV0L0RURC9zb2RpcG9kaS0wLmR0ZCIgeG1sbnM6c3ZnPSJodHRwOi8vd3d3LnczLm9yZy8yMDAwL3N2ZyIgeG1sbnM9Imh0dHA6Ly93d3cudzMub3JnLzIwMDAvc3ZnIiB4bWxuczp4bGluaz0iaHR0cDovL3d3dy53My5vcmcvMTk5OS94bGluayIgdmVyc2lvbj0iMS4xIiBpZD0ic3ZnNDgzNjYiIGlua3NjYXBlOnZlcnNpb249IjAuOTIuMyAoMjQwNTU0NiwgMjAxOC0wMy0xMSkiIHNvZGlwb2RpOmRvY25hbWU9ImFkdmlzb3Iuc3ZnIiB4PSIwcHgiIHk9IjBweCIgdmlld0JveD0iMCAwIDM5LjA0IDM5LjA0IiBzdHlsZT0iZW5hYmxlLWJhY2tncm91bmQ6bmV3IDAgMCAzOS4wNCAzOS4wNDsiIHhtbDpzcGFjZT0icHJlc2VydmUiPiYjeGE7PHNvZGlwb2RpOm5hbWVkdmlldyBib3JkZXJjb2xvcj0iIzY2NjY2NiIgYm9yZGVyb3BhY2l0eT0iMSIgZml0LW1hcmdpbi1ib3R0b209IjAiIGZpdC1tYXJnaW4tbGVmdD0iMCIgZml0LW1hcmdpbi1yaWdodD0iMCIgZml0LW1hcmdpbi10b3A9IjAiIGdyaWR0b2xlcmFuY2U9IjEwIiBndWlkZXRvbGVyYW5jZT0iMTAiIGlkPSJuYW1lZHZpZXc0ODM2OCIgaW5rc2NhcGU6Y3VycmVudC1sYXllcj0ic3ZnNDgzNjYiIGlua3NjYXBlOmN4PSIzMi45ODI0NjQiIGlua3NjYXBlOmN5PSIxOS42OTA2MSIgaW5rc2NhcGU6cGFnZW9wYWNpdHk9IjAiIGlua3NjYXBlOnBhZ2VzaGFkb3c9IjIiIGlua3NjYXBlOndpbmRvdy1oZWlnaHQ9IjEwMTciIGlua3NjYXBlOndpbmRvdy1tYXhpbWl6ZWQ9IjEiIGlua3NjYXBlOndpbmRvdy13aWR0aD0iMTkyMCIgaW5rc2NhcGU6d2luZG93LXg9Ii04IiBpbmtzY2FwZTp3aW5kb3cteT0iLTgiIGlua3NjYXBlOnpvb209IjExLjM0MzA3MSIgb2JqZWN0dG9sZXJhbmNlPSIxMCIgcGFnZWNvbG9yPSIjZmZmZmZmIiBzaG93Z3JpZD0iZmFsc2UiPiYjeGE7CTwvc29kaXBvZGk6bmFtZWR2aWV3PiYjeGE7PGcgaWQ9Imc0ODM2NCIgdHJhbnNmb3JtPSJ0cmFuc2xhdGUoLTAuNzUsLTAuNzQ4MikiPiYjeGE7CTx0aXRsZSBpZD0idGl0bGU0ODMyOSI+UGFnZS0xPC90aXRsZT4mI3hhOwk8ZyBpZD0iZ3JvdXA1NzQxLTEiIHRyYW5zZm9ybT0idHJhbnNsYXRlKDAuNzUsLTAuNzUpIj4mI3hhOwkJPHRpdGxlIGlkPSJ0aXRsZTQ4MzMxIj5BZHZpc29yPC90aXRsZT4mI3hhOwkJPGcgaWQ9InNoYXBlNTc0Mi0yIiB0cmFuc2Zvcm09InRyYW5zbGF0ZSgwLC0xNC41NjE4KSI+JiN4YTsJCQk8dGl0bGUgaWQ9InRpdGxlNDgzMzMiPlNoZWV0LjU3NDI8L3RpdGxlPiYjeGE7CQkJPHBhdGggaWQ9InBhdGg0ODMzNSIgaW5rc2NhcGU6Y29ubmVjdG9yLWN1cnZhdHVyZT0iMCIgc3R5bGU9ImZpbGw6IzU5QjREOTsiIGQ9Ik0zOS4wNCwzNS44OWMwLTIuNTctMi4wOS00LjUzLTQuNTMtNC41MyAgICAgYy0wLjI1LDAtMC4zNywwLTAuNjEsMGMwLjI0LTAuOTgsMC40OS0yLjA4LDAuNDktMy4xOGMwLTYuNzMtNS4zOS0xMi4xMi0xMi4xMi0xMi4xMmMtNS4yNiwwLTkuNzksMy40My0xMS4zOCw4LjMyICAgICBjLTAuODYtMC4yNC0xLjcxLTAuNDktMi42OS0wLjQ5Yy00LjUzLDAtOC4yLDMuNjctOC4yLDguMzJzMy42Nyw4LjMzLDguMiw4LjMzaDI2LjY4QzM3LjIsNDAuMjksMzkuMDQsMzguMzMsMzkuMDQsMzUuODl6Ii8+JiN4YTsJCTwvZz4mI3hhOwkJPGcgaWQ9InNoYXBlNTc0My00IiB0cmFuc2Zvcm09InRyYW5zbGF0ZSgwLC0xNC41NjE4KSI+JiN4YTsJCQk8dGl0bGUgaWQ9InRpdGxlNDgzMzgiPlNoZWV0LjU3NDM8L3RpdGxlPiYjeGE7CQkJPHBhdGggaWQ9InBhdGg0ODM0MCIgaW5rc2NhcGU6Y29ubmVjdG9yLWN1cnZhdHVyZT0iMCIgc3R5bGU9ImZpbGw6I0ZGRkZGRjtmaWxsLW9wYWNpdHk6MC4yOyIgZD0iTTEyLjQ4LDQwLjU0ICAgICBjLTEuMS0xLjExLTEuODMtMi40NS0yLjItNC4wNGMtMC45OC00LjUzLDEuNzEtOC45NCw2LjI0LTkuOTFjMC45OC0wLjI1LDEuODQtMC4yNSwyLjY5LTAuMTNjMC4zNy00LjE2LDIuOTQtNy45NSw2LjczLTkuNzkgICAgIGMtMS4xLTAuMzYtMi4zMi0wLjYxLTMuNjctMC42MWMtNS4yNiwwLTkuNzksMy40My0xMS4zOCw4LjMyYy0wLjg2LTAuMjQtMS43MS0wLjQ5LTIuNjktMC40OWMtNC41MywwLTguMiwzLjY3LTguMiw4LjMyICAgICBzMy42Nyw4LjMzLDguMiw4LjMzSDEyLjQ4eiIvPiYjeGE7CQk8L2c+JiN4YTsJCTxnIGlkPSJzaGFwZTU3NDQtNiIgdHJhbnNmb3JtPSJ0cmFuc2xhdGUoMTguNTM0OCkiPiYjeGE7CQkJPHRpdGxlIGlkPSJ0aXRsZTQ4MzQzIj5TaGVldC41NzQ0PC90aXRsZT4mI3hhOwkJCTxwYXRoIGlkPSJwYXRoNDgzNDUiIGlua3NjYXBlOmNvbm5lY3Rvci1jdXJ2YXR1cmU9IjAiIHN0eWxlPSJmaWxsOiNCQTE0MUE7IiBkPSJNOS45OCwyNi40NmMtMS4yMywxLjEyLTIuODYsMS43OS00LjY1LDEuNzkgICAgIGMtMS44LDAtMy40Mi0wLjY3LTQuNjYtMS43OUwwLDQwLjU0bDUuMzMtNS4zOWw1LjMyLDUuMzlMOS45OCwyNi40NnoiLz4mI3hhOwkJPC9nPiYjeGE7CQk8ZyBpZD0ic2hhcGU1NzQ1LTgiIHRyYW5zZm9ybT0idHJhbnNsYXRlKDE0Ljc3NzMsLTkuODY4OTQpIj4mI3hhOwkJCTx0aXRsZSBpZD0idGl0bGU0ODM0OCI+U2hlZXQuNTc0NTwvdGl0bGU+JiN4YTsJCQk8Y2lyY2xlIGlkPSJlbGxpcHNlNDgzNTAiIHN0eWxlPSJmaWxsOiNERDU5MDA7IiBjeD0iOS4wOCIgY3k9IjMxLjQ1IiByPSI5LjA4Ii8+JiN4YTsJCTwvZz4mI3hhOwkJPGcgaWQ9InNoYXBlNTc0Ni0xMCIgdHJhbnNmb3JtPSJ0cmFuc2xhdGUoMTcuMDIwMiwtMTIuMTExOSkiPiYjeGE7CQkJPHRpdGxlIGlkPSJ0aXRsZTQ4MzUzIj5TaGVldC41NzQ2PC90aXRsZT4mI3hhOwkJCTxjaXJjbGUgaWQ9ImVsbGlwc2U0ODM1NSIgc3R5bGU9ImZpbGw6I0ZGOEMwMDsiIGN4PSI2Ljg0IiBjeT0iMzMuNjkiIHI9IjYuODQiLz4mI3hhOwkJPC9nPiYjeGE7CQk8ZyBpZD0ic2hhcGU1NzQ3LTEyIiB0cmFuc2Zvcm09InRyYW5zbGF0ZSgxMy44ODEsLTEyLjUwNDYpIj4mI3hhOwkJCTx0aXRsZSBpZD0idGl0bGU0ODM1OCI+U2hlZXQuNTc0NzwvdGl0bGU+JiN4YTsJCQk8cGF0aCBpZD0icGF0aDQ4MzYwIiBpbmtzY2FwZTpjb25uZWN0b3ItY3VydmF0dXJlPSIwIiBzdHlsZT0iZmlsbDojRkZGRkZGO2ZpbGwtb3BhY2l0eTowLjE1OyIgZD0iTTMuNTMsNDAuNTQgICAgIEMwLDM3LDAsMzEuMjMsMy41MywyNy42OWMzLjU0LTMuNTMsOS4zMS0zLjUzLDEyLjg0LDBMMy41Myw0MC41NHoiLz4mI3hhOwkJPC9nPiYjeGE7CTwvZz4mI3hhOzwvZz4mI3hhOzwvc3ZnPg==;" parent="1" vertex="1">
          <mxGeometry x="277" y="459.5" width="51" height="51" as="geometry" />
        </mxCell>
        <mxCell id="wG_c4dULW8k_WJfXNpnm-2094" value="" style="shape=image;verticalLabelPosition=bottom;labelBackgroundColor=#ffffff;verticalAlign=top;aspect=fixed;imageAspect=0;image=data:image/svg+xml,PHN2ZyB4bWxuczpkYz0iaHR0cDovL3B1cmwub3JnL2RjL2VsZW1lbnRzLzEuMS8iIHhtbG5zOmNjPSJodHRwOi8vY3JlYXRpdmVjb21tb25zLm9yZy9ucyMiIHhtbG5zOnJkZj0iaHR0cDovL3d3dy53My5vcmcvMTk5OS8wMi8yMi1yZGYtc3ludGF4LW5zIyIgeG1sbnM6c3ZnPSJodHRwOi8vd3d3LnczLm9yZy8yMDAwL3N2ZyIgeG1sbnM9Imh0dHA6Ly93d3cudzMub3JnLzIwMDAvc3ZnIiB4bWxuczpzb2RpcG9kaT0iaHR0cDovL3NvZGlwb2RpLnNvdXJjZWZvcmdlLm5ldC9EVEQvc29kaXBvZGktMC5kdGQiIHhtbG5zOmlua3NjYXBlPSJodHRwOi8vd3d3Lmlua3NjYXBlLm9yZy9uYW1lc3BhY2VzL2lua3NjYXBlIiB2ZXJzaW9uPSIxLjEiIGlkPSJzdmc2MTkzMyIgaW5rc2NhcGU6dmVyc2lvbj0iMC45Mi4zICgyNDA1NTQ2LCAyMDE4LTAzLTExKSIgc29kaXBvZGk6ZG9jbmFtZT0iYXp1cmVfc2VjdXJpdHkuc3ZnIiB4PSIwcHgiIHk9IjBweCIgdmlld0JveD0iMCAwIDc1LjUyIDEwMi45NyIgeG1sOnNwYWNlPSJwcmVzZXJ2ZSIgd2lkdGg9Ijc1LjUxOTk5NyIgaGVpZ2h0PSIxMDIuOTciPjxtZXRhZGF0YSBpZD0ibWV0YWRhdGExMzUxMCI+PHJkZjpSREY+PGNjOldvcmsgcmRmOmFib3V0PSIiPjxkYzpmb3JtYXQ+aW1hZ2Uvc3ZnK3htbDwvZGM6Zm9ybWF0PjxkYzp0eXBlIHJkZjpyZXNvdXJjZT0iaHR0cDovL3B1cmwub3JnL2RjL2RjbWl0eXBlL1N0aWxsSW1hZ2UiLz48ZGM6dGl0bGUvPjwvY2M6V29yaz48L3JkZjpSREY+PC9tZXRhZGF0YT48ZGVmcyBpZD0iZGVmczEzNTA4Ii8+JiN4YTs8ZmlsdGVyIGlkPSJmaWx0ZXJfMiI+JiN4YTsJPGZlR2F1c3NpYW5CbHVyIGlkPSJmZUdhdXNzaWFuQmx1cjYxODk4IiBzdGREZXZpYXRpb249IjIiLz4mI3hhOzwvZmlsdGVyPiYjeGE7PHNvZGlwb2RpOm5hbWVkdmlldyBib3JkZXJjb2xvcj0iIzY2NjY2NiIgYm9yZGVyb3BhY2l0eT0iMSIgZml0LW1hcmdpbi1ib3R0b209IjAiIGZpdC1tYXJnaW4tbGVmdD0iMCIgZml0LW1hcmdpbi1yaWdodD0iMCIgZml0LW1hcmdpbi10b3A9IjAiIGdyaWR0b2xlcmFuY2U9IjEwIiBndWlkZXRvbGVyYW5jZT0iMTAiIGlkPSJuYW1lZHZpZXc2MTkzNSIgaW5rc2NhcGU6Y3VycmVudC1sYXllcj0ic3ZnNjE5MzMiIGlua3NjYXBlOmN4PSIxMS45OTUwNzYiIGlua3NjYXBlOmN5PSI1NC43NzcxMTQiIGlua3NjYXBlOnBhZ2VvcGFjaXR5PSIwIiBpbmtzY2FwZTpwYWdlc2hhZG93PSIyIiBpbmtzY2FwZTp3aW5kb3ctaGVpZ2h0PSIxMDE3IiBpbmtzY2FwZTp3aW5kb3ctbWF4aW1pemVkPSIxIiBpbmtzY2FwZTp3aW5kb3ctd2lkdGg9IjE5MjAiIGlua3NjYXBlOndpbmRvdy14PSItOCIgaW5rc2NhcGU6d2luZG93LXk9Ii04IiBpbmtzY2FwZTp6b29tPSIzLjYwNzc3OTQiIG9iamVjdHRvbGVyYW5jZT0iMTAiIHBhZ2Vjb2xvcj0iI2ZmZmZmZiIgc2hvd2dyaWQ9ImZhbHNlIj4mI3hhOwk8L3NvZGlwb2RpOm5hbWVkdmlldz4mI3hhOyYjeGE7PHBhdGggaWQ9InBhdGg2MTkxMSIgaW5rc2NhcGU6Y29ubmVjdG9yLWN1cnZhdHVyZT0iMCIgc3R5bGU9ImZpbGw6IzdmYmEwMCIgZD0iTSA2NC4zOCwxMi4zOCBDIDQxLjY4LDkuOSAzNy43NiwwIDM3Ljc2LDAgMzcuNzYsMCAzMi42LDEyLjc5IDAsMTIuNzkgdiA1Mi44MyBjIDAsNi4zOSAzLjUxLDEyLjM4IDguNDYsMTcuNTQgMTEuMTQsMTEuNzYgMjkuMywxOS44MSAyOS4zLDE5LjgxIDAsMCAzNy43NiwtMTYuNTEgMzcuNzYsLTM3LjM1IFYgMTIuNzkgYyAtNC4xMiwwIC03Ljg0LC0wLjIgLTExLjE0LC0wLjQxIHoiLz4mI3hhOyYjeGE7PHBhdGggaWQ9InBhdGg2MTkxOSIgaW5rc2NhcGU6Y29ubmVjdG9yLWN1cnZhdHVyZT0iMCIgc3R5bGU9ImZpbGw6I2I4ZDQzMjtmaWxsLW9wYWNpdHk6MC40IiBkPSJNIDQ3LjI1LDM0LjA1IDY0LjM4LDEyLjM4IEMgNDEuNjgsOS45IDM3Ljc2LDAgMzcuNzYsMCAzNy43NiwwIDMyLjYsMTIuNzkgMCwxMi43OSBWIDY1LjYyIEMgMCw3Mi4wMSAzLjUxLDc4IDguNDYsODMuMTYgbCAxMi43OSwtMTYuMSB6Ii8+JiN4YTsmI3hhOzxwYXRoIGlkPSJwYXRoNjE5MjciIGlua3NjYXBlOmNvbm5lY3Rvci1jdXJ2YXR1cmU9IjAiIHN0eWxlPSJmaWxsOiNmZmZmZmYiIGQ9Im0gNTIuODMsNTAuNTUgaCAtMi4yNyB2IC03LjQzIGMgMCwtMy41IC0xLjI0LC02LjgxIC0zLjUxLC05LjA4IGwgLTAuMjEsLTAuMiBjIC0yLjI3LC0yLjQ4IC01LjU3LC0zLjkyIC05LjA4LC0zLjkyIC0zLjUsMCAtNi44MSwxLjY1IC05LjA4LDMuOTIgLTIuMjcsMi40NyAtMy43MSw1Ljc4IC0zLjcxLDkuNDkgdiA3LjQzIEggMjIuNyBjIC0wLjgyLDAgLTEuNjUsMC44MiAtMS42NSwxLjY1IHYgMTQuODYgNC41NCBjIDAsMC44MiAwLjgzLDEuNjUgMS42NSwxLjY1IGggMjkuOTIgYyAwLjgzLDAgMS42NSwtMC44MyAxLjY1LC0xLjY1IHYgLTE5LjQgYyAwLjIxLC0xLjI0IC0wLjYyLC0xLjg2IC0xLjQ0LC0xLjg2IHogbSAtOC4yNiwwIGggLTEwLjMxIC0zLjEgdiAtNy40MyBjIDAsLTIuMDYgMC44MywtMy45MiAyLjA2LC01LjM2IDEuMjQsLTEuMjQgMi44OSwtMi4wNyA0Ljc1LC0yLjA3IDEuODYsMCAzLjUxLDAuODMgNC43NSwyLjA3IDAuMiwwLjQxIDAuNjIsMC42MiAwLjgyLDEuMDMgMC44MywxLjI0IDEuMjQsMi42OCAxLjI0LDQuMzMgLTAuMjEsMCAtMC4yMSw3LjQzIC0wLjIxLDcuNDMgeiIvPiYjeGE7PC9zdmc+;" parent="1" vertex="1">
          <mxGeometry x="1141" y="527" width="76" height="103" as="geometry" />
        </mxCell>
        <mxCell id="wG_c4dULW8k_WJfXNpnm-2095" value="Zeronet-type Portal&#xa;EmerSSL-enabled" style="shape=image;verticalLabelPosition=bottom;labelBackgroundColor=#ffffff;verticalAlign=top;aspect=fixed;imageAspect=0;image=data:image/svg+xml,PHN2ZyB4bWxuczpkYz0iaHR0cDovL3B1cmwub3JnL2RjL2VsZW1lbnRzLzEuMS8iIHhtbG5zOmNjPSJodHRwOi8vY3JlYXRpdmVjb21tb25zLm9yZy9ucyMiIHhtbG5zOnJkZj0iaHR0cDovL3d3dy53My5vcmcvMTk5OS8wMi8yMi1yZGYtc3ludGF4LW5zIyIgeG1sbnM6c3ZnPSJodHRwOi8vd3d3LnczLm9yZy8yMDAwL3N2ZyIgeG1sbnM9Imh0dHA6Ly93d3cudzMub3JnLzIwMDAvc3ZnIiB4bWxuczpzb2RpcG9kaT0iaHR0cDovL3NvZGlwb2RpLnNvdXJjZWZvcmdlLm5ldC9EVEQvc29kaXBvZGktMC5kdGQiIHhtbG5zOmlua3NjYXBlPSJodHRwOi8vd3d3Lmlua3NjYXBlLm9yZy9uYW1lc3BhY2VzL2lua3NjYXBlIiB2ZXJzaW9uPSIxLjEiIGlkPSJzdmc1ODYxNyIgaW5rc2NhcGU6dmVyc2lvbj0iMC45Mi4zICgyNDA1NTQ2LCAyMDE4LTAzLTExKSIgc29kaXBvZGk6ZG9jbmFtZT0iYXp1cmVfZ29udmVybm1lbnQuc3ZnIiB4PSIwcHgiIHk9IjBweCIgdmlld0JveD0iMCAwIDExOS44OCA3Ny4xNCIgc3R5bGU9ImVuYWJsZS1iYWNrZ3JvdW5kOm5ldyAwIDAgMTE5Ljg4IDc3LjE0OyIgeG1sOnNwYWNlPSJwcmVzZXJ2ZSI+PG1ldGFkYXRhIGlkPSJtZXRhZGF0YTEyODY2Ij48cmRmOlJERj48Y2M6V29yayByZGY6YWJvdXQ9IiI+PGRjOmZvcm1hdD5pbWFnZS9zdmcreG1sPC9kYzpmb3JtYXQ+PGRjOnR5cGUgcmRmOnJlc291cmNlPSJodHRwOi8vcHVybC5vcmcvZGMvZGNtaXR5cGUvU3RpbGxJbWFnZSIvPjxkYzp0aXRsZS8+PC9jYzpXb3JrPjwvcmRmOlJERj48L21ldGFkYXRhPjxkZWZzIGlkPSJkZWZzMTI4NjQiLz4mI3hhOzxmaWx0ZXIgaWQ9ImZpbHRlcl8yIj4mI3hhOwk8ZmVHYXVzc2lhbkJsdXIgaWQ9ImZlR2F1c3NpYW5CbHVyNTg1OTAiIHN0ZERldmlhdGlvbj0iMiIvPiYjeGE7PC9maWx0ZXI+JiN4YTs8c29kaXBvZGk6bmFtZWR2aWV3IGJvcmRlcmNvbG9yPSIjNjY2NjY2IiBib3JkZXJvcGFjaXR5PSIxIiBmaXQtbWFyZ2luLWJvdHRvbT0iMCIgZml0LW1hcmdpbi1sZWZ0PSIwIiBmaXQtbWFyZ2luLXJpZ2h0PSIwIiBmaXQtbWFyZ2luLXRvcD0iMCIgZ3JpZHRvbGVyYW5jZT0iMTAiIGd1aWRldG9sZXJhbmNlPSIxMCIgaWQ9Im5hbWVkdmlldzU4NjE5IiBpbmtzY2FwZTpjdXJyZW50LWxheWVyPSJzdmc1ODYxNyIgaW5rc2NhcGU6Y3g9IjEwOC4yNjQwOSIgaW5rc2NhcGU6Y3k9IjQzLjE3NzA2MSIgaW5rc2NhcGU6cGFnZW9wYWNpdHk9IjAiIGlua3NjYXBlOnBhZ2VzaGFkb3c9IjIiIGlua3NjYXBlOndpbmRvdy1oZWlnaHQ9IjEwMTciIGlua3NjYXBlOndpbmRvdy1tYXhpbWl6ZWQ9IjEiIGlua3NjYXBlOndpbmRvdy13aWR0aD0iMTkyMCIgaW5rc2NhcGU6d2luZG93LXg9Ii04IiBpbmtzY2FwZTp3aW5kb3cteT0iLTgiIGlua3NjYXBlOnpvb209IjQuNTI0ODgzMyIgb2JqZWN0dG9sZXJhbmNlPSIxMCIgcGFnZWNvbG9yPSIjZmZmZmZmIiBzaG93Z3JpZD0iZmFsc2UiPiYjeGE7CTwvc29kaXBvZGk6bmFtZWR2aWV3PiYjeGE7JiN4YTs8cGF0aCBpZD0icGF0aDU4NjAzIiBpbmtzY2FwZTpjb25uZWN0b3ItY3VydmF0dXJlPSIwIiBzdHlsZT0iZmlsbDojMDA3MkM2OyIgZD0iTTcxLjE2LDQzLjk0Yy0zLjEsMC01LjczLDEuOTEtNy4xNiw0LjU0SDE5LjgyICBjLTcuNCwwLTEzLjM3LTUuOTctMTMuMzctMTMuMzdjMC03LjQxLDUuOTctMTMuMzgsMTMuMzctMTMuMzhoNi40NWMwLjQ4LTEuNDMsMC43Mi0zLjEsMS40My00LjU0YzAtMC43MSwwLjQ4LTEuNDMsMC40OC0xLjkxICBjMy4xLTUuNzMsOS4wNy05LjA3LDE1Ljc2LTkuMDdjNS45NywwLDExLjIyLDMuMSwxNC41Nyw3LjRjMS45MS0wLjcxLDMuODItMS40Myw1Ljk3LTEuOTFDNjAuNDIsNS4wMiw1Mi41NCwwLDQzLjk0LDAgIEMzMy45MSwwLDI1LjMxLDYuNDUsMjEuNDksMTUuMjhoLTEuNjdDOS4wNywxNS4wNSwwLDIzLjg4LDAsMzQuODdjMCwxMC45OCw5LjA3LDE5LjgyLDE5LjgyLDE5LjgyaDQ0LjY2ICBjMS4xOSwyLjYyLDMuODIsNC41NCw3LjE2LDQuNTRjNC4wNiwwLDcuNDEtMy4zNSw3LjQxLTcuNDFDNzkuMDUsNDcuMjgsNzUuNyw0My45NCw3MS4xNiw0My45NHoiLz4mI3hhOyYjeGE7PHBhdGggaWQ9InBhdGg1ODYxMSIgaW5rc2NhcGU6Y29ubmVjdG9yLWN1cnZhdHVyZT0iMCIgc3R5bGU9ImZpbGw6IzAwNzJDNjsiIGQ9Ik05NiwyOC45Yy00LjU0LTkuMDgtMTMuODUtMTUuMjktMjQuODQtMTUuMjkgIGMtMTMuMTMsMC0yMy44OCw5LjA4LTI2LjUsMjEuMjZjLTYuNDUsMC43MS0xMS45NCw0LjA2LTE1LjI5LDkuMDdoMzIuNzJjMi4xNS0yLjYzLDUuNzMtNC41NCw5LjMxLTQuNTQgIGM2LjY5LDAsMTEuOTQsNS43MywxMS45NCwxMS45NGMwLDYuNjktNS43MywxMS45NC0xMS45NCwxMS45NGMtMy44MiwwLTcuMTYtMS45MS05LjMxLTQuNTNoLTM2LjMgIGMxLjQzLDEwLjUsMTAuNTEsMTguMzksMjEuMDIsMTguMzloNDguNzFjMTMuMzgsMCwyNC4zNi0xMC45OSwyNC4zNi0yNC4zNkMxMTkuODgsMzkuNjQsMTA5LjEzLDI4LjksOTYsMjguOXoiLz4mI3hhOzwvc3ZnPg==;fontColor=#007FFF;" parent="1" vertex="1">
          <mxGeometry x="264.29" y="238" width="77.93" height="50" as="geometry" />
        </mxCell>
        <mxCell id="wG_c4dULW8k_WJfXNpnm-2096" value="" style="shape=image;verticalLabelPosition=bottom;labelBackgroundColor=#ffffff;verticalAlign=top;aspect=fixed;imageAspect=0;image=data:image/svg+xml,PHN2ZyB4bWxuczpkYz0iaHR0cDovL3B1cmwub3JnL2RjL2VsZW1lbnRzLzEuMS8iIHhtbG5zOmNjPSJodHRwOi8vY3JlYXRpdmVjb21tb25zLm9yZy9ucyMiIHhtbG5zOnJkZj0iaHR0cDovL3d3dy53My5vcmcvMTk5OS8wMi8yMi1yZGYtc3ludGF4LW5zIyIgeG1sbnM6c3ZnPSJodHRwOi8vd3d3LnczLm9yZy8yMDAwL3N2ZyIgeG1sbnM9Imh0dHA6Ly93d3cudzMub3JnLzIwMDAvc3ZnIiB4bWxuczpzb2RpcG9kaT0iaHR0cDovL3NvZGlwb2RpLnNvdXJjZWZvcmdlLm5ldC9EVEQvc29kaXBvZGktMC5kdGQiIHhtbG5zOmlua3NjYXBlPSJodHRwOi8vd3d3Lmlua3NjYXBlLm9yZy9uYW1lc3BhY2VzL2lua3NjYXBlIiB2ZXJzaW9uPSIxLjEiIGlkPSJzdmc1MjI2OCIgaW5rc2NhcGU6dmVyc2lvbj0iMC45Mi4zICgyNDA1NTQ2LCAyMDE4LTAzLTExKSIgc29kaXBvZGk6ZG9jbmFtZT0iYXp1cmVfYmFja3VwLnN2ZyIgeD0iMHB4IiB5PSIwcHgiIHZpZXdCb3g9IjAgMCA3NS41MyA2Mi45MyIgeG1sOnNwYWNlPSJwcmVzZXJ2ZSIgd2lkdGg9Ijc1LjUyOTk5OSIgaGVpZ2h0PSI2Mi45MyI+PG1ldGFkYXRhIGlkPSJtZXRhZGF0YTMxODQiPjxyZGY6UkRGPjxjYzpXb3JrIHJkZjphYm91dD0iIj48ZGM6Zm9ybWF0PmltYWdlL3N2Zyt4bWw8L2RjOmZvcm1hdD48ZGM6dHlwZSByZGY6cmVzb3VyY2U9Imh0dHA6Ly9wdXJsLm9yZy9kYy9kY21pdHlwZS9TdGlsbEltYWdlIi8+PGRjOnRpdGxlLz48L2NjOldvcms+PC9yZGY6UkRGPjwvbWV0YWRhdGE+PGRlZnMgaWQ9ImRlZnMzMTgyIj4mI3hhOwkmI3hhOyYjeGE7CSYjeGE7JiN4YTsJCSYjeGE7CSYjeGE7CQkmI3hhOwk8L2RlZnM+JiN4YTs8ZmlsdGVyIGlkPSJmaWx0ZXJfMiI+JiN4YTsJPGZlR2F1c3NpYW5CbHVyIGlkPSJmZUdhdXNzaWFuQmx1cjUyMjQxIiBzdGREZXZpYXRpb249IjIiLz4mI3hhOzwvZmlsdGVyPiYjeGE7PHNvZGlwb2RpOm5hbWVkdmlldyBib3JkZXJjb2xvcj0iIzY2NjY2NiIgYm9yZGVyb3BhY2l0eT0iMSIgZml0LW1hcmdpbi1ib3R0b209IjAiIGZpdC1tYXJnaW4tbGVmdD0iMCIgZml0LW1hcmdpbi1yaWdodD0iMCIgZml0LW1hcmdpbi10b3A9IjAiIGdyaWR0b2xlcmFuY2U9IjEwIiBndWlkZXRvbGVyYW5jZT0iMTAiIGlkPSJuYW1lZHZpZXc1MjI3MCIgaW5rc2NhcGU6Y3VycmVudC1sYXllcj0ic3ZnNTIyNjgiIGlua3NjYXBlOmN4PSItNDEuMjQ4MDI3IiBpbmtzY2FwZTpjeT0iMjkuMzkzODkiIGlua3NjYXBlOnBhZ2VvcGFjaXR5PSIwIiBpbmtzY2FwZTpwYWdlc2hhZG93PSIyIiBpbmtzY2FwZTp3aW5kb3ctaGVpZ2h0PSIxMDE3IiBpbmtzY2FwZTp3aW5kb3ctbWF4aW1pemVkPSIxIiBpbmtzY2FwZTp3aW5kb3ctd2lkdGg9IjE5MjAiIGlua3NjYXBlOndpbmRvdy14PSItOCIgaW5rc2NhcGU6d2luZG93LXk9Ii04IiBpbmtzY2FwZTp6b29tPSI1LjI1OTk5NzkiIG9iamVjdHRvbGVyYW5jZT0iMTAiIHBhZ2Vjb2xvcj0iI2ZmZmZmZiIgc2hvd2dyaWQ9ImZhbHNlIj4mI3hhOwk8L3NvZGlwb2RpOm5hbWVkdmlldz4mI3hhOyYjeGE7PHBhdGggaWQ9InBhdGg1MjI1NCIgaW5rc2NhcGU6Y29ubmVjdG9yLWN1cnZhdHVyZT0iMCIgc3R5bGU9ImZpbGw6IzAwNzJjNiIgZD0ibSA2OC4xLDE3LjU3IGMgMC4wNSwtMC41MyAwLjA3LC0xLjA4IDAuMDcsLTEuNjMgQyA2OC4xNyw3LjE1IDYwLjk1LDAgNTIuMDksMCA0Ni44MywwIDQxLjk5LDIuNTIgMzkuMDIsNi42NSAzNy4xMSw1LjQ2IDM0Ljg5LDQuODEgMzIuNTgsNC44MSBjIC02LjMyLDAgLTExLjUzLDQuODEgLTEyLjExLDEwLjkzIDAuOTgsLTAuMTMgMS45NiwtMC4yMyAyLjk3LC0wLjIzIDQuNjYsMCA5LjE0LDEuNTEgMTIuNzksNC4xOCAyLjc0LC02LjMyIDkuNzIsLTEwLjM3IDE3LjQ0LC0xMC42IFYgMy42OCBsIDkuNDQsOC4wOCAtOS40NCw4LjAzIFYgMTQuNSBjIC00LjQzLDAuMTggLTguNzMsMS44NCAtMTEuMjIsNS44NyBsIDAuNSwtMC4wNSBjIDkuMDEsMCAxNi40Niw2Ljc1IDE3LjUyLDE1LjM4IDIuMTQsMS42MSAzLjgzLDMuNTUgNS4wNCw1Ljc2IDUuODQsLTEuNTYgMTAuMDIsLTYuNTkgMTAuMDIsLTEyLjc2IDAsLTQuOTYgLTIuNjcsLTguOTEgLTcuNDMsLTExLjEzIHoiLz4mI3hhOyYjeGE7PHBhdGggaWQ9InBhdGg1MjI2MiIgaW5rc2NhcGU6Y29ubmVjdG9yLWN1cnZhdHVyZT0iMCIgc3R5bGU9ImZpbGw6IzU5YjRkOSIgZD0ibSA3LjQzLDM4LjUxIGMgLTAuMDUsLTAuNTUgLTAuMDgsLTEuMSAtMC4wOCwtMS42NiAwLC04Ljc4IDcuMjMsLTE1LjkxIDE2LjA5LC0xNS45MSA1LjI2LDAgMTAuMDksMi41MiAxMy4wNiw2LjYyIDEuOTIsLTEuMTggNC4xMywtMS44MSA2LjQ1LC0xLjgxIDYuNjksMCAxMi4xNiw1LjQxIDEyLjE2LDEyLjA2IGwgLTAuMDMsMC45NiBjIDQuNTMsMi4yOSA2Ljk4LDYuMDkgNi45OCwxMC44NSAwLDcuNDcgLTYuMSwxMy4zMSAtMTMuODgsMTMuMzEgSCAxMy44NyBDIDYuMDksNjIuOTMgMCw1Ny4wOSAwLDQ5LjYyIDAsNDQuNjggMi42Nyw0MC43MyA3LjQzLDM4LjUxIFoiLz4mI3hhOzwvc3ZnPg==;" parent="1" vertex="1">
          <mxGeometry x="1330" y="640.0000000000005" width="76" height="63" as="geometry" />
        </mxCell>
        <mxCell id="wG_c4dULW8k_WJfXNpnm-2097" value="" style="shape=image;verticalLabelPosition=bottom;labelBackgroundColor=#ffffff;verticalAlign=top;aspect=fixed;imageAspect=0;image=data:image/svg+xml,PHN2ZyB4bWxuczpkYz0iaHR0cDovL3B1cmwub3JnL2RjL2VsZW1lbnRzLzEuMS8iIHhtbG5zOmNjPSJodHRwOi8vY3JlYXRpdmVjb21tb25zLm9yZy9ucyMiIHhtbG5zOnJkZj0iaHR0cDovL3d3dy53My5vcmcvMTk5OS8wMi8yMi1yZGYtc3ludGF4LW5zIyIgeG1sbnM6c3ZnPSJodHRwOi8vd3d3LnczLm9yZy8yMDAwL3N2ZyIgeG1sbnM9Imh0dHA6Ly93d3cudzMub3JnLzIwMDAvc3ZnIiB4bWxuczpzb2RpcG9kaT0iaHR0cDovL3NvZGlwb2RpLnNvdXJjZWZvcmdlLm5ldC9EVEQvc29kaXBvZGktMC5kdGQiIHhtbG5zOmlua3NjYXBlPSJodHRwOi8vd3d3Lmlua3NjYXBlLm9yZy9uYW1lc3BhY2VzL2lua3NjYXBlIiB2ZXJzaW9uPSIxLjEiIGlkPSJzdmc1MDg4NSIgaW5rc2NhcGU6dmVyc2lvbj0iMC45Mi4zICgyNDA1NTQ2LCAyMDE4LTAzLTExKSIgc29kaXBvZGk6ZG9jbmFtZT0iYXp1cmVfYWN0aXZlX2RpcmVjdG9yeV9oZWFsdGhfbW9uaXRvcmluZy5zdmciIHg9IjBweCIgeT0iMHB4IiB2aWV3Qm94PSIwIDAgNjguNTQ2NTIzIDY4LjM5MDAwMSIgeG1sOnNwYWNlPSJwcmVzZXJ2ZSIgd2lkdGg9IjY4LjU0NjUyNCIgaGVpZ2h0PSI2OC4zODk5OTkiPjxtZXRhZGF0YSBpZD0ibWV0YWRhdGExNzM1NiI+PHJkZjpSREY+PGNjOldvcmsgcmRmOmFib3V0PSIiPjxkYzpmb3JtYXQ+aW1hZ2Uvc3ZnK3htbDwvZGM6Zm9ybWF0PjxkYzp0eXBlIHJkZjpyZXNvdXJjZT0iaHR0cDovL3B1cmwub3JnL2RjL2RjbWl0eXBlL1N0aWxsSW1hZ2UiLz48ZGM6dGl0bGUvPjwvY2M6V29yaz48L3JkZjpSREY+PC9tZXRhZGF0YT48ZGVmcyBpZD0iZGVmczE3MzU0Ii8+JiN4YTs8ZmlsdGVyIGlkPSJmaWx0ZXJfMiI+JiN4YTsJPGZlR2F1c3NpYW5CbHVyIGlkPSJmZUdhdXNzaWFuQmx1cjUwNzc4IiBzdGREZXZpYXRpb249IjIiLz4mI3hhOzwvZmlsdGVyPiYjeGE7PHNvZGlwb2RpOm5hbWVkdmlldyBib3JkZXJjb2xvcj0iIzY2NjY2NiIgYm9yZGVyb3BhY2l0eT0iMSIgZml0LW1hcmdpbi1ib3R0b209IjAiIGZpdC1tYXJnaW4tbGVmdD0iMCIgZml0LW1hcmdpbi1yaWdodD0iMCIgZml0LW1hcmdpbi10b3A9IjAiIGdyaWR0b2xlcmFuY2U9IjEwIiBndWlkZXRvbGVyYW5jZT0iMTAiIGlkPSJuYW1lZHZpZXc1MDg4NyIgaW5rc2NhcGU6Y3VycmVudC1sYXllcj0ic3ZnNTA4ODUiIGlua3NjYXBlOmN4PSIxMTEuODc1MjQiIGlua3NjYXBlOmN5PSIzOS4zMzIwNTUiIGlua3NjYXBlOnBhZ2VvcGFjaXR5PSIwIiBpbmtzY2FwZTpwYWdlc2hhZG93PSIyIiBpbmtzY2FwZTp3aW5kb3ctaGVpZ2h0PSIxMDE3IiBpbmtzY2FwZTp3aW5kb3ctbWF4aW1pemVkPSIxIiBpbmtzY2FwZTp3aW5kb3ctd2lkdGg9IjE5MjAiIGlua3NjYXBlOndpbmRvdy14PSItOCIgaW5rc2NhcGU6d2luZG93LXk9Ii04IiBpbmtzY2FwZTp6b29tPSI2LjE4MDQ5NDkiIG9iamVjdHRvbGVyYW5jZT0iMTAiIHBhZ2Vjb2xvcj0iI2ZmZmZmZiIgc2hvd2dyaWQ9ImZhbHNlIj4mI3hhOwk8L3NvZGlwb2RpOm5hbWVkdmlldz4mI3hhOyYjeGE7PHBhdGggaWQ9InBhdGg1MDc5MSIgaW5rc2NhcGU6Y29ubmVjdG9yLWN1cnZhdHVyZT0iMCIgc3R5bGU9ImZpbGw6IzU5YjRkOSIgZD0ibSAzMC4xNSw2MC4zMSBjIC0xLjUsMCAtMi44NywtMC41NCAtMy45NywtMS42NCBMIDEuNjQsMzQuMTQgQyAwLjU1LDMzLjA0IDAsMzEuNjcgMCwzMC4xNiAwLDI4LjY1IDAuNTUsMjcuMjggMS42NCwyNi4xOSBMIDI2LjE4LDEuNjUgYyAxLjEsLTEuMDkgMi40NywtMS42NCAzLjk3LC0xLjY0IDEuNTEsMCAyLjg4LDAuNTUgMy45OCwxLjY0IGwgMjQuNTMsMjQuNTQgYyAxLjEsMS4wOSAxLjY1LDIuNDYgMS42NSwzLjk3IDAsMS41MSAtMC41NSwyLjg4IC0xLjY1LDMuOTggTCAzNC4xMyw1OC42NyBjIC0xLjEsMS4xIC0yLjQ3LDEuNjQgLTMuOTgsMS42NCB6Ii8+JiN4YTsmI3hhOzxwYXRoIGlkPSJwYXRoNTA3OTkiIGlua3NjYXBlOmNvbm5lY3Rvci1jdXJ2YXR1cmU9IjAiIHN0eWxlPSJmaWxsOiNmZmZmZmYiIGQ9Im0gNDYuNiwyNS40OSBjIC0yLjYsMCAtNC42NiwyLjA2IC00LjY2LDQuNjYgMCwwLjk2IDAuMjgsMS43OSAwLjgyLDIuNjEgbCAtOS4zMiw5LjMyIEMgMzMuMTcsNDEuOTQgMzIuODksNDEuODEgMzIuNjIsNDEuNjcgViAxNy44MiBjIDEuMzcsLTAuODIgMi4zMywtMi4zMyAyLjMzLC00LjExIDAsLTIuNjEgLTIuMDYsLTQuNjYgLTQuNjYsLTQuNjYgLTIuNiwwIC00LjY2LDIuMDUgLTQuNjYsNC42NiAwLDEuNzggMC45NiwzLjI5IDIuMzMsNC4xMSB2IDIzLjg1IGMgLTAuMjcsMC4xNCAtMC41NSwwLjI3IC0wLjgyLDAuNDEgbCAtOS4zMiwtOS4zMiBjIDAuNDEsLTAuNjkgMC44MiwtMS42NSAwLjgyLC0yLjYxIDAsLTIuNiAtMi4wNiwtNC42NiAtNC42NiwtNC42NiAtMi42LDAgLTQuNjYsMi4wNiAtNC42Niw0LjY2IDAsMi42MSAyLjA2LDQuNjYgNC42Niw0LjY2IDAuNTUsMCAxLjEsLTAuMTMgMS41MSwtMC4yNyBsIDkuODcsOS44NyBjIC0wLjI4LDAuNjggLTAuNDEsMS4zNyAtMC40MSwyLjE5IDAsMy4wMiAyLjQ2LDUuNDggNS40OCw1LjQ4IDMuMDEsMCA1LjQ4LC0yLjQ2IDUuNDgsLTUuNDggMCwtMC42OCAtMC4xNCwtMS41MSAtMC40MSwtMi4wNSBsIDkuODcsLTkuODcgYyAwLjQxLDAuMTMgMC45NiwwLjI3IDEuNTEsMC4yNyAyLjYsMCA0LjY2LC0yLjA1IDQuNjYsLTQuNjYgLTAuMjgsLTIuNzQgLTIuMzMsLTQuOCAtNC45NCwtNC44IHoiLz4mI3hhOyYjeGE7JiN4YTsmI3hhOyYjeGE7JiN4YTs8cGF0aCBpZD0icGF0aDUwODIzIiBpbmtzY2FwZTpjb25uZWN0b3ItY3VydmF0dXJlPSIwIiBzdHlsZT0iZmlsbDojYjhkNDMyIiBkPSJtIDMzLjMxLDQ2LjYxIGMgMCwxLjc4IC0xLjUxLDMuMjggLTMuMjksMy4yOCAtMS43OCwwIC0zLjI5LC0xLjUgLTMuMjksLTMuMjggMCwtMS43OSAxLjUxLC0zLjI5IDMuMjksLTMuMjkgMS45MiwwIDMuMjksMS41IDMuMjksMy4yOSB6Ii8+JiN4YTsmI3hhOzxwYXRoIGlkPSJwYXRoNTA4MzEiIGlua3NjYXBlOmNvbm5lY3Rvci1jdXJ2YXR1cmU9IjAiIHN0eWxlPSJmaWxsOiNiOGQ0MzIiIGQ9Im0gMzIuNzYsMTMuNzEgYyAwLDEuNTEgLTEuMjQsMi42IC0yLjYxLDIuNiAtMS4zNywwIC0yLjYsLTEuMjMgLTIuNiwtMi42IDAsLTEuMzcgMS4yMywtMi42IDIuNiwtMi42IDEuMzcsMCAyLjYxLDEuMjMgMi42MSwyLjYgeiIvPiYjeGE7JiN4YTs8cGF0aCBpZD0icGF0aDUwODM5IiBpbmtzY2FwZTpjb25uZWN0b3ItY3VydmF0dXJlPSIwIiBzdHlsZT0iZmlsbDojYjhkNDMyIiBkPSJtIDE2LjMxLDMwLjE2IGMgMCwxLjUxIC0xLjI0LDIuNiAtMi42MSwyLjYgLTEuNSwwIC0yLjYsLTEuMjMgLTIuNiwtMi42IDAsLTEuNTEgMS4yMywtMi42IDIuNiwtMi42IDEuNTEsMCAyLjYxLDEuMDkgMi42MSwyLjYgeiIvPiYjeGE7JiN4YTs8cGF0aCBpZD0icGF0aDUwODQ3IiBpbmtzY2FwZTpjb25uZWN0b3ItY3VydmF0dXJlPSIwIiBzdHlsZT0iZmlsbDojYjhkNDMyIiBkPSJtIDQ5LjIxLDMwLjE2IGMgMCwxLjUxIC0xLjI0LDIuNiAtMi42MSwyLjYgLTEuMzcsMCAtMi42LC0xLjIzIC0yLjYsLTIuNiAwLC0xLjUxIDEuMjMsLTIuNiAyLjYsLTIuNiAxLjM3LDAgMi42MSwxLjA5IDIuNjEsMi42IHoiLz4mI3hhOyYjeGE7PHBhdGggaWQ9InBhdGg1MDg1NSIgaW5rc2NhcGU6Y29ubmVjdG9yLWN1cnZhdHVyZT0iMCIgc3R5bGU9ImZpbGw6I2ZmZmZmZjtmaWxsLW9wYWNpdHk6MC4wOTgwMDAwMiIgZD0iTSAzNC4xMywxLjY1IEMgMzMuMDMsMC41NSAzMS42NiwwIDMwLjE1LDAgMjguNjUsMCAyNy4yOCwwLjU1IDI2LjE4LDEuNjUgTCAxLjY0LDI2LjE4IEMgMC41NSwyNy4yOCAwLDI4LjY1IDAsMzAuMTYgYyAwLDEuNSAwLjU1LDIuODcgMS42NCwzLjk3IEwgMTUuNDksNDcuOTcgNDEuOCw5LjMyIFoiLz4mI3hhOyYjeGE7PHBhdGggaWQ9InBhdGg1MDg2MyIgaW5rc2NhcGU6Y29ubmVjdG9yLWN1cnZhdHVyZT0iMCIgc3R5bGU9ImZpbGw6I2JhMTQxYSIgZD0ibSA2Ni4wNyw0MS41MyBjIC0wLjU1LC0wLjY4IC0xLjM3LC0xLjEgLTIuMiwtMS41MSAtMy43LC0xLjUxIC05LjA0LDAuNDEgLTEyLjMzLDUuMDcgLTUuMjEsLTYuMTYgLTExLjI0LC03LjQgLTE0LjY3LC0zLjcgLTYuODUsNy40IDEuNzksMTcuMjcgOC41LDIyLjc2IDIuNjEsMi4xOSA1LjA3LDMuNyA2LjAzLDQuMjQgdiAwIDAgQyA1NS4xLDY2Ljc1IDc1LjUzLDUxLjgxIDY2LjA3LDQxLjUzIFoiLz4mI3hhOyYjeGE7PHBhdGggaWQ9InBhdGg1MDg3MSIgaW5rc2NhcGU6Y29ubmVjdG9yLWN1cnZhdHVyZT0iMCIgc3R5bGU9ImZpbGw6I2ZmZmZmZjtmaWxsLW9wYWNpdHk6MC4yIiBkPSJtIDUxLjU0LDQ1LjA5IGMgLTUuMjEsLTYuMTYgLTExLjI0LC03LjQgLTE0LjY3LC0zLjcgLTYuODUsNy40IDEuNzksMTcuMjcgOC41LDIyLjc1IEwgNjQuMDEsMzkuODggYyAtMy44NCwtMS4zNyAtOS4xOCwwLjU1IC0xMi40Nyw1LjIxIHoiLz4mI3hhOyYjeGE7PHBhdGggaWQ9InBhdGg1MDg3OSIgaW5rc2NhcGU6Y29ubmVjdG9yLWN1cnZhdHVyZT0iMCIgc3R5bGU9ImZpbGw6I2ZmZmZmZjtmaWxsLW9wYWNpdHk6MC41IiBkPSJtIDM1LjkxLDUzLjYgaCAzLjg0IGwgMy40MiwtMC4xNCAyLjYxLC02Ljk5IGMgMC4xNCwtMC40MSAwLjQxLC0xLjI0IDEuNTEsLTEuMjQgMS4wOSwwIDEuMjMsMC44MyAxLjIzLDEuMjQgbCAwLjE0LDExLjY1IDEuOTIsLTMuOTggYyAwLjEzLC0wLjQxIDAuNTQsLTAuNTQgMC44MiwtMC41NCBoIDExLjEgYyAwLjU1LDAgMC45NiwwLjU0IDAuOTYsMC45NSAwLDAuNDIgLTAuNDEsMS4yNCAtMC45NiwxLjI0IEggNTIuNDkgbCAtMy41Niw3LjEzIGMgLTAuMjcsMC42OCAtMC41NSwwLjk1IC0xLjM3LDAuODIgLTAuNDEsLTAuMTQgLTAuODIsLTAuNjkgLTAuODIsLTEuMSBMIDQ2LjYsNTEuOTUgNDUuNSw1NC44MyBjIC0wLjEzLDAuNDEgLTAuNDEsMC45NiAtMC44MiwwLjk2IGggLTMuMjkgLTQuMjUgbCAtMC42OCwtMS4xIHoiLz4mI3hhOzwvc3ZnPg==;" parent="1" vertex="1">
          <mxGeometry x="448.5" y="606" width="69" height="68" as="geometry" />
        </mxCell>
        <mxCell id="wG_c4dULW8k_WJfXNpnm-2098" value="The right to choose &lt;br&gt;The right to say &lt;br&gt;No I don&amp;#39;t share&lt;br&gt;" style="shape=image;verticalLabelPosition=bottom;labelBackgroundColor=#E6E6E6;verticalAlign=top;aspect=fixed;imageAspect=0;image=data:image/svg+xml,PHN2ZyB4bWxuczpkYz0iaHR0cDovL3B1cmwub3JnL2RjL2VsZW1lbnRzLzEuMS8iIHhtbG5zOmNjPSJodHRwOi8vY3JlYXRpdmVjb21tb25zLm9yZy9ucyMiIHhtbG5zOnJkZj0iaHR0cDovL3d3dy53My5vcmcvMTk5OS8wMi8yMi1yZGYtc3ludGF4LW5zIyIgeG1sbnM6c3ZnPSJodHRwOi8vd3d3LnczLm9yZy8yMDAwL3N2ZyIgeG1sbnM9Imh0dHA6Ly93d3cudzMub3JnLzIwMDAvc3ZnIiB4bWxuczp4bGluaz0iaHR0cDovL3d3dy53My5vcmcvMTk5OS94bGluayIgeG1sbnM6c29kaXBvZGk9Imh0dHA6Ly9zb2RpcG9kaS5zb3VyY2Vmb3JnZS5uZXQvRFREL3NvZGlwb2RpLTAuZHRkIiB4bWxuczppbmtzY2FwZT0iaHR0cDovL3d3dy5pbmtzY2FwZS5vcmcvbmFtZXNwYWNlcy9pbmtzY2FwZSIgdmVyc2lvbj0iMS4xIiBpZD0iTGF5ZXJfMSIgeD0iMHB4IiB5PSIwcHgiIHZpZXdCb3g9IjAgMCAzNS45NDUwNjggMjQuNzEwMDA5IiB4bWw6c3BhY2U9InByZXNlcnZlIiBzb2RpcG9kaTpkb2NuYW1lPSJzYXBfaWRlbnRpdHlfYXV0aGVudGljYXRpb24uc3ZnIiB3aWR0aD0iMzUuOTQ1MDY4IiBoZWlnaHQ9IjI0LjcxMDAwOSIgaW5rc2NhcGU6dmVyc2lvbj0iMC45Mi4zICgyNDA1NTQ2LCAyMDE4LTAzLTExKSI+PG1ldGFkYXRhIGlkPSJtZXRhZGF0YTU0MDAwIj48cmRmOlJERj48Y2M6V29yayByZGY6YWJvdXQ9IiI+PGRjOmZvcm1hdD5pbWFnZS9zdmcreG1sPC9kYzpmb3JtYXQ+PGRjOnR5cGUgcmRmOnJlc291cmNlPSJodHRwOi8vcHVybC5vcmcvZGMvZGNtaXR5cGUvU3RpbGxJbWFnZSIvPjxkYzp0aXRsZS8+PC9jYzpXb3JrPjwvcmRmOlJERj48L21ldGFkYXRhPjxkZWZzIGlkPSJkZWZzNTM5OTgiLz48c29kaXBvZGk6bmFtZWR2aWV3IHBhZ2Vjb2xvcj0iI2ZmZmZmZiIgYm9yZGVyY29sb3I9IiM2NjY2NjYiIGJvcmRlcm9wYWNpdHk9IjEiIG9iamVjdHRvbGVyYW5jZT0iMTAiIGdyaWR0b2xlcmFuY2U9IjEwIiBndWlkZXRvbGVyYW5jZT0iMTAiIGlua3NjYXBlOnBhZ2VvcGFjaXR5PSIwIiBpbmtzY2FwZTpwYWdlc2hhZG93PSIyIiBpbmtzY2FwZTp3aW5kb3ctd2lkdGg9IjE5MjAiIGlua3NjYXBlOndpbmRvdy1oZWlnaHQ9IjEwMTciIGlkPSJuYW1lZHZpZXc1Mzk5NiIgc2hvd2dyaWQ9ImZhbHNlIiBmaXQtbWFyZ2luLXRvcD0iMCIgZml0LW1hcmdpbi1sZWZ0PSIwIiBmaXQtbWFyZ2luLXJpZ2h0PSIwIiBmaXQtbWFyZ2luLWJvdHRvbT0iMCIgaW5rc2NhcGU6em9vbT0iMS4wMzAzMDMiIGlua3NjYXBlOmN4PSItMi41Njc0MzM4IiBpbmtzY2FwZTpjeT0iLTE5OS4wMDk5OSIgaW5rc2NhcGU6d2luZG93LXg9Ii04IiBpbmtzY2FwZTp3aW5kb3cteT0iLTgiIGlua3NjYXBlOndpbmRvdy1tYXhpbWl6ZWQ9IjEiIGlua3NjYXBlOmN1cnJlbnQtbGF5ZXI9IkxheWVyXzEiLz4mI3hhOyYjeGE7PGcgaWQ9Imc1Mzk5MyIgdHJhbnNmb3JtPSJ0cmFuc2xhdGUoLTI5OS45NDI0MywtMTk3LjAzKSI+JiN4YTsJPGRlZnMgaWQ9ImRlZnM1Mzk3MCI+JiN4YTsJCTxyZWN0IGlkPSJTVkdJRF8zXyIgeD0iMjk5LjkyMDAxIiB5PSIxOTcuMDMiIHdpZHRoPSIzNi44MiIgaGVpZ2h0PSIyNS40OCIvPiYjeGE7CTwvZGVmcz4mI3hhOwk8Y2xpcFBhdGggaWQ9IlNWR0lEXzRfIj4mI3hhOwkJPHVzZSB4bGluazpocmVmPSIjU1ZHSURfM18iIHN0eWxlPSJvdmVyZmxvdzp2aXNpYmxlIiBpZD0idXNlNTM5NzIiIHg9IjAiIHk9IjAiIHdpZHRoPSIxMDAlIiBoZWlnaHQ9IjEwMCUiLz4mI3hhOwk8L2NsaXBQYXRoPiYjeGE7CTxnIGNsaXAtcGF0aD0idXJsKCNTVkdJRF80XykiIGlkPSJnNTM5OTEiPiYjeGE7CQk8ZGVmcyBpZD0iZGVmczUzOTc2Ij4mI3hhOwkJCTxyZWN0IGlkPSJTVkdJRF81XyIgeD0iMjk5LjkyMDAxIiB5PSIxOTcuMDMiIHdpZHRoPSIzNi44MiIgaGVpZ2h0PSIyNS40OCIvPiYjeGE7CQk8L2RlZnM+JiN4YTsJCTxjbGlwUGF0aCBpZD0iU1ZHSURfNl8iPiYjeGE7CQkJPHVzZSB4bGluazpocmVmPSIjU1ZHSURfNV8iIHN0eWxlPSJvdmVyZmxvdzp2aXNpYmxlIiBpZD0idXNlNTM5NzgiIHg9IjAiIHk9IjAiIHdpZHRoPSIxMDAlIiBoZWlnaHQ9IjEwMCUiLz4mI3hhOwkJPC9jbGlwUGF0aD4mI3hhOwkJPHBhdGggc3R5bGU9ImZpbGw6IzAwOTJkMSIgZD0ibSAzMTYuNTEsMjEyLjQ3IGMgLTAuMjQsLTAuMyAtMC42LC0wLjQ4IC0wLjksLTAuNjYgLTAuMzYsLTAuMTIgLTAuNzIsLTAuMTggLTEuMDgsLTAuMTggaCAtMi44MiBjIC0wLjM2LDAgLTAuNzgsMC4wNiAtMS4wOCwwLjE4IC0wLjM2LDAuMTggLTAuNjYsMC4zNiAtMC45LDAuNjYgLTAuMywwLjI0IC0wLjQ4LDAuNTQgLTAuNiwwLjg0IC0wLjE4LDAuMzYgLTAuMjQsMC43MiAtMC4yNCwxLjE0IHYgMi44MSBoIDguNDUgdiAtMi44MSBjIDAsLTAuNDIgLTAuMTIsLTAuNzggLTAuMjQsLTEuMTQgLTAuMTEsLTAuMyAtMC4zNSwtMC42IC0wLjU5LC0wLjg0IHoiIGNsaXAtcGF0aD0idXJsKCNTVkdJRF82XykiIGlkPSJwYXRoNTM5ODEiIGlua3NjYXBlOmNvbm5lY3Rvci1jdXJ2YXR1cmU9IjAiLz4mI3hhOwkJPHBhdGggc3R5bGU9ImZpbGw6IzAwOTJkMSIgZD0ibSAzMTUuMDcsMjEwLjc5IGMgMC4zLC0wLjI0IDAuNDgsLTAuNTQgMC42LC0wLjkgMC4zLC0wLjY2IDAuMywtMS41IDAsLTIuMTUgLTAuMjQsLTAuNzIgLTAuNzgsLTEuMjYgLTEuNSwtMS41IC0wLjY2LC0wLjMgLTEuNDQsLTAuMyAtMi4xNiwwIC0wLjM2LDAuMTIgLTAuNjYsMC4zIC0wLjksMC42IC0wLjI0LDAuMjQgLTAuNDgsMC41NCAtMC42LDAuOSAtMC4zLDAuNjYgLTAuMywxLjQ0IDAsMi4xNSAwLjMsMC42NiAwLjg0LDEuMiAxLjUsMS41IDAuNzIsMC4zIDEuNSwwLjMgMi4xNiwwIDAuMzcsLTAuMTIgMC42NywtMC4zNiAwLjksLTAuNiB6IiBjbGlwLXBhdGg9InVybCgjU1ZHSURfNl8pIiBpZD0icGF0aDUzOTgzIiBpbmtzY2FwZTpjb25uZWN0b3ItY3VydmF0dXJlPSIwIi8+JiN4YTsJCTxwYXRoIHN0eWxlPSJmaWxsOiMwMDkyZDEiIGQ9Im0gMzI2LjA0LDIxMi40NyBjIC0wLjI0LC0wLjMgLTAuNTQsLTAuNDggLTAuOSwtMC42NiAtMC4zNiwtMC4xMiAtMC43MiwtMC4xOCAtMS4wOCwtMC4xOCBoIC0yLjgyIGMgLTAuMzYsMCAtMC43MiwwLjA2IC0xLjA4LDAuMTggLTAuMzYsMC4xOCAtMC42NiwwLjM2IC0wLjksMC42NiAtMC4yNCwwLjI0IC0wLjQ4LDAuNTQgLTAuNiwwLjkgLTAuMTIsMC4zIC0wLjI0LDAuNjYgLTAuMjQsMS4wOCB2IDIuODEgaCA4LjQ1IHYgLTIuODEgYyAwLC0wLjQyIC0wLjA2LC0wLjc4IC0wLjI0LC0xLjE0IC0wLjExLC0wLjMgLTAuMjksLTAuNiAtMC41OSwtMC44NCB6IiBjbGlwLXBhdGg9InVybCgjU1ZHSURfNl8pIiBpZD0icGF0aDUzOTg1IiBpbmtzY2FwZTpjb25uZWN0b3ItY3VydmF0dXJlPSIwIi8+JiN4YTsJCTxwYXRoIHN0eWxlPSJmaWxsOiMwMDkyZDEiIGQ9Im0gMzI0LjY2LDIxMC43OSBjIDAuMjQsLTAuMjQgMC40MiwtMC41NCAwLjYsLTAuOSAwLjMsLTAuNjYgMC4zLC0xLjUgMCwtMi4xNSAtMC4zLC0wLjcyIC0wLjg0LC0xLjI2IC0xLjUsLTEuNSAtMC43MiwtMC4zIC0xLjUsLTAuMyAtMi4yMiwwIC0wLjMsMC4xMiAtMC42LDAuMyAtMC44NCwwLjYgLTAuMywwLjI0IC0wLjQ4LDAuNTQgLTAuNjYsMC45IC0wLjI0LDAuNjYgLTAuMjQsMS40NCAwLDIuMTUgMC4zLDAuNjYgMC44NCwxLjIgMS41LDEuNSAwLjcyLDAuMyAxLjUsMC4zIDIuMjIsMCAwLjMsLTAuMTIgMC42LC0wLjM2IDAuOSwtMC42IHoiIGNsaXAtcGF0aD0idXJsKCNTVkdJRF82XykiIGlkPSJwYXRoNTM5ODciIGlua3NjYXBlOmNvbm5lY3Rvci1jdXJ2YXR1cmU9IjAiLz4mI3hhOwkJPHBhdGggc3R5bGU9ImZpbGw6IzVhN2E5NCIgZD0ibSAzMjguMDEsMjE5LjQ3IGggLTIwLjM3IGMgLTYuMjMsMCAtNy42MSwtOC42OCAtMS43NCwtMTAuNTkgbCAxLjc0LC0wLjYgLTAuMTgsLTEuNzQgYyAwLC0wLjA2IC0wLjMsLTMuMTcgMS41LC01LjI3IDEuMDIsLTEuMiAyLjY0LC0xLjg2IDQuNzksLTEuOTggMi41OCwwLjA2IDQuOTEsMS42MiA1Ljk5LDMuOTUgbCAwLjg0LDIuMTUgMS44NiwtMC45NiBjIDAuNzgsLTAuNDIgMS42MiwtMC42NiAyLjUyLC0wLjY2IDEuOTgsMCAzLjcxLDEuMzggNC4wNywzLjM1IGwgMC4yNCwxLjE0IDEuMDIsMC40OCBjIDUuNTEsMi41MyAzLjc3LDEwLjczIC0yLjI4LDEwLjczIHogbSAzLjI0LC0xMi43NSBjIC0wLjc4LC00LjM3IC01Ljc1LC02LjU4IC05LjU4LC00LjI1IC0xLjMyLC0zLjI5IC00LjQzLC01LjQ1IC03Ljk3LC01LjQ1IC05LjQ2LDAuNDggLTguNDUsOS43IC04LjQ1LDkuNyAtMy41OSwxLjIgLTUuODEsNC43OSAtNS4yMSw4LjU2IDAuNiwzLjcxIDMuNzcsNi40NiA3LjYxLDYuNDYgaCAyMC4zNyBjIDguNDQsMC4wMSAxMC45NiwtMTEuNTQgMy4yMywtMTUuMDIgeiIgY2xpcC1wYXRoPSJ1cmwoI1NWR0lEXzZfKSIgaWQ9InBhdGg1Mzk4OSIgaW5rc2NhcGU6Y29ubmVjdG9yLWN1cnZhdHVyZT0iMCIvPiYjeGE7CTwvZz4mI3hhOzwvZz4mI3hhOzwvc3ZnPg==;align=center;fontSize=13;fontColor=#990000;labelBorderColor=none;html=1;" parent="1" vertex="1">
          <mxGeometry x="979.3" y="371" width="86.4" height="60" as="geometry" />
        </mxCell>
        <mxCell id="i66-fu9QL5YznibiX_Dj-2094" value="" style="shape=image;verticalLabelPosition=bottom;labelBackgroundColor=#ffffff;verticalAlign=top;aspect=fixed;imageAspect=0;image=data:image/svg+xml,PHN2ZyB4bWxuczpjYz0iaHR0cDovL2NyZWF0aXZlY29tbW9ucy5vcmcvbnMjIiB4bWxuczpkYz0iaHR0cDovL3B1cmwub3JnL2RjL2VsZW1lbnRzLzEuMS8iIHhtbG5zOmlua3NjYXBlPSJodHRwOi8vd3d3Lmlua3NjYXBlLm9yZy9uYW1lc3BhY2VzL2lua3NjYXBlIiB4bWxuczpyZGY9Imh0dHA6Ly93d3cudzMub3JnLzE5OTkvMDIvMjItcmRmLXN5bnRheC1ucyMiIHhtbG5zOnNvZGlwb2RpPSJodHRwOi8vc29kaXBvZGkuc291cmNlZm9yZ2UubmV0L0RURC9zb2RpcG9kaS0wLmR0ZCIgeG1sbnM6c3ZnPSJodHRwOi8vd3d3LnczLm9yZy8yMDAwL3N2ZyIgeG1sbnM9Imh0dHA6Ly93d3cudzMub3JnLzIwMDAvc3ZnIiB4bWxuczp4bGluaz0iaHR0cDovL3d3dy53My5vcmcvMTk5OS94bGluayIgdmVyc2lvbj0iMS4xIiBpZD0ic3ZnNjI5MzUiIGlua3NjYXBlOnZlcnNpb249IjAuOTIuMyAoMjQwNTU0NiwgMjAxOC0wMy0xMSkiIHNvZGlwb2RpOmRvY25hbWU9Imh0dHBzX2FkYXB0ZXIuc3ZnIiB4PSIwcHgiIHk9IjBweCIgdmlld0JveD0iMCAwIDYwLjI2IDc2LjQiIHN0eWxlPSJlbmFibGUtYmFja2dyb3VuZDpuZXcgMCAwIDYwLjI2IDc2LjQ7IiB4bWw6c3BhY2U9InByZXNlcnZlIj4mI3hhOzxzb2RpcG9kaTpuYW1lZHZpZXcgYm9yZGVyY29sb3I9IiM2NjY2NjYiIGJvcmRlcm9wYWNpdHk9IjEiIGZpdC1tYXJnaW4tYm90dG9tPSIwIiBmaXQtbWFyZ2luLWxlZnQ9IjAiIGZpdC1tYXJnaW4tcmlnaHQ9IjAiIGZpdC1tYXJnaW4tdG9wPSIwIiBncmlkdG9sZXJhbmNlPSIxMCIgZ3VpZGV0b2xlcmFuY2U9IjEwIiBpZD0ibmFtZWR2aWV3NjI5MzciIGlua3NjYXBlOmN1cnJlbnQtbGF5ZXI9InN2ZzYyOTM1IiBpbmtzY2FwZTpjeD0iMTguODY4MDgiIGlua3NjYXBlOmN5PSIzNS42MTYxNDciIGlua3NjYXBlOnBhZ2VvcGFjaXR5PSIwIiBpbmtzY2FwZTpwYWdlc2hhZG93PSIyIiBpbmtzY2FwZTp3aW5kb3ctaGVpZ2h0PSIxMDE3IiBpbmtzY2FwZTp3aW5kb3ctbWF4aW1pemVkPSIxIiBpbmtzY2FwZTp3aW5kb3ctd2lkdGg9IjE5MjAiIGlua3NjYXBlOndpbmRvdy14PSItOCIgaW5rc2NhcGU6d2luZG93LXk9Ii04IiBpbmtzY2FwZTp6b29tPSI0LjE3MzU2MDIiIG9iamVjdHRvbGVyYW5jZT0iMTAiIHBhZ2Vjb2xvcj0iI2ZmZmZmZiIgc2hvd2dyaWQ9ImZhbHNlIj4mI3hhOwk8L3NvZGlwb2RpOm5hbWVkdmlldz4mI3hhOzxnIGlkPSJnNjI5MzMiIHRyYW5zZm9ybT0idHJhbnNsYXRlKC0xLjUwMTczNzksLTAuNzUwMDAwMDMpIj4mI3hhOwk8dGl0bGUgaWQ9InRpdGxlNjI4MjAiPlBhZ2UtMTwvdGl0bGU+JiN4YTsJPGcgaWQ9Imdyb3VwMzgyNC0xIiB0cmFuc2Zvcm09InRyYW5zbGF0ZSgxLjUsLTEuNSkiPiYjeGE7CQk8dGl0bGUgaWQ9InRpdGxlNjI4MjIiPkhUVFBTIEFkYXB0ZXI8L3RpdGxlPiYjeGE7CQk8ZyBpZD0iZ3JvdXAzODI1LTIiPiYjeGE7CQkJPHRpdGxlIGlkPSJ0aXRsZTYyODI0Ij5BZGFwdGVyL0Nvbm5lY3RvcjwvdGl0bGU+JiN4YTsJCQk8ZyBpZD0ic2hhcGUzODI2LTMiIHRyYW5zZm9ybT0icm90YXRlKC05MCwxMS4zOTA5LDYyLjEwMTEpIj4mI3hhOwkJCQk8dGl0bGUgaWQ9InRpdGxlNjI4MjYiPmxpbmUxNTU5ODwvdGl0bGU+JiN4YTsJCQkJJiN4YTsJCQkJCTxwYXRoIGlkPSJwYXRoNjI4MjgiIGlua3NjYXBlOmNvbm5lY3Rvci1jdXJ2YXR1cmU9IjAiIHN0eWxlPSJmaWxsOm5vbmU7c3Ryb2tlOiM1NTZBOEE7c3Ryb2tlLXdpZHRoOjEuNTtzdHJva2UtbWl0ZXJsaW1pdDozOyIgZD0iICAgICAgTTAsNzcuOWgyOC42NiIvPiYjeGE7CQkJPC9nPiYjeGE7CQkJPGcgaWQ9InNoYXBlMzgyNy02IiB0cmFuc2Zvcm09InJvdGF0ZSg5MCwzMy4wNzA1LDc3LjkwMTUpIj4mI3hhOwkJCQk8dGl0bGUgaWQ9InRpdGxlNjI4MzEiPmxpbmUxNTYwMDwvdGl0bGU+JiN4YTsJCQkJJiN4YTsJCQkJCTxwYXRoIGlkPSJwYXRoNjI4MzMiIGlua3NjYXBlOmNvbm5lY3Rvci1jdXJ2YXR1cmU9IjAiIHN0eWxlPSJmaWxsOm5vbmU7c3Ryb2tlOiM1NTZBOEE7c3Ryb2tlLXdpZHRoOjEuNTtzdHJva2UtbWl0ZXJsaW1pdDozOyIgZD0iICAgICAgTTAsNzcuOWgyNi40NiIvPiYjeGE7CQkJPC9nPiYjeGE7CQkJPGcgaWQ9InNoYXBlMzgyOC05IiB0cmFuc2Zvcm09InJvdGF0ZSgxODAsMzAuMTMwOCw3My40OTIpIj4mI3hhOwkJCQk8dGl0bGUgaWQ9InRpdGxlNjI4MzYiPmxpbmUxNTYwMjwvdGl0bGU+JiN4YTsJCQkJJiN4YTsJCQkJCTxwYXRoIGlkPSJwYXRoNjI4MzgiIGlua3NjYXBlOmNvbm5lY3Rvci1jdXJ2YXR1cmU9IjAiIHN0eWxlPSJmaWxsOm5vbmU7c3Ryb2tlOiM1NTZBOEE7c3Ryb2tlLXdpZHRoOjEuNTtzdHJva2UtbWl0ZXJsaW1pdDozOyIgZD0iICAgICAgTTAsNzcuOWg2MC4yNiIvPiYjeGE7CQkJPC9nPiYjeGE7CQkJPGcgaWQ9InNoYXBlMzgyOS0xMiIgdHJhbnNmb3JtPSJyb3RhdGUoMTgwLDMwLjEzMDgsNzYuNDMxNSkiPiYjeGE7CQkJCTx0aXRsZSBpZD0idGl0bGU2Mjg0MSI+bGluZTE1NjA0PC90aXRsZT4mI3hhOwkJCQkmI3hhOwkJCQkJPHBhdGggaWQ9InBhdGg2Mjg0MyIgaW5rc2NhcGU6Y29ubmVjdG9yLWN1cnZhdHVyZT0iMCIgc3R5bGU9ImZpbGw6bm9uZTtzdHJva2U6IzU1NkE4QTtzdHJva2Utd2lkdGg6MS41O3N0cm9rZS1taXRlcmxpbWl0OjM7IiBkPSIgICAgICBNMCw3Ny45aDYwLjI2Ii8+JiN4YTsJCQk8L2c+JiN4YTsJCQk8ZyBpZD0ic2hhcGUzODMwLTE1IiB0cmFuc2Zvcm09InRyYW5zbGF0ZSgyMS4zMTIpIj4mI3hhOwkJCQk8dGl0bGUgaWQ9InRpdGxlNjI4NDYiPnJlY3QxNTYwNjwvdGl0bGU+JiN4YTsJCQkJJiN4YTsJCQkJCTxwYXRoIGlkPSJwYXRoNjI4NDgiIGlua3NjYXBlOmNvbm5lY3Rvci1jdXJ2YXR1cmU9IjAiIHN0eWxlPSJmaWxsOiM5MjczQjY7c3Ryb2tlOiM1NTZBOEE7c3Ryb2tlLXdpZHRoOjEuNTtzdHJva2UtbWl0ZXJsaW1pdDozOyIgZD0iICAgICAgTTAsNzQuOTZjMCwxLjYyLDEuMzIsMi45NCwyLjk0LDIuOTRjMCwwLDAsMCwwLDBIMTQuN2MxLjYyLDAsMi45NC0xLjMyLDIuOTQtMi45NGMwLDAsMCwwLDAsMHYtNS44OCAgICAgIGMwLTEuNjItMS4zMi0yLjk0LTIuOTQtMi45NGMwLDAsMCwwLDAsMEgyLjk0QzEuMzIsNjYuMTQsMCw2Ny40NiwwLDY5LjA4YzAsMCwwLDAsMCwwVjc0Ljk2eiIvPiYjeGE7CQkJPC9nPiYjeGE7CQk8L2c+JiN4YTsJCTxnIGlkPSJncm91cDM4MzEtMTciIHRyYW5zZm9ybT0idHJhbnNsYXRlKDYuNjE0MDgsLTI4LjYxOCkiPiYjeGE7CQkJPHRpdGxlIGlkPSJ0aXRsZTYyODUyIj5nMTUxMDM8L3RpdGxlPiYjeGE7CQkJPGcgaWQ9InNoYXBlMzgzMi0xOCI+JiN4YTsJCQkJPHRpdGxlIGlkPSJ0aXRsZTYyODU0Ij5jaXJjbGUxNTA1NTwvdGl0bGU+JiN4YTsJCQkJPGNpcmNsZSBpZD0iZWxsaXBzZTYyODU2IiBzdHlsZT0iZmlsbDojRkZGRkZGOyIgY3g9IjIzLjUyIiBjeT0iNTQuMzgiIHI9IjIzLjUyIi8+JiN4YTsJCQk8L2c+JiN4YTsJCQk8ZyBpZD0ic2hhcGUzODMzLTIwIiB0cmFuc2Zvcm09InRyYW5zbGF0ZSgxLjQ2NzA1LC0xLjI4NjA3KSI+JiN4YTsJCQkJPHRpdGxlIGlkPSJ0aXRsZTYyODU5Ij5wYXRoMTUwNTc8L3RpdGxlPiYjeGE7CQkJCTxwYXRoIGlkPSJwYXRoNjI4NjEiIGlua3NjYXBlOmNvbm5lY3Rvci1jdXJ2YXR1cmU9IjAiIHN0eWxlPSJmaWxsOiNGRkZGRkY7IiBkPSJNNDQuNDYsNTUuNDljMCwwLjA2LDAsMC4xMiwwLDAuMTggICAgICBjMC4xLDEyLjI4LTkuNzgsMjIuMzEtMjIuMDUsMjIuNDFTMC4xLDY4LjMsMCw1Ni4wMmMwLTAuMTIsMC0wLjI0LDAtMC4zNWMwLTAuMDYsMC0wLjEyLDAtMC4xOCAgICAgIGMtMC4xLTEyLjI4LDkuNzgtMjIuMzEsMjIuMDUtMjIuNDFzMjIuMzEsOS43OCwyMi40MSwyMi4wNUM0NC40Niw1NS4yNSw0NC40Niw1NS4zNyw0NC40Niw1NS40OXoiLz4mI3hhOwkJCTwvZz4mI3hhOwkJCTxnIGlkPSJzaGFwZTM4MzQtMjIiIHRyYW5zZm9ybT0idHJhbnNsYXRlKDQuMDc4NjgsLTM0LjU0MDIpIj4mI3hhOwkJCQk8dGl0bGUgaWQ9InRpdGxlNjI4NjQiPnBhdGgxNTA1OTwvdGl0bGU+JiN4YTsJCQkJPHBhdGggaWQ9InBhdGg2Mjg2NiIgaW5rc2NhcGU6Y29ubmVjdG9yLWN1cnZhdHVyZT0iMCIgc3R5bGU9ImZpbGw6bm9uZTsiIGQ9Ik0wLDc2LjE0YzMuMTksMS4wMywxMC42MiwxLjc2LDE5LjM1LDEuNzYgICAgICBjOC40OCwwLDE1Ljc5LTAuNjksMTkuMTEtMS42OUwwLDc2LjE0eiIvPiYjeGE7CQkJCSYjeGE7CQkJCQk8cGF0aCBpZD0icGF0aDYyODY4IiBpbmtzY2FwZTpjb25uZWN0b3ItY3VydmF0dXJlPSIwIiBzdHlsZT0iZmlsbDpub25lO3N0cm9rZTojRDNEM0QzO3N0cm9rZS13aWR0aDoxLjU7c3Ryb2tlLW1pdGVybGltaXQ6MzsiIGQ9IiAgICAgIE0wLDc2LjE0YzMuMTksMS4wMywxMC42MiwxLjc2LDE5LjM1LDEuNzZjOC40OCwwLDE1Ljc5LTAuNjksMTkuMTEtMS42OSIvPiYjeGE7CQkJPC9nPiYjeGE7CQkJPGcgaWQ9InNoYXBlMzgzNS0yNSIgdHJhbnNmb3JtPSJ0cmFuc2xhdGUoMTMuMTY5NCwtMjIuMzExNSkiPiYjeGE7CQkJCTx0aXRsZSBpZD0idGl0bGU2Mjg3MSI+cGF0aDE1MDYxPC90aXRsZT4mI3hhOwkJCQk8cGF0aCBpZD0icGF0aDYyODczIiBpbmtzY2FwZTpjb25uZWN0b3ItY3VydmF0dXJlPSIwIiBzdHlsZT0iZmlsbDojRDNEM0QzOyIgZD0iTTEwLjM1LDU1LjEyYzQuMTIsMCw4LjcsOC43Miw4Ljg3LDIxLjMxSDEuNDggICAgICBDMS42NSw2My44NCw2LjIzLDU1LjEyLDEwLjM1LDU1LjEyeiBNMTAuMzUsNTMuNjVDNC42Myw1My42NSwwLDY0LjE4LDAsNzcuMTdjMCwwLjI1LDAsMC40OSwwLDAuNzNoMjAuNjljMC0wLjI0LDAtMC40OCwwLTAuNzMgICAgICBjMC0xMi45OS00LjYzLTIzLjUyLTEwLjM1LTIzLjUySDEwLjM1eiIvPiYjeGE7CQkJPC9nPiYjeGE7CQkJPGcgaWQ9InNoYXBlMzgzNi0yNyIgdHJhbnNmb3JtPSJ0cmFuc2xhdGUoMS4xMDk3LC0xLjEwMjM1KSI+JiN4YTsJCQkJPHRpdGxlIGlkPSJ0aXRsZTYyODc2Ij5wYXRoMTUwNjM8L3RpdGxlPiYjeGE7CQkJCTxwYXRoIGlkPSJwYXRoNjI4NzgiIGlua3NjYXBlOmNvbm5lY3Rvci1jdXJ2YXR1cmU9IjAiIHN0eWxlPSJmaWxsOiM1NUQyRjY7IiBkPSJNMjIuNTksNzcuOUMxMC4yLDc3Ljg3LDAuMTMsNjcuODgsMCw1NS40OSAgICAgIHYtMC4zN2g0NS4xOXYwLjM3QzQ1LjA2LDY3Ljg5LDM0Ljk5LDc3Ljg3LDIyLjU5LDc3Ljl6Ii8+JiN4YTsJCQk8L2c+JiN4YTsJCQk8ZyBpZD0ic2hhcGUzODM3LTI5IiB0cmFuc2Zvcm09InRyYW5zbGF0ZSgxLjQ2OTgsLTYuODg3ODkpIj4mI3hhOwkJCQk8dGl0bGUgaWQ9InRpdGxlNjI4ODEiPnBhdGgxNTA2NTwvdGl0bGU+JiN4YTsJCQkJPHBhdGggaWQ9InBhdGg2Mjg4MyIgaW5rc2NhcGU6Y29ubmVjdG9yLWN1cnZhdHVyZT0iMCIgc3R5bGU9ImZpbGw6IzU1NkE4QTsiIGQ9Ik0yMi4wNSwzOS4yM2MxMi4xOCwwLDIyLjA1LDkuODcsMjIuMDQsMjIuMDUgICAgICBzLTkuODcsMjIuMDUtMjIuMDUsMjIuMDRTMCw3My40NSwwLDYxLjI3YzAsMCwwLDAsMCwwQzAsNDkuMSw5Ljg4LDM5LjIzLDIyLjA1LDM5LjIzeiBNMjIuMDUsMzcuNzYgICAgICBjLTEyLjk5LDAtMjMuNTIsMTAuNTItMjMuNTIsMjMuNTFjMCwxMi45OSwxMC41MiwyMy41MiwyMy41MSwyMy41MnMyMy41Mi0xMC41MiwyMy41Mi0yMy41MWMwLDAsMC0wLjAxLDAtMC4wMSAgICAgIEM0NS41Niw0OC4yOSwzNS4wMywzNy43NiwyMi4wNSwzNy43NnoiLz4mI3hhOwkJCTwvZz4mI3hhOwkJCTxnIGlkPSJzaGFwZTM4MzgtMzEiIHRyYW5zZm9ybT0idHJhbnNsYXRlKDQuMDc4NjgsLTExLjUyMzIpIj4mI3hhOwkJCQk8dGl0bGUgaWQ9InRpdGxlNjI4ODYiPnBhdGgxNTA2NzwvdGl0bGU+JiN4YTsJCQkJPHBhdGggaWQ9InBhdGg2Mjg4OCIgaW5rc2NhcGU6Y29ubmVjdG9yLWN1cnZhdHVyZT0iMCIgc3R5bGU9ImZpbGw6bm9uZTsiIGQ9Ik0wLDc3LjljMy4xOS0xLjAzLDEwLjY1LTEuNzYsMTkuMzUtMS43NiAgICAgIGM4LjQ4LDAsMTUuNzksMC42OSwxOS4xMSwxLjY5TDAsNzcuOXoiLz4mI3hhOwkJCQkmI3hhOwkJCQkJPHBhdGggaWQ9InBhdGg2Mjg5MCIgaW5rc2NhcGU6Y29ubmVjdG9yLWN1cnZhdHVyZT0iMCIgc3R5bGU9ImZpbGw6bm9uZTtzdHJva2U6IzU1NkE4QTtzdHJva2Utd2lkdGg6MS41O3N0cm9rZS1taXRlcmxpbWl0OjM7IiBkPSIgICAgICBNMCw3Ny45YzMuMTktMS4wMywxMC42NS0xLjc2LDE5LjM1LTEuNzZjOC40OCwwLDE1Ljc5LDAuNjksMTkuMTEsMS42OSIvPiYjeGE7CQkJPC9nPiYjeGE7CQkJPGcgaWQ9InNoYXBlMzgzOS0zNCIgdHJhbnNmb3JtPSJ0cmFuc2xhdGUoMC42OTA4MDQsLTIzLjUxNjcpIj4mI3hhOwkJCQk8dGl0bGUgaWQ9InRpdGxlNjI4OTMiPmxpbmUxNTA2OTwvdGl0bGU+JiN4YTsJCQkJJiN4YTsJCQkJCTxwYXRoIGlkPSJwYXRoNjI4OTUiIGlua3NjYXBlOmNvbm5lY3Rvci1jdXJ2YXR1cmU9IjAiIHN0eWxlPSJmaWxsOm5vbmU7c3Ryb2tlOiM1NTZBOEE7c3Ryb2tlLXdpZHRoOjEuNTtzdHJva2UtbWl0ZXJsaW1pdDozOyIgZD0iICAgICAgTTAsNzcuOWg0NS44NSIvPiYjeGE7CQkJPC9nPiYjeGE7CQkJPGcgaWQ9Imdyb3VwMzg0MC0zNyIgdHJhbnNmb3JtPSJ0cmFuc2xhdGUoNi45OTM0NCwtMjcuMjY0MikiPiYjeGE7CQkJCTx0aXRsZSBpZD0idGl0bGU2Mjg5OCI+ZzE1MDc5PC90aXRsZT4mI3hhOwkJCQk8ZyBpZD0ic2hhcGUzODQxLTM4Ij4mI3hhOwkJCQkJPHRpdGxlIGlkPSJ0aXRsZTYyOTAwIj5wYXRoMTUwNzE8L3RpdGxlPiYjeGE7CQkJCQk8cGF0aCBpZD0icGF0aDYyOTAyIiBpbmtzY2FwZTpjb25uZWN0b3ItY3VydmF0dXJlPSIwIiBzdHlsZT0iZmlsbDojNTU2QThBOyIgZD0iTTYuNTgsNzcuODlINS4yMnYtMy41NUgxLjM2djMuNTZIMHYtOC4yaDEuMzYgICAgICAgdjMuNDNoMy44NnYtMy40NWgxLjM2Vjc3Ljg5eiIvPiYjeGE7CQkJCTwvZz4mI3hhOwkJCQk8ZyBpZD0ic2hhcGUzODQyLTQwIiB0cmFuc2Zvcm09InRyYW5zbGF0ZSg3LjgwNjgxLC0wLjAwNjUwNTY3KSI+JiN4YTsJCQkJCTx0aXRsZSBpZD0idGl0bGU2MjkwNSI+cGF0aDE1MDczPC90aXRsZT4mI3hhOwkJCQkJPHBhdGggaWQ9InBhdGg2MjkwNyIgaW5rc2NhcGU6Y29ubmVjdG9yLWN1cnZhdHVyZT0iMCIgc3R5bGU9ImZpbGw6IzU1NkE4QTsiIGQ9Ik02LjA2LDcwLjg2SDMuNzF2Ny4wNEgyLjM1di03LjA0SDBWNjkuN2g2LjA3ICAgICAgIEw2LjA2LDcwLjg2eiIvPiYjeGE7CQkJCTwvZz4mI3hhOwkJCQk8ZyBpZD0ic2hhcGUzODQzLTQyIiB0cmFuc2Zvcm09InRyYW5zbGF0ZSgxNC40OTQ2LC0wLjAwNjUwNTY3KSI+JiN4YTsJCQkJCTx0aXRsZSBpZD0idGl0bGU2MjkxMCI+cGF0aDE1MDc1PC90aXRsZT4mI3hhOwkJCQkJPHBhdGggaWQ9InBhdGg2MjkxMiIgaW5rc2NhcGU6Y29ubmVjdG9yLWN1cnZhdHVyZT0iMCIgc3R5bGU9ImZpbGw6IzU1NkE4QTsiIGQ9Ik02LjA2LDcwLjg2SDMuNzF2Ny4wNEgyLjM1di03LjA0SDBWNjkuN2g2LjA3ICAgICAgIEw2LjA2LDcwLjg2eiIvPiYjeGE7CQkJCTwvZz4mI3hhOwkJCQk8ZyBpZD0ic2hhcGUzODQ0LTQ0IiB0cmFuc2Zvcm09InRyYW5zbGF0ZSgyMS43NDg1LC0wLjAwNjUwNTY3KSI+JiN4YTsJCQkJCTx0aXRsZSBpZD0idGl0bGU2MjkxNSI+cGF0aDE1MDc3PC90aXRsZT4mI3hhOwkJCQkJPHBhdGggaWQ9InBhdGg2MjkxNyIgaW5rc2NhcGU6Y29ubmVjdG9yLWN1cnZhdHVyZT0iMCIgc3R5bGU9ImZpbGw6IzU1NkE4QTsiIGQ9Ik0xLjM3LDc0LjkzdjIuOTdIMHYtOC4yaDIuNDkgICAgICAgYzAuNzgtMC4wNSwxLjU2LDAuMTgsMi4xOSwwLjY1YzAuNTMsMC40NywwLjgyLDEuMTUsMC43OCwxLjg2YzAuMDIsMC43NC0wLjI3LDEuNDUtMC44MSwxLjk1Yy0wLjYxLDAuNTMtMS40LDAuOC0yLjIsMC43NiAgICAgICBMMS4zNyw3NC45M3ogTTEuMzcsNzAuODJ2Mi45N2gwLjg3YzAuNDcsMC4wMywwLjk0LTAuMTEsMS4zMS0wLjRjMC4zMS0wLjMsMC40OC0wLjcyLDAuNDUtMS4xNWMwLTAuOTYtMC41Ni0xLjQ0LTEuNjgtMS40NCAgICAgICBMMS4zNyw3MC44MnoiLz4mI3hhOwkJCQk8L2c+JiN4YTsJCQk8L2c+JiN4YTsJCQk8ZyBpZD0ic2hhcGUzODQ1LTQ2IiB0cmFuc2Zvcm09InRyYW5zbGF0ZSgxMy4xNzY3KSI+JiN4YTsJCQkJPHRpdGxlIGlkPSJ0aXRsZTYyOTIxIj5wYXRoMTUwODE8L3RpdGxlPiYjeGE7CQkJCTxwYXRoIGlkPSJwYXRoNjI5MjMiIGlua3NjYXBlOmNvbm5lY3Rvci1jdXJ2YXR1cmU9IjAiIHN0eWxlPSJmaWxsOiM1NTZBOEE7IiBkPSJNMTkuMjEsNTUuMTJjLTAuMTcsMTIuNi00Ljc1LDIxLjMxLTguODcsMjEuMzEgICAgICBzLTguNy04LjcxLTguODctMjEuMzFMMTkuMjEsNTUuMTJ6IE0yMC42OCw1My42NUgwYzAsMC4yNCwwLDAuNDgsMCwwLjczQzAsNjcuMzcsNC42Myw3Ny45LDEwLjM1LDc3LjkgICAgICBjNS43MSwwLDEwLjM0LTEwLjUzLDEwLjM0LTIzLjUyYzAtMC4yNSwwLTAuNDksMC0wLjczTDIwLjY4LDUzLjY1eiIvPiYjeGE7CQkJPC9nPiYjeGE7CQk8L2c+JiN4YTsJCTxnIGlkPSJzaGFwZTM4NDYtNDgiIHRyYW5zZm9ybT0idHJhbnNsYXRlKDQxLjA5ODIsLTU1LjU1MTMpIj4mI3hhOwkJCTx0aXRsZSBpZD0idGl0bGU2MjkyNyI+SFRUUFMgQWRhcHRlci40MTYwPC90aXRsZT4mI3hhOwkJCTxwYXRoIGlkPSJwYXRoNjI5MjkiIGlua3NjYXBlOmNvbm5lY3Rvci1jdXJ2YXR1cmU9IjAiIHN0eWxlPSJmaWxsOiNDMDUwNDY7IiBkPSJNMi44Miw3Ni41OWMtMC4zOSwwLTAuNzMtMC4xLTAuODctMC4zNCAgICAgYy0wLjItMC4yLTAuMy0wLjU0LTAuMy0xLjAzSDBjMCwwLjU0LDAuMTUsMS4wMywwLjM5LDEuNDJzMC41OCwwLjczLDEuMDIsMC45MmMwLjQ0LDAuMjQsMC45MywwLjM0LDEuNDYsMC4zNCAgICAgYzAuNzgsMCwxLjQxLTAuMTksMS44NS0wLjU4YzAuNDQtMC4zOSwwLjY4LTAuOTgsMC42OC0xLjY2YzAtMC42My0wLjE5LTEuMTctMC41My0xLjZjLTAuMzQtMC40NC0wLjkzLTAuNzgtMS43Ni0xLjA3ICAgICBjLTAuNDMtMC4yLTAuNzctMC4zOS0wLjk3LTAuNTljLTAuMTktMC4xOS0wLjI0LTAuMzktMC4yNC0wLjU4YzAtMC4yOSwwLjEtMC41NCwwLjI0LTAuNjhjMC4xNS0wLjE1LDAuMzktMC4yNSwwLjY4LTAuMjUgICAgIHMwLjU0LDAuMSwwLjczLDAuM2MwLjE1LDAuMTksMC4yNSwwLjQ4LDAuMjUsMC44N2gxLjY1YzAtMC40OS0wLjEtMC45Mi0wLjI5LTEuMzFjLTAuMi0wLjM5LTAuNTQtMC42OC0wLjkzLTAuODggICAgIGMtMC4zOS0wLjE5LTAuODItMC4yOS0xLjM2LTAuMjljLTAuNzMsMC0xLjM2LDAuMTktMS44NSwwLjYzYy0wLjQ4LDAuNDQtMC43MywwLjk4LTAuNzMsMS42NmMwLDAuNTgsMC4yLDEuMDcsMC41NCwxLjQ2ICAgICBjMC4zNCwwLjQzLDAuOTcsMC43OCwxLjc1LDEuMTJjMC40NCwwLjE5LDAuNzgsMC4zNCwwLjkyLDAuNTNjMC4yLDAuMiwwLjI1LDAuNDQsMC4yNSwwLjc4QzMuNyw3Ni4zLDMuNDEsNzYuNTksMi44Miw3Ni41OXoiLz4mI3hhOwkJPC9nPiYjeGE7CTwvZz4mI3hhOzwvZz4mI3hhOzwvc3ZnPg==;fontColor=#007FFF;" parent="1" vertex="1">
          <mxGeometry x="297" y="326" width="62.36" height="79" as="geometry" />
        </mxCell>
        <mxCell id="k-QLMp8ny6NX1GwU4qRv-2089" value="&lt;div&gt;Mutual IPFS/CXO/&lt;/div&gt;&lt;div&gt;HYPERDRIVES &lt;br&gt;Redundancies&lt;br&gt; whenever possible&lt;br&gt; and/or advisable&lt;br&gt;&lt;/div&gt;" style="aspect=fixed;html=1;points=[];align=center;image;fontSize=12;image=img/lib/mscae/Dedicated_Event_Hub.svg;" vertex="1" parent="1">
          <mxGeometry x="626.04" y="325" width="72.92" height="70" as="geometry" />
        </mxCell>
        <mxCell id="k-QLMp8ny6NX1GwU4qRv-2090" value="Future hardware QTRNG" style="aspect=fixed;html=1;points=[];align=center;image;fontSize=12;image=img/lib/mscae/Managed_Applications.svg;" vertex="1" parent="1">
          <mxGeometry x="456.5" y="690" width="47" height="50" as="geometry" />
        </mxCell>
        <mxCell id="k-QLMp8ny6NX1GwU4qRv-2093" value="&lt;div&gt;&lt;br&gt;&lt;/div&gt;&lt;div&gt;&lt;br&gt;&lt;/div&gt;&lt;div&gt;&lt;br&gt;&lt;/div&gt;&lt;div&gt;&lt;br&gt;&lt;/div&gt;&lt;div&gt;&lt;br&gt;&lt;/div&gt;&lt;div&gt;&lt;br&gt;&lt;/div&gt;&lt;div&gt;&lt;div&gt;&lt;br&gt;&lt;/div&gt;&lt;div&gt;Bitshares&lt;br&gt; Full node&lt;/div&gt;&lt;div&gt; and Gateway&lt;/div&gt;&lt;/div&gt;" style="html=1;dashed=0;whitespace=wrap;fillColor=#2875E2;strokeColor=#ffffff;points=[[0.005,0.63,0],[0.1,0.2,0],[0.9,0.2,0],[0.5,0,0],[0.995,0.63,0],[0.72,0.99,0],[0.5,1,0],[0.28,0.99,0]];shape=mxgraph.kubernetes.icon;prIcon=node" vertex="1" parent="1">
          <mxGeometry x="297" y="698" width="86.75" height="50" as="geometry" />
        </mxCell>
        <mxCell id="k-QLMp8ny6NX1GwU4qRv-2097" value="&lt;div&gt;&lt;br&gt;&lt;/div&gt;&lt;div&gt;&lt;br&gt;&lt;/div&gt;&lt;div&gt;&lt;br&gt;&lt;/div&gt;&lt;div&gt;&lt;br&gt;&lt;/div&gt;&lt;div&gt;&lt;br&gt;&lt;/div&gt;&lt;div&gt;&lt;br&gt;&lt;/div&gt;&lt;div&gt;Electrum&lt;br&gt; Server&lt;/div&gt;" style="html=1;dashed=0;whitespace=wrap;fillColor=#2875E2;strokeColor=#ffffff;points=[[0.005,0.63,0],[0.1,0.2,0],[0.9,0.2,0],[0.5,0,0],[0.995,0.63,0],[0.72,0.99,0],[0.5,1,0],[0.28,0.99,0]];shape=mxgraph.kubernetes.icon;prIcon=node" vertex="1" parent="1">
          <mxGeometry x="240" y="700" width="50" height="48" as="geometry" />
        </mxCell>
        <mxCell id="k-QLMp8ny6NX1GwU4qRv-2100" value="Assisted &lt;br&gt;&lt;div&gt;Key management&lt;/div&gt;" style="shape=image;html=1;verticalAlign=top;verticalLabelPosition=bottom;labelBackgroundColor=#ffffff;imageAspect=0;aspect=fixed;image=https://cdn4.iconfinder.com/data/icons/free-game-icons/64/Unlock.png" vertex="1" parent="1">
          <mxGeometry x="277" y="615.5" width="49" height="49" as="geometry" />
        </mxCell>
        <mxCell id="k-QLMp8ny6NX1GwU4qRv-2101" value="&lt;font color=&quot;#CC0000&quot;&gt;Self-Sovereignty&lt;br&gt;Freedom from Censorship&lt;br&gt;&lt;/font&gt;&lt;div&gt;&lt;font color=&quot;#CC0000&quot;&gt; and abusive tactics over &lt;br&gt;&lt;/font&gt;&lt;/div&gt;&lt;div&gt;&lt;font color=&quot;#CC0000&quot;&gt;Privacy and Ownership&lt;/font&gt;&lt;/div&gt;" style="shape=image;html=1;verticalAlign=top;verticalLabelPosition=bottom;labelBackgroundColor=#ffffff;imageAspect=0;aspect=fixed;image=https://cdn4.iconfinder.com/data/icons/free-game-icons/64/Unlock.png" vertex="1" parent="1">
          <mxGeometry x="985.5" y="207" width="74" height="74" as="geometry" />
        </mxCell>
        <mxCell id="k-QLMp8ny6NX1GwU4qRv-2107" value="&lt;div&gt;Mutual IPFS/CXO/&lt;/div&gt;&lt;div&gt;HYPERDRIVES &lt;br&gt;Redundancies&lt;br&gt; whenever possible&lt;br&gt; and/or advisable&lt;br&gt;&lt;/div&gt;" style="aspect=fixed;html=1;points=[];align=center;image;fontSize=12;image=img/lib/mscae/Dedicated_Event_Hub.svg;" vertex="1" parent="1">
          <mxGeometry x="627.54" y="498" width="72.92" height="70" as="geometry" />
        </mxCell>
        <mxCell id="k-QLMp8ny6NX1GwU4qRv-2111" value="&lt;div&gt;Published March 14th 2021&lt;/div&gt;&lt;div&gt;Pi day&lt;/div&gt;&lt;div&gt;Jeff@privateness.network&lt;br&gt;&lt;/div&gt;" style="text;html=1;align=center;verticalAlign=middle;resizable=0;points=[];autosize=1;fontSize=13;fontColor=#990000;" vertex="1" parent="1">
          <mxGeometry x="885" y="795" width="170" height="50" as="geometry" />
        </mxCell>
      </root>
    </mxGraphModel>
  </diagram>
</mxfile>
